<svg xmlns="http://www.w3.org/2000/svg" width="439" height="263" viewBox="0 0 439 263"><defs><mask id="ppjfb" width="2.06" height="2.11" x="-1.03" y="-1.06"><path fill="#fff" d="M33 14h370v194H33z"/><path d="M362.336 30.126c23.45-1.848 35.454 16.79 31.112 44.7l-10.221 95.263c-3.54 22.76-14.08 33.911-33.737 32.23-33.27-2.844-252.8-20.18-293.472-33.949-10.234-.045-8.649 14.994-11.693-18.995.301-7.169-1.83-50.33 1.99-81.857 1.23-10.924 1.877-31.285 23.397-32.981z"/></mask><filter id="ppjfa" width="470" height="314" x="-17" y="-36" filterUnits="userSpaceOnUse"><feOffset dy="20" in="SourceGraphic" result="FeOffset1335Out"/><feGaussianBlur in="FeOffset1335Out" result="FeGaussianBlur1336Out" stdDeviation="16 16"/></filter></defs><g><g transform="rotate(-2 218 111)"><g filter="url(#ppjfa)"><path fill="none" stroke="#e0e0e0" stroke-opacity=".5" stroke-width="20" d="M362.336 30.126c23.45-1.848 35.454 16.79 31.112 44.7l-10.221 95.263c-3.54 22.76-14.08 33.911-33.737 32.23-33.27-2.844-252.8-20.18-293.472-33.949-10.234-.045-8.649 14.994-11.693-18.995.301-7.169-1.83-50.33 1.99-81.857 1.23-10.924 1.877-31.285 23.397-32.981z" mask="url(&quot;#ppjfb&quot;)"/><path fill="#e0e0e0" fill-opacity=".5" d="M362.336 30.126c23.45-1.848 35.454 16.79 31.112 44.7l-10.221 95.263c-3.54 22.76-14.08 33.911-33.737 32.23-33.27-2.844-252.8-20.18-293.472-33.949-10.234-.045-8.649 14.994-11.693-18.995.301-7.169-1.83-50.33 1.99-81.857 1.23-10.924 1.877-31.285 23.397-32.981z"/></g><path fill="#fff" d="M362.336 30.126c23.45-1.848 35.454 16.79 31.112 44.7l-10.221 95.263c-3.54 22.76-14.08 33.911-33.737 32.23-33.27-2.844-252.8-20.18-293.472-33.949-10.234-.045-8.649 14.994-11.693-18.995.301-7.169-1.83-50.33 1.99-81.857 1.23-10.924 1.877-31.285 23.397-32.981z"/></g></g></svg>