<svg xmlns="http://www.w3.org/2000/svg" width="417" height="482" viewBox="0 0 417 482"><defs><linearGradient id="w8o9a" x1="38.4" x2="416" y1="409" y2="0" gradientUnits="userSpaceOnUse"><stop offset="0" stop-color="#73c5c6"/><stop offset="1" stop-color="#d2cbbb"/></linearGradient><linearGradient id="w8o9b" x1="22.16" x2="416" y1="409" y2="8" gradientUnits="userSpaceOnUse"><stop offset="0" stop-color="#d2cbbb"/><stop offset="1" stop-color="#73c5c6"/></linearGradient><linearGradient id="w8o9c" x1="-3.33" x2="410.71" y1="454.62" y2="430.49" gradientUnits="userSpaceOnUse"><stop offset="0" stop-color="#d2cbbb"/><stop offset="1" stop-color="#73c5c6"/></linearGradient><linearGradient id="w8o9d" x1="-24.79" x2="415" y1="466.05" y2="431.88" gradientUnits="userSpaceOnUse"><stop offset="0" stop-color="#d2cbbb"/><stop offset="1" stop-color="#73c5c6"/></linearGradient><linearGradient id="w8o9e" x1="165" x2="282.96" y1="243.83" y2="228.14" gradientUnits="userSpaceOnUse"><stop offset="0" stop-color="snow"/><stop offset="1" stop-color="#d2cbbb"/></linearGradient><linearGradient id="w8o9f" x1="133.95" x2="173.63" y1="293.3" y2="243.09" gradientUnits="userSpaceOnUse"><stop offset="0" stop-color="snow"/><stop offset="1" stop-color="#d2cbbb"/></linearGradient><linearGradient id="w8o9g" x1="140.78" x2="142.7" y1="241.89" y2="295.01" gradientUnits="userSpaceOnUse"><stop offset="0" stop-color="#52f0c0"/><stop offset="1" stop-color="#9f71fb"/></linearGradient><linearGradient id="w8o9h" x1="161.83" x2="133.6" y1="273.48" y2="239.92" gradientUnits="userSpaceOnUse"><stop offset="0" stop-color="#a737d5"/><stop offset="1" stop-color="#ef497a"/></linearGradient><linearGradient id="w8o9i" x1="156.26" x2="129.7" y1="276.83" y2="240.55" gradientUnits="userSpaceOnUse"><stop offset="0" stop-color="#a737d5"/><stop offset="1" stop-color="#ef497a"/></linearGradient><linearGradient id="w8o9j" x1="152.63" x2="154.55" y1="243.44" y2="296.57" gradientUnits="userSpaceOnUse"><stop offset="0" stop-color="#52f0c0"/><stop offset="1" stop-color="#9f71fb"/></linearGradient><linearGradient id="w8o9k" x1="174.06" x2="144.45" y1="274.18" y2="243.48" gradientUnits="userSpaceOnUse"><stop offset="0" stop-color="#a737d5"/><stop offset="1" stop-color="#ef497a"/></linearGradient><linearGradient id="w8o9l" x1="169" x2="138.58" y1="281.31" y2="242.12" gradientUnits="userSpaceOnUse"><stop offset="0" stop-color="#a737d5"/><stop offset="1" stop-color="#ef497a"/></linearGradient><linearGradient id="w8o9m" x1="187.14" x2="106.77" y1="414.31" y2="377.95" gradientUnits="userSpaceOnUse"><stop offset="0" stop-color="snow"/><stop offset="1" stop-color="#d2cbbb"/></linearGradient><linearGradient id="w8o9n" x1="234.41" x2="241.16" y1="398.45" y2="399.94" gradientUnits="userSpaceOnUse"><stop offset="0" stop-color="#2b3582"/><stop offset="1" stop-color="#150e42"/></linearGradient><linearGradient id="w8o9o" x1="287.95" x2="286.23" y1="418.01" y2="386.32" gradientUnits="userSpaceOnUse"><stop offset="0" stop-color="#fd8278"/><stop offset="1" stop-color="#fd8278"/></linearGradient><linearGradient id="w8o9p" x1="245.43" x2="244.34" y1="375.81" y2="392.8" gradientUnits="userSpaceOnUse"><stop offset="0" stop-color="#da342d"/><stop offset="1" stop-color="#f3a84a"/></linearGradient><linearGradient id="w8o9q" x1="329.94" x2="328.79" y1="377.55" y2="396.6" gradientUnits="userSpaceOnUse"><stop offset="0" stop-color="#da342d"/><stop offset="1" stop-color="#f3a84a"/></linearGradient><linearGradient id="w8o9r" x1="290.63" x2="303.8" y1="333.74" y2="307.64" gradientUnits="userSpaceOnUse"><stop offset="0" stop-color="#2b3582"/><stop offset="1" stop-color="#150e42"/></linearGradient><linearGradient id="w8o9s" x1="323.87" x2="311.83" y1="411.21" y2="383.77" gradientUnits="userSpaceOnUse"><stop offset="0" stop-color="#2b3582"/><stop offset="1" stop-color="#150e42"/></linearGradient><linearGradient id="w8o9t" x1="264.69" x2="249.65" y1="401.4" y2="406.18" gradientUnits="userSpaceOnUse"><stop offset="0" stop-color="#9cfffb"/><stop offset="1" stop-color="#9bfffa"/></linearGradient><linearGradient id="w8o9u" x1="312.58" x2="300.86" y1="317.53" y2="320.64" gradientUnits="userSpaceOnUse"><stop offset="0" stop-color="#9cfffb"/><stop offset="1" stop-color="#9bfffa"/></linearGradient><linearGradient id="w8o9v" x1="275.97" x2="260.35" y1="359.35" y2="402.54" gradientUnits="userSpaceOnUse"><stop offset="0" stop-color="#53eac9"/><stop offset="1" stop-color="#45aed8"/></linearGradient><linearGradient id="w8o9w" x1="258.71" x2="240.41" y1="269.99" y2="312.57" gradientUnits="userSpaceOnUse"><stop offset="0" stop-color="#9cfffb"/><stop offset="1" stop-color="#9bfffa"/></linearGradient><linearGradient id="w8o9x" x1="298.08" x2="283.15" y1="368.18" y2="409.54" gradientUnits="userSpaceOnUse"><stop offset="0" stop-color="#53eac9"/><stop offset="1" stop-color="#45aed8"/></linearGradient><linearGradient id="w8o9y" x1="273.71" x2="264.56" y1="287.01" y2="307.47" gradientUnits="userSpaceOnUse"><stop offset="0" stop-color="#9cfffb"/><stop offset="1" stop-color="#9bfffa"/></linearGradient><linearGradient id="w8o9z" x1="337.65" x2="270.68" y1="382.7" y2="403.84" gradientUnits="userSpaceOnUse"><stop offset="0" stop-color="#9923be"/><stop offset="1" stop-color="#ea5700"/></linearGradient><linearGradient id="w8o9A" x1="332.27" x2="308.99" y1="390.76" y2="398.77" gradientUnits="userSpaceOnUse"><stop offset="0" stop-color="#9cfffb"/><stop offset="1" stop-color="#9bfffa"/></linearGradient><linearGradient id="w8o9B" x1="241.52" x2="270.03" y1="485.52" y2="321.54" gradientUnits="userSpaceOnUse"><stop offset="0" stop-color="#f4f1bb"/><stop offset="1" stop-color="#f4f1bb"/></linearGradient><linearGradient id="w8o9C" x1="382.27" x2="446.31" y1="373.63" y2="361.34" gradientUnits="userSpaceOnUse"><stop offset="0" stop-color="#fd8278"/><stop offset="1" stop-color="#f9c342"/></linearGradient><linearGradient id="w8o9D" x1="229.03" x2="215.97" y1="464.16" y2="485.84" gradientUnits="userSpaceOnUse"><stop offset="0" stop-color="#e92556"/><stop offset="1" stop-color="#f9c342"/></linearGradient><linearGradient id="w8o9E" x1="193.56" x2="228.28" y1="319.84" y2="327.47" gradientUnits="userSpaceOnUse"><stop offset="0" stop-color="#f9b776"/><stop offset="1" stop-color="#f47960"/></linearGradient><linearGradient id="w8o9F" x1="-3130.61" x2="-3146.29" y1="1803.72" y2="1829.83" gradientUnits="userSpaceOnUse"><stop offset="0" stop-color="#f9b776"/><stop offset="1" stop-color="#f47960"/></linearGradient><linearGradient id="w8o9G" x1="231.26" x2="218.52" y1="413.75" y2="413.75" gradientUnits="userSpaceOnUse"><stop offset="0" stop-color="#2b3582"/><stop offset="1" stop-color="#150e42"/></linearGradient><linearGradient id="w8o9H" x1="231.22" x2="218.27" y1="416.21" y2="416.21" gradientUnits="userSpaceOnUse"><stop offset="0" stop-color="#53d8ff"/><stop offset="1" stop-color="#3840f7"/></linearGradient><linearGradient id="w8o9I" x1="252.96" x2="247.53" y1="413.48" y2="413.48" gradientUnits="userSpaceOnUse"><stop offset="0" stop-color="#2b3582"/><stop offset="1" stop-color="#150e42"/></linearGradient><linearGradient id="w8o9J" x1="-3385.64" x2="-3380.21" y1="416.22" y2="416.22" gradientUnits="userSpaceOnUse"><stop offset="0" stop-color="#53d8ff"/><stop offset="1" stop-color="#3840f7"/></linearGradient><linearGradient id="w8o9K" x1="250.8" x2="246.99" y1="409.63" y2="409.63" gradientUnits="userSpaceOnUse"><stop offset="0" stop-color="#f9b776"/><stop offset="1" stop-color="#f47960"/></linearGradient><linearGradient id="w8o9L" x1="230.68" x2="227.43" y1="409.63" y2="409.63" gradientUnits="userSpaceOnUse"><stop offset="0" stop-color="#f9b776"/><stop offset="1" stop-color="#f47960"/></linearGradient><linearGradient id="w8o9M" x1="205.89" x2="244.26" y1="355.15" y2="399.81" gradientUnits="userSpaceOnUse"><stop offset="0" stop-color="#2b3582"/><stop offset="1" stop-color="#150e42"/></linearGradient><linearGradient id="w8o9N" x1="220.3" x2="218.69" y1="328.19" y2="319.22" gradientUnits="userSpaceOnUse"><stop offset="0" stop-color="#f9b776"/><stop offset="1" stop-color="#f47960"/></linearGradient><linearGradient id="w8o9O" x1="216.02" x2="226.3" y1="312.79" y2="320.26" gradientUnits="userSpaceOnUse"><stop offset="0" stop-color="#f9b776"/><stop offset="1" stop-color="#f47960"/></linearGradient><linearGradient id="w8o9P" x1="223.2" x2="213.71" y1="306.91" y2="318.94" gradientUnits="userSpaceOnUse"><stop offset="0" stop-color="#2b3582"/><stop offset="1" stop-color="#150e42"/></linearGradient><linearGradient id="w8o9Q" x1="218.06" x2="225.47" y1="310.95" y2="319.07" gradientUnits="userSpaceOnUse"><stop offset="0" stop-color="#f9b776"/><stop offset="1" stop-color="#f47960"/></linearGradient><linearGradient id="w8o9R" x1="214.53" x2="238.5" y1="354.19" y2="376.93" gradientUnits="userSpaceOnUse"><stop offset="0" stop-color="#f9b776"/><stop offset="1" stop-color="#f47960"/></linearGradient><linearGradient id="w8o9S" x1="228.63" x2="202.43" y1="359.64" y2="294.69" gradientUnits="userSpaceOnUse"><stop offset="0" stop-color="#5ab6ff"/><stop offset="1" stop-color="#2f68e3"/></linearGradient><linearGradient id="w8o9T" x1="212.32" x2="178.52" y1="411.5" y2="339.47" gradientUnits="userSpaceOnUse"><stop offset="0" stop-color="#9cfffb"/><stop offset="1" stop-color="#9bfffa"/></linearGradient><linearGradient id="w8o9U" x1="174.39" x2="138.69" y1="435.05" y2="361.32" gradientUnits="userSpaceOnUse"><stop offset="0" stop-color="#9cfffb"/><stop offset="1" stop-color="#9bfffa"/></linearGradient><linearGradient id="w8o9V" x1="198.49" x2="163.15" y1="421.23" y2="347.66" gradientUnits="userSpaceOnUse"><stop offset="0" stop-color="#9cfffb"/><stop offset="1" stop-color="#9bfffa"/></linearGradient><linearGradient id="w8o9W" x1="136.09" x2="262.76" y1="367.03" y2="283.97" gradientUnits="userSpaceOnUse"><stop offset="0" stop-color="#73c5c6"/><stop offset="1" stop-color="#45aed8"/></linearGradient><linearGradient id="w8o9X" x1="159.24" x2="164.88" y1="370.68" y2="329.6" gradientUnits="userSpaceOnUse"><stop offset="0" stop-color="#f9b776"/><stop offset="1" stop-color="#e92556"/></linearGradient><linearGradient id="w8o9Y" x1="60.86" x2="57.06" y1="411.66" y2="418.8" gradientUnits="userSpaceOnUse"><stop offset="0" stop-color="#f9b776"/><stop offset="1" stop-color="#f47960"/></linearGradient><linearGradient id="w8o9Z" x1="96.75" x2="93.6" y1="331.08" y2="323.92" gradientUnits="userSpaceOnUse"><stop offset="0" stop-color="#2b3582"/><stop offset="1" stop-color="#150e42"/></linearGradient><linearGradient id="w8o9aa" x1="100.26" x2="94.77" y1="413.54" y2="413.54" gradientUnits="userSpaceOnUse"><stop offset="0" stop-color="#a737d5"/><stop offset="1" stop-color="#ef497a"/></linearGradient><linearGradient id="w8o9ab" x1="122.41" x2="121.87" y1="403.26" y2="423.89" gradientUnits="userSpaceOnUse"><stop offset="0" stop-color="#f9b776"/><stop offset="1" stop-color="#f47960"/></linearGradient><linearGradient id="w8o9ac" x1="128.18" x2="118.86" y1="411.89" y2="411.89" gradientUnits="userSpaceOnUse"><stop offset="0" stop-color="#a737d5"/><stop offset="1" stop-color="#ef497a"/></linearGradient><linearGradient id="w8o9ad" x1="104.75" x2="104.21" y1="402.87" y2="423.27" gradientUnits="userSpaceOnUse"><stop offset="0" stop-color="#f9b776"/><stop offset="1" stop-color="#f47960"/></linearGradient><linearGradient id="w8o9ae" x1="114.6" x2="124.99" y1="369.6" y2="428.76" gradientUnits="userSpaceOnUse"><stop offset="0" stop-color="#52f0c0"/><stop offset="1" stop-color="#9f71fb"/></linearGradient><linearGradient id="w8o9af" x1="103.43" x2="114.14" y1="324.11" y2="383.05" gradientUnits="userSpaceOnUse"><stop offset="0" stop-color="#52f0c0"/><stop offset="1" stop-color="#9f71fb"/></linearGradient><linearGradient id="w8o9ag" x1="106.62" x2="105.36" y1="332.12" y2="322.04" gradientUnits="userSpaceOnUse"><stop offset="0" stop-color="#f9b776"/><stop offset="1" stop-color="#f47960"/></linearGradient><linearGradient id="w8o9ah" x1="105.32" x2="88.55" y1="321.78" y2="300.43" gradientUnits="userSpaceOnUse"><stop offset="0" stop-color="#f9b776"/><stop offset="1" stop-color="#f47960"/></linearGradient><linearGradient id="w8o9ai" x1="100.54" x2="96.46" y1="317.77" y2="311.29" gradientUnits="userSpaceOnUse"><stop offset="0" stop-color="#2b3582"/><stop offset="1" stop-color="#150e42"/></linearGradient><linearGradient id="w8o9aj" x1="94.96" x2="85.18" y1="332.93" y2="312.54" gradientUnits="userSpaceOnUse"><stop offset="0" stop-color="#f9b776"/><stop offset="1" stop-color="#f47960"/></linearGradient><linearGradient id="w8o9ak" x1="289.17" x2="303.4" y1="259.34" y2="246.92" gradientUnits="userSpaceOnUse"><stop offset="0" stop-color="#da342d"/><stop offset="1" stop-color="#f3a84a"/></linearGradient><linearGradient id="w8o9al" x1="289.01" x2="280.78" y1="243.81" y2="263.6" gradientUnits="userSpaceOnUse"><stop offset="0" stop-color="#da342d"/><stop offset="1" stop-color="#f3a84a"/></linearGradient><linearGradient id="w8o9am" x1="296.72" x2="289.69" y1="229.91" y2="257.75" gradientUnits="userSpaceOnUse"><stop offset="0" stop-color="#da342d"/><stop offset="1" stop-color="#f3a84a"/></linearGradient><linearGradient id="w8o9an" x1="280.63" x2="277.46" y1="246.4" y2="258.98" gradientUnits="userSpaceOnUse"><stop offset="0" stop-color="#da342d"/><stop offset="1" stop-color="#f3a84a"/></linearGradient><linearGradient id="w8o9ao" x1="260.52" x2="238.67" y1="233.44" y2="237.3" gradientUnits="userSpaceOnUse"><stop offset="0" stop-color="#f9b776"/><stop offset="1" stop-color="#f47960"/></linearGradient><linearGradient id="w8o9ap" x1="258.1" x2="244.9" y1="228.07" y2="258.84" gradientUnits="userSpaceOnUse"><stop offset="0" stop-color="#f9b776"/><stop offset="1" stop-color="#f47960"/></linearGradient><linearGradient id="w8o9aq" x1="212.27" x2="213.82" y1="293.93" y2="301.96" gradientUnits="userSpaceOnUse"><stop offset="0" stop-color="#2b3582"/><stop offset="1" stop-color="#150e42"/></linearGradient><linearGradient id="w8o9ar" x1="212.4" x2="208.09" y1="275.72" y2="282.95" gradientUnits="userSpaceOnUse"><stop offset="0" stop-color="#2b3582"/><stop offset="1" stop-color="#150e42"/></linearGradient><linearGradient id="w8o9as" x1="222.56" x2="223.58" y1="294.23" y2="295.56" gradientUnits="userSpaceOnUse"><stop offset="0" stop-color="#f9b776"/><stop offset="1" stop-color="#f47960"/></linearGradient><linearGradient id="w8o9at" x1="212.67" x2="213.13" y1="281.33" y2="283.51" gradientUnits="userSpaceOnUse"><stop offset="0" stop-color="#f9b776"/><stop offset="1" stop-color="#f47960"/></linearGradient><linearGradient id="w8o9au" x1="243.47" x2="230.04" y1="256.9" y2="280.92" gradientUnits="userSpaceOnUse"><stop offset="0" stop-color="#2c50ff"/><stop offset="1" stop-color="#1a1b80"/></linearGradient><linearGradient id="w8o9av" x1="270.67" x2="249.35" y1="240.95" y2="268.1" gradientUnits="userSpaceOnUse"><stop offset="0" stop-color="#f9b776"/><stop offset="1" stop-color="#f47960"/></linearGradient><linearGradient id="w8o9aw" x1="263.59" x2="262.57" y1="244.82" y2="256.45" gradientUnits="userSpaceOnUse"><stop offset="0" stop-color="#f9b776"/><stop offset="1" stop-color="#f47960"/></linearGradient><linearGradient id="w8o9ax" x1="261.03" x2="268.55" y1="249.46" y2="244.81" gradientUnits="userSpaceOnUse"><stop offset="0" stop-color="#2b3582"/><stop offset="1" stop-color="#150e42"/></linearGradient><linearGradient id="w8o9ay" x1="259.59" x2="260.96" y1="254.41" y2="248.76" gradientUnits="userSpaceOnUse"><stop offset="0" stop-color="#f9b776"/><stop offset="1" stop-color="#f47960"/></linearGradient><linearGradient id="w8o9az" x1="271.2" x2="289.8" y1="269.57" y2="258.76" gradientUnits="userSpaceOnUse"><stop offset="0" stop-color="#f9b776"/><stop offset="1" stop-color="#f47960"/></linearGradient><linearGradient id="w8o9aA" x1="291.23" x2="284.44" y1="232.55" y2="256.9" gradientUnits="userSpaceOnUse"><stop offset="0" stop-color="#fdf53f"/><stop offset="1" stop-color="#d93c65"/></linearGradient></defs><g><g transform="rotate(180 208.5 204.5)"><g opacity=".6"><path fill="url(#w8o9a)" d="M346.843 370.231c77.575-9.396 68.864-67.576 68.864-120.236 0-44.428-.436-249.995-.436-249.995s-19.527 17.661-92.557 13.577c-73.03-4.083-132.164-5.84-148.89 93.96C157.097 207.334 68 178.604 61.734 254.87c-3.87 47.11 25.407 71.257 11.06 108.487C58.449 400.588 1 409 1 409h301.492c10.252-15.995 28.262-36.817 44.351-38.769z"/></g><g><path fill="url(#w8o9b)" d="M347.878 361.504c74.936-9.369 66.665-74.024 67.696-113.384.852-32.428 0-240.12 0-240.12s-20.568 18.895-91.09 14.824c-70.522-4.072-127.842-14.752-143.99 84.767-16.15 99.518-99.322 71.688-105.37 147.728-3.737 46.97 34.981 64.136 21.133 101.248C82.408 393.68 40 409 40 409h249.417c11.347-22.246 42.945-45.55 58.461-47.496z"/></g></g><g transform="matrix(-1 0 0 1 415 0)"><g opacity=".65"><path fill="url(#w8o9c)" d="M0 444.199V482s56.543-22.387 107.023-11.308c77.306 16.95 121.518-11.528 181.405-12.898 59.751-1.37 95.298-7.87 126.572-20.522v-2.426s-59.259 20.49-141.1 13.056c-60.92-5.538-95.819 7.405-141.055-3.08C85.583 433.86 69.721 416 69.721 416H0z"/></g><g opacity=".69"><path fill="url(#w8o9d)" d="M0 442.067V477s56.543-20.693 107.023-10.45c77.306 15.672 122.622-9.385 182.522-10.652 59.748-1.266 94.2-7.476 125.455-19.173v-2.85s-46.18 18.54-141.1 11.612c-60.975-4.433-92.97 2.603-137.682-9.136-23.954-6.288-33.38-20.351-33.38-20.351H0z"/></g></g><g transform="matrix(-1 0 0 1 418 0)"><g><g><g><path fill="#e9eff4" d="M416.05 416.548l-48.525.033-.075-113.798 48.528-.033.073 113.798"/></g><g><path fill="#e9eff4" d="M410.362 310.012l-30.994.02-.028-43.641 30.993-.021.029 43.642"/></g><g><path fill="#e9eff4" d="M406.747 267.922l-5.667.004-.02-31.702 5.668-.004.02 31.702"/></g></g><g><g><path fill="#e9eff4" d="M179.25 417.03l-.078-116.466-38.154.026-.008-12.39-52.426.035.009 12.39-22.573.014.077 116.465 113.152-.075"/></g><g><path fill="#e9eff4" d="M98.093 296.511l35.662-.023-.013-19.728-35.662.024.013 19.727"/></g></g><g><g><path fill="#e9eff4" d="M73.815 304.307l5.135-.003-.035-54.054-5.135.003.035 54.054"/></g><g><path fill="#e9eff4" d="M70.675 417.075l-35.613.024L35 322.006l35.613-.026.062 95.095"/></g><g><path fill="#e9eff4" d="M341.602 417.067l-.082-122.501-21.01-21.147-.022-33.027-23.282.016-.03-49.408-10.896.007.15 226.095 55.172-.035"/></g><g><path fill="#e9eff4" d="M316.567 313.11l25.759-.018-.005-6.17 17.075-.012.017 22.595 10.563-.007.055 87.042-64.111.043 10.647-103.472"/></g><g><path fill="#e9eff4" d="M298.68 417.082l-29.348.019-.122-182.942 28.29-.019 1.18 182.942"/></g><g><path fill="#e9eff4" d="M179.248 300.663l-21.19.014-.008-7.263 21.193-.014.005 7.263"/></g><g><path fill="#e9eff4" d="M206.135 417.083l-30.437.021-.068-105.493 30.434-.021.07 105.493"/></g><g><path fill="#e9eff4" d="M250.598 417.07l-45.39.028L205.1 250.8l45.388-.03.11 166.3"/></g><g><path fill="#e9eff4" d="M273.865 417.08l-30.41.019-.095-141.879 30.41-.02.095 141.88"/></g><g><path fill="#e9eff4" d="M240.261 252.319l-25.844.017-.007-9.34 25.844-.016.007 9.339"/></g><g><path fill="#e9eff4" d="M208.725 252.334l-2.56.002-.025-33.265 2.558-.001.027 33.264"/></g></g></g><g><g opacity=".5"><g opacity=".5"><path fill="url(#w8o9e)" d="M141.911 245.31c4.924-2.384 11.21 2.252 16.623.804 2.502-.675 4.755-2.629 7.305-2.09 1.848.402 2.988 1.982 4.731 2.625 3.008 1.114 6.599-.92 9.727-.064 1.398.402 2.49 1.294 3.747 1.934a10.645 10.645 0 0 0 8.085.514c.775-.273 1.538-.643 2.377-.687 1.639-.08 2.936 1.057 4.294 1.829 3.457 1.966 8.558 1.548 11.498-.945.49-.402.972-.904 1.654-1.037a3.57 3.57 0 0 1 1.812.27c2.164.723 4.357 1.51 6.682 1.607 2.326.097 4.86-.647 6.025-2.34 2.048 1.166 4.357 2.328 6.827 2.127 2.47-.2 4.747-2.496 3.614-4.342 2.153.917 5.065 0 6.161-1.793 1.097-1.793.402-4.2-1.478-5.491-1.88-1.29-4.642-1.472-6.827-.6-1.795-2.814-5.956-4.422-9.671-3.71-1.402-3.32-6.024-5.428-10.092-4.615-3.535-3.434-9-5.404-14.402-5.179-5.402.226-10.623 2.61-13.731 6.308 0 0-8.494-2.364-10.68 1.588-2.184 3.952-4.594-1.608-9.236 1.391-4.643 3-3.446 5.428-6.261 7.193-2.816 1.765-3.474 1.857-9.711 1.809-6.237-.048-9.374 1.87-9.374 1.87z"/></g></g><g opacity=".5"><g opacity=".5"><path fill="url(#w8o9f)" d="M111.425 269.66c4.125-2.385 9.389 2.25 13.927.803 2.098-.675 3.984-1.845 6.123-1.306 1.544.402 2.503 1.206 3.96 1.841 2.524 1.114 5.533-.92 8.157-.064 1.172.382 2.083 1.294 3.138 1.934a7.61 7.61 0 0 0 6.773.49c.654-.273 1.288-.643 2.006-.687 1.372-.08 2.46 1.053 3.611 1.825a7.816 7.816 0 0 0 9.63-.94c.401-.403.802-.905 1.384-1.042a2.632 2.632 0 0 1 1.52.27c1.814.727 3.652 1.515 5.618 1.607 1.966.093 4.073-.647 5.048-2.344 1.717 1.17 3.651 2.332 5.717 2.131 2.067-.2 3.98-2.496 3.018-4.342 1.805.917 4.245 0 5.164-1.793.919-1.793.32-4.2-1.24-5.491a5.464 5.464 0 0 0-5.718-.603 7.554 7.554 0 0 0-8.1-3.707c-1.176-3.321-5.04-5.428-8.463-4.616a14.945 14.945 0 0 0-12.065-5.178 14.951 14.951 0 0 0-11.496 6.348s-7.114-2.364-8.947 1.584c-1.834 3.948-3.848-1.608-7.728 1.395-3.88 3.004-2.103 2.292-4.462 4.053-2.36 1.76-3.21 1.306-8.426 1.258-5.216-.048-8.394 5.58-8.394 5.58z"/></g></g><g><path fill="url(#w8o9g)" d="M140.802 244.76h4.227s.073 15.79.632 25.787c.377 6.75 1.098 23.512 1.098 23.512l-8.238-.1s-.15-13.833.672-23.404c.843-9.784 1.61-25.795 1.61-25.795z"/></g><g><path fill="url(#w8o9h)" d="M145.678 249.95h-4.947s-.074 1.151-.161 2.595h5.156l-.048-2.595z"/></g><g><path fill="url(#w8o9i)" d="M146.131 257.21l-5.32.108a293.84 293.84 0 0 1-.241 3.87l5.671.692s-.093-3.266-.11-4.67z"/></g><g><path fill="url(#w8o9j)" d="M152.658 246.31h4.227s.073 15.786.632 25.78c.377 6.75 1.102 23.52 1.102 23.52l-8.238-.097s-.15-13.825.676-23.403c.84-9.797 1.601-25.8 1.601-25.8z"/></g><g><path fill="url(#w8o9k)" d="M156.987 252.54h-4.859c-.057.23-.135 1.34-.218 2.595l5.156-.025c-.035-1.266-.057-2.34-.079-2.57z"/></g><g><path fill="url(#w8o9l)" d="M156.927 259.81l-5.209.104c-.07 1.298-.227 2.995-.318 4.667l5.671.937c-.029-1.688-.128-4.41-.144-5.708z"/></g><g><g transform="matrix(-1 0 0 1 416 0)"><g><path fill="#10739b" d="M281.854 356.886a72.97 72.97 0 0 1-1.398 3.087c-18.087 37.836-62.793 54.926-101.497 38.19-39.746-17.187-58.117-63.53-41.032-103.511 5.089-11.907 12.745-21.908 22.041-29.628a78.504 78.504 0 0 1 27.95-14.89 77.836 77.836 0 0 1 16.102-2.959c12.194-.931 24.788 1.005 36.802 6.2 18.129 7.84 31.812 21.744 39.71 38.345 9.419 19.795 10.614 43.422 1.322 65.166"/></g><g><path fill="#a3c4d4" d="M206.642 286.807c-.893 1.644-3.94 1.285-6.341.93-2.078-.313-3.67-.623-2.962.365 1.526 2.13-3.847 6.143-10.633 7.046-6.786.906-12.283 10.389-19.521 7.527-7.239-2.86-10.342 3.074-7.904 10.143 2.435 7.07 8.048 5.266 6.475 9.101-1.572 3.835-.016 5.733 1.079 6.607 1.094.87 1.56 2.356 1.56 2.356.754-1.038 5.286-3.123 10.843 1.588 5.557 4.709 7.785 11.343 10.963 15.277 3.177 3.935 10.696 9.89 7.94 14.354-2.752 4.466-5.292 4.359-9.55 8.266-4.253 3.908-16.895 8.265-21.8 11.122-4.906 2.86-1.32 5.878-.216 6.479 1.1.598-5.606-.447-5.599-5.561.002-5.114.847-9.885 4.128-17.633 3.284-7.748-1.8-6.288-1.778-11.567.018-5.276-2.566-5.78-2.067-10.93.496-5.154 6.211-8.822 6.211-8.822s-.019-2.938-1.554-2.754c-1.535.183-3.738-6.854-3.738-6.854s-1.522-.873-3.523-6.401c-2.004-5.531-9.347-4.79-7.09-9.541 2.256-4.748-3.078-8.93-3.641-17.454-.56-8.523-3.738-8.453 4.146-18.397l7.566-7.319a78.809 78.809 0 0 1 16.763-10.635c.434.246.802.6 1.065 1.09 1.558 2.922 11.87 1.73 11.87 1.73s6.887 2.733 5.445 5.669c-1.443 2.938-11.865 2.362-15.275 4.92-3.406 2.557 2.366 6.445 5.21 7.619 2.845 1.174.192 4.04 2.984 2.557 2.793-1.485 2.61-8.938 7.236-9.71 4.63-.773 9.245 2.049 7.457 6.089-1.789 4.04 5.918 9.674 4.25 12.743"/></g><g><path fill="#a3c4d4" d="M198.546 254.526c3.455 3.2 10.607 9.955 8.173 13.347-2.432 3.394-7.952.868-7.112-2.836.837-3.704-.614-7.03-5.873-8.514-5.26-1.487-.503-3.298-3.77-5.244-.704-.42-1.476-.876-2.194-1.337a77.962 77.962 0 0 1 16.2-2.992c2.028.322 3.695.72 4.637 1.18 5.491 2.68-13.516 3.196-10.06 6.396"/></g><g><path fill="#a3c4d4" d="M281.821 356.562a72.642 72.642 0 0 1-1.404 3.082l-4.108-1.06-1.665-8.78-.973 4.56 1.054 6.64-9.694 3.756-1.291-14.075-3.307 13.149a1.951 1.951 0 0 0 1.475 2.379c1.6.35 2.083 2.393.808 3.421-3.156 2.542-8.877 6.947-17.798 13.116-14.9 10.306-19.753 3.955-15.506-3.871 4.247-7.824 11.305-17.206-1.127-18.82-12.43-1.612-8.445-16.938-3.736-24.713 4.09-6.757 6.103-6.713 13.192-6.666 1.07.006 2.254.013 3.58-.003 10.115-.127 15.323 9.37 23.48 15.444l-3.546-6.603s1.043-11.542-4.655-13.993c-2.134-.917-4.995-.848-7.698-.778-4.516.114-8.596.23-8.124-4.254.754-7.168 3.02-9.466 16.082-7.52 13.064 1.942 17.796-3.842 17.796-3.842s-10.528 3.205-12.583-2.836c-2.053-6.044 13.955-13.945 13.955-13.945l4.465 1.147c9.465 19.763 10.665 43.354 1.328 65.065"/></g><g><path fill="#a3c4d4" d="M257.354 331.868c1.649-4.512-3.838-6.995-6.327-6.231-2.49.76 5.763 7.781 6.327 6.231"/></g><g><path fill="#a3c4d4" d="M244.78 307.431c2.897 1.973 6.166-2.514 4.997-4.124-1.17-1.612-6.334 3.212-4.998 4.124"/></g><g><path fill="#a3c4d4" d="M249.925 285.123c.764 3.51-3.118 4.908-6.914 2.032-3.798-2.875-2.556-5.884 1.674-3.804 4.232 2.077 5.24 1.772 5.24 1.772"/></g><g><path fill="#a3c4d4" d="M202.196 292.945c-3.288-2.951 4.915-2.707 5.214.726.3 3.433-3.791.549-5.214-.726"/></g><g><path fill="#a3c1d2" d="M272.95 372.731v-.002a77.885 77.885 0 0 0 7.802-12.911c.13-.272.262-.544.388-.818a78.015 78.015 0 0 1-8.19 13.731"/></g><g><path fill="#a3c1d2" d="M230.36 401.844"/></g><g><path fill="#a3c1d2" d="M242.92 396.897c11.676-5.371 22.074-13.578 30.03-24.167v.002c-7.959 10.589-18.35 18.796-30.03 24.165"/></g><g><path fill="#92bcd0" d="M225.927 403.02l.072-.015-.072.015m-.08.018c.02-.002.04-.007.061-.012a.508.508 0 0 1-.06.012m-.08.019c.017-.003.033-.008.052-.01a.441.441 0 0 1-.052.01m-.079.018l.019-.004a.51.51 0 0 1-.019.004m.037-.008l-.018.004a.51.51 0 0 1 .018-.004zm-.116.026l.026-.006a.11.11 0 0 1-.026.006"/></g><g><path fill="#0b5d85" d="M209.827 404.597c-10.347 0-20.86-2.061-30.968-6.415-20.366-8.77-35.13-25.15-42.409-44.402a70.41 70.41 0 0 0 25.311 22.108c-.438 2.328-.595 4.456-.595 6.649-.007 4.267 4.688 5.692 5.57 5.692.172 0 .2-.053.021-.15-1.102-.6-4.683-3.607.216-6.457.975-.566 2.255-1.19 3.712-1.86a70.27 70.27 0 0 0 23.575 4.077c14.165 0 27.974-4.286 39.606-12.128-1.195 2.486-2.811 5.11-4.15 7.58-2.66 4.91-1.744 9.238 2.978 9.238 2.805-.003 6.951-1.53 12.49-5.368 8.898-6.168 14.605-10.573 17.753-13.114 1.271-1.028.79-3.07-.806-3.42a1.951 1.951 0 0 1-1.471-2.379l3.298-13.146 1.288 14.072 9.67-3.755-1.051-6.639.97-4.56 1.66 8.779 4.098 1.06a78.45 78.45 0 0 1-7.866 13.007c-7.916 10.617-18.263 18.846-29.88 24.232a78.591 78.591 0 0 1-12.647 4.595 79.047 79.047 0 0 1-4.336 1.04h-.002l-.072.014a.553.553 0 0 1-.079.016l-.028.007a.479.479 0 0 1-.05.01.269.269 0 0 1-.042.008l-.037.007-.054.012c-.011.002-.016.002-.025.005l-.07.013c-.004.003-.007.003-.011.003a1.193 1.193 0 0 1-.079.016l-.005.002a78.221 78.221 0 0 1-15.483 1.55"/></g><g><path fill="#729eb6" d="M167.001 388.113c-.86 0-5.438-1.459-5.431-5.827 0-2.245.154-4.423.58-6.806a68.331 68.331 0 0 0 8.702 3.965c-1.42.686-2.67 1.325-3.62 1.905-4.777 2.917-1.285 5.996-.21 6.609.174.1.147.154-.02.154"/></g><g><path fill="#a3c1d2" d="M282.28 355.552c.053-.125.124-.267.178-.392-.054.125-.125.267-.178.392"/></g><g><path fill="#b2cedb" d="M200.33 247.508c1.41-.41 2.87-.782 4.368-1.098v.692l-.513.035a79.63 79.63 0 0 0-3.855.371"/></g><g><path fill="#a3c1d2" d="M272.434 278.308a27.558 27.558 0 0 1-.014-.018l.014.018zm15.773 45.011a77.456 77.456 0 0 0 0-.002v.002m-.022-.675c-.47-12.817-4.104-25.293-10.452-36.314a78.61 78.61 0 0 1 2.726 5.166 78.491 78.491 0 0 1 7.726 31.148zm-15.735-44.315zm9.907 76.834c3.99-9.711 5.88-19.77 5.88-29.673.003 9.903-1.89 19.964-5.88 29.673"/></g><g><path fill="#a3c1d2" d="M238.006 251.9c-9.16-3.576-18.602-5.28-27.906-5.28-1.805 0-3.606.065-5.4.192v-.779c3.45-.789 7.106-1.273 10.88-1.273 2.266 0 4.57.174 6.905.562 5.034.837 9.919 3.15 14.374 6.14.383.143.764.29 1.147.438"/></g><g><path fill="#a3c1d2" d="M272.764 278.76c-.035-.063-.089-.118-.124-.18.035.06.089.12.124.18"/></g><g><path fill="#898bb3" d="M288.25 325.497v-.014c0-.727-.009-1.456-.03-2.18v-.003c.021.732.03 1.463.03 2.197"/></g><g><path fill="#729eb6" d="M190.77 264.53c-4.167-1.395-8.288-3.314-12.28-5.932 0 0 .87-.69 2.452-1.758 1.33.265 2.901.347 4.346.347 2.427 0 4.503-.233 4.503-.233s6.865 2.648 5.427 5.492c-.532 1.05-2.28 1.637-4.447 2.084"/></g><g><path fill="#729eb6" d="M206.393 267.822a77.81 77.81 0 0 1-6.475-.802 3.102 3.102 0 0 1-.37-2.354c.843-3.628-.617-6.886-5.91-8.34-5.23-1.439-.617-3.187-3.678-5.068a69.602 69.602 0 0 1 9.951-3.904 80.058 80.058 0 0 1 4.03-.404c2.04.315 3.718.706 4.665 1.155 5.527 2.626-13.601 3.13-10.124 6.265 3.477 3.135 10.674 9.75 8.224 13.074-.1.135-.206.261-.313.378"/></g><g><path fill="#729eb6" d="M232.624 388.118c-4.716 0-5.63-4.329-2.974-9.24 1.336-2.47 2.95-5.095 4.144-7.58 10.878-7.349 19.844-17.814 25.406-30.803.144-.332.28-.661.416-.993 1.668 1.615 3.395 3.21 5.28 4.619l-3.531-6.603s.118-1.31.058-3.138a50.573 50.573 0 0 0 1.346-23.018c8.658-.2 11.942-4.231 11.942-4.231s-2.78.85-5.754.85c-2.805 0-5.784-.755-6.778-3.686-2.045-6.044 13.899-13.945 13.899-13.945l4.447 1.147a79.113 79.113 0 0 1 7.715 34.012v.014a78.633 78.633 0 0 1-5.833 29.702v.002l-.023.05a.224.224 0 0 1-.016.043 82.666 82.666 0 0 1-1.529 3.5c-.127.276-.259.55-.39.824l-4.092-1.061-1.658-8.78-.969 4.56 1.05 6.64-9.655 3.756-1.286-14.074-3.293 13.148a1.952 1.952 0 0 0 1.469 2.38c1.593.35 2.074 2.392.804 3.42-3.142 2.542-8.84 6.947-17.726 13.116-5.53 3.84-9.669 5.367-12.47 5.369"/></g></g></g><g><g><path fill="url(#w8o9m)" d="M238.283 401.4c-8.055-4.605-18.328 4.342-27.186 1.527-4.096-1.3-7.782-5.075-11.95-4.03-3.02.754-4.886 3.82-7.734 5.063-4.927 2.147-10.8-1.778-15.918-.121-2.287.737-4.068 2.49-6.122 3.73a15.007 15.007 0 0 1-13.234.972c-1.271-.526-2.515-1.243-3.891-1.324-2.68-.158-4.814 2.025-7.024 3.523-5.656 3.792-13.992 2.986-18.802-1.818-.802-.81-1.605-1.746-2.708-2.025-.995-.231-2.006.145-2.968.518-3.519 1.438-7.129 2.957-10.916 3.151-3.787.195-7.95-1.247-9.848-4.516-3.354 2.256-7.129 4.492-11.164 4.103-4.036-.389-7.767-4.816-5.89-8.376-3.521 1.77-8.287.024-10.08-3.459-1.793-3.483-.626-8.1 2.407-10.592 3.033-2.49 7.598-2.835 11.16-1.162 2.936-5.44 9.744-8.506 15.817-7.157 2.295-6.404 9.837-10.466 16.512-8.91 5.98-6.714 14.618-10.377 23.551-9.989 8.826.433 17.354 5.083 22.44 12.244 0 0 13.889-4.556 17.463 3.062 3.574 7.619 7.514-3.114 15.083 2.69 7.57 5.804 5.617 10.47 10.242 13.872 4.625 3.402 5.684 3.585 15.885 3.492 10.202-.094 15.329 3.604 15.329 3.604z"/></g><g><path fill="#fff" d="M274.463 379.081c-.144 0-.263-.074-.272-.17-.006-.048.018-.097.066-.134a.34.34 0 0 1 .189-.063c2.125-.094 3.765-.181 3.782-.181a.354.354 0 0 1 .27.072c.063.056.072.131.023.193-.048.062-.145.1-.25.1 0 0-1.64.09-3.787.183z"/></g><g><path fill="url(#w8o9n)" d="M241.478 398.259l-5.928-1.549s-1.385.472-1.128 2.69c.256 2.218 6.108 1.654 6.108 1.654z"/></g><g><path fill="url(#w8o9o)" d="M292.29 375.333c11.169 2.5 19.338 8.097 22.57 8.767 3.232.67 13.998 2.322 16.145 4.224 2.147 1.902.804 3.731 3.574 6.178 3.217 8.376-5.97 11.146-5.97 11.146l-83.95 1.494s-5.653.658-5.882-3.404c-.23-4.063 1.093-6.146 1.298-9.817.205-3.67.205-3.848.965-5.77.76-1.923 8.64-2.327 10.119-4.479 1.48-2.152 3.216-5.565 9.697-6.865 8.937-1.833 24.958-2.907 31.434-1.474z"/></g><g><path fill="url(#w8o9p)" d="M238.75 403.19c.25 4.304 7.747 3.35 7.781 3.35.035 0 5.858-4.586-2.36-4.214-2.473 0-5.01-1.206-5.01-1.206z"/></g><g><path fill="url(#w8o9q)" d="M335.436 395.61s.113 1.226-2.094 2.544c-2.737 1.63-12.412.175-12.412.175l-.94 6.409 9.092.237c-.21.063 11.906-.98 6.354-9.365z"/></g><g><path fill="url(#w8o9r)" d="M254.625 396.728c4.719-.299 8.364 3.116 8.651 8.006.287 4.89-4.538 8.848-7.613 9.043-3.075.196-9.437-1.488-9.803-7.471-.365-5.984 4.298-9.295 8.765-9.578z"/></g><g><path fill="url(#w8o9s)" d="M314.781 399.092c2.53-3.628 7.414-3.755 11.075-1.12 3.66 2.637 3.335 7.92 1.682 10.29-1.654 2.37-6.86 5.783-11.337 2.563-4.477-3.22-3.805-8.304-1.42-11.733z"/></g><g><path fill="url(#w8o9t)" d="M253.226 400.58c2.495-.153 4.456 1.598 4.598 4.131.142 2.534-2.407 4.564-4.051 4.668-1.645.103-5.008-.768-5.202-3.857-.195-3.089 2.297-4.807 4.655-4.943z"/></g><g><path fill="url(#w8o9u)" d="M320.822 400.58c.9-.074 1.79.244 2.459.879a3.496 3.496 0 0 1 1.072 2.477c.122 2.053-1.844 3.695-3.092 3.79-1.248.094-3.834-.625-3.983-3.134-.149-2.508 1.739-3.892 3.544-4.011z"/></g><g><path fill="url(#w8o9v)" d="M252.398 389.002s-.332-2.162 1.862-4.876c2.194-2.715 3.47-4.5 5.197-4.996 1.726-.495 14.42-2.603 15.294-1.258.874 1.345 2.166 9.682 2.166 9.682z"/></g><g><path fill="url(#w8o9w)" d="M259.608 378.968c1.41-.25 12.107-1.79 14.885-1.503l.788 2.765-22.898 8.772a6.289 6.289 0 0 1 .955-3.543c1.868-2.985 4.8-6.265 6.27-6.49z"/></g><g><path fill="url(#w8o9x)" d="M278.556 378.833c.395 1.542 1.825 9.066 1.825 9.066l26.523-.81s-8.56-7.47-15.01-8.52c-6.45-1.052-13.579-.526-13.338.264z"/></g><g><path fill="url(#w8o9y)" d="M291.079 377.224c-5.432-.588-7.413-.395-13.069.221l.609 2.18s8.4-1.812 16.294-1.082c-.008-.012-2.062-1.137-3.835-1.319z"/></g><g><path fill="url(#w8o9z)" d="M267.962 399.373c4.67-.308 42.526-.733 42.759-.198.168.366-32.472.69-40.729.842-3.666.067-3.233-.564-2.03-.644z"/></g><g><path fill="url(#w8o9A)" d="M330.498 388.142s-4.543-1.337-5.534 2.273c-.958 3.444 9.206 4.097 9.206 4.097s-.876-5.046-3.672-6.37z"/></g></g><g><g><path fill="#e992ec" d="M175.41 278.882l-.662-.242c-.106-.039-.148-.13-.095-.206a.204.204 0 0 1 .125-.077.286.286 0 0 1 .164.012l.659.241c.105.038.147.129.095.204-.054.074-.18.104-.286.068z"/></g><g><path fill="#e992ec" d="M173.744 278.305l-.645-.505a.299.299 0 0 1-.102-.181.374.374 0 0 1 .025-.223c.064-.14.2-.187.307-.107l.642.506c.104.085.139.264.076.404-.061.139-.197.186-.303.106z"/></g><g><path fill="#e992ec" d="M171.542 276.646l-.62-.517a.308.308 0 0 1-.101-.256.29.29 0 0 1 .131-.235.2.2 0 0 1 .234.021l.62.526c.107.088.135.265.062.395-.073.13-.219.163-.326.075z"/></g><g><path fill="#e992ec" d="M169.325 275l-.59-.537a.292.292 0 0 1-.092-.257.273.273 0 0 1 .154-.216.23.23 0 0 1 .246.04l.59.541a.297.297 0 0 1 .042.388.233.233 0 0 1-.35.046z"/></g><g><path fill="#e992ec" d="M167.09 273.332l-.554-.563a.255.255 0 0 1 0-.363.266.266 0 0 1 .373 0l.55.57a.251.251 0 0 1 .08.259.266.266 0 0 1-.462.089z"/></g><g><path fill="#e992ec" d="M165.333 271.115l-.473-.62c-.069-.116-.016-.253.123-.319s.318-.039.416.062l.473.624a.198.198 0 0 1 .038.184.256.256 0 0 1-.142.15.386.386 0 0 1-.24.032.317.317 0 0 1-.195-.113z"/></g><g><path fill="#e992ec" d="M164.378 268.845l-.088-.655a.233.233 0 0 1 .458-.061l.085.655a.234.234 0 0 1-.2.258.225.225 0 0 1-.255-.197z"/></g><g><path fill="#e992ec" d="M164.338 265.948l.411-.61c.092-.109.282-.149.439-.093.157.056.23.19.169.309l-.421.606c-.047.086-.155.145-.28.153a.386.386 0 0 1-.315-.113.19.19 0 0 1-.003-.256z"/></g><g><path fill="#e992ec" d="M166.004 264.156l.544-.51c.113-.109.287-.1.389.02a.311.311 0 0 1-.019.418l-.551.505a.253.253 0 0 1-.266.06.281.281 0 0 1-.177-.22.298.298 0 0 1 .095-.273z"/></g><g><path fill="#e992ec" d="M168.229 262.407l.567-.42a.202.202 0 0 1 .262-.016c.083.06.133.177.13.301-.003.125-.058.237-.144.29l-.574.421a.199.199 0 0 1-.25-.006.363.363 0 0 1-.12-.288.355.355 0 0 1 .129-.282z"/></g><g><path fill="#e992ec" d="M170.93 260.783l.58-.445c.127-.096.291-.044.369.116.063.157.022.35-.094.444l-.584.444c-.122.086-.275.036-.348-.115-.065-.152-.032-.341.077-.444z"/></g><g><path fill="#e992ec" d="M172.522 259.865l.074-.078a2.441 2.441 0 0 0 .324-.437c.081-.134.277-.188.438-.121.161.067.226.23.146.363a3.407 3.407 0 0 1-.218.314l-.172.202-.082.085a.374.374 0 0 1-.46.041c-.14-.094-.163-.265-.05-.382z"/></g><g><path fill="#e992ec" d="M173.603 257.223l-.063-.921c0-.2.094-.368.22-.39.124-.022.239.109.267.304l.057.926c.009.205-.086.385-.215.407-.128.022-.245-.122-.263-.326z"/></g><g><path fill="#e992ec" d="M172.835 254.59l-.34-.837a.403.403 0 0 1 .023-.408.365.365 0 0 1 .36-.16c.138.021.254.124.297.264l.336.842a.4.4 0 0 1-.001.294.376.376 0 0 1-.2.207.357.357 0 0 1-.475-.202z"/></g><g><path fill="#e992ec" d="M171.218 252.955l-.363-.836c-.086-.2-.009-.44.173-.537a.33.33 0 0 1 .281-.02.374.374 0 0 1 .208.21l.358.84c.083.201.004.438-.177.533-.18.091-.394.006-.48-.19z"/></g><g><path fill="#e992ec" d="M170.592 249.659l-.302-.87a.413.413 0 0 1 .249-.515.401.401 0 0 1 .512.241l.296.87a.412.412 0 0 1-.257.483.4.4 0 0 1-.498-.21z"/></g><g><path fill="#e992ec" d="M170.308 247.91l-.038-.872c-.008-.22.098-.41.238-.427.068-.007.135.028.186.1a.514.514 0 0 1 .086.277l.034.877c-.004.207-.109.374-.24.386-.132.011-.247-.136-.266-.341z"/></g><g><path fill="#e992ec" d="M170.298 244.964l.304-.82a.385.385 0 0 1 .507-.236.42.42 0 0 1 .223.535l-.313.82a.393.393 0 0 1-.305.254.378.378 0 0 1-.36-.152.429.429 0 0 1-.056-.405z"/></g><g><path fill="#e992ec" d="M170.921 242.256l.444-.468a.318.318 0 0 1 .299-.09.31.31 0 0 1 .23.205.298.298 0 0 1-.068.297l-.448.468a.317.317 0 0 1-.546-.106.299.299 0 0 1 .09-.306z"/></g><g><path fill="#e992ec" d="M173.7 240.564l.694-.379a.507.507 0 0 1 .487-.116c.177.048.295.18.292.328-.004.148-.127.277-.307.32l-.698.379c-.186.09-.43.05-.555-.091-.124-.142-.086-.336.087-.441z"/></g><g><path fill="#e992ec" d="M175.276 239.332l.573-.37c.148-.045.301.041.372.209.07.167.04.373-.074.498l-.577.366c-.145.039-.294-.048-.363-.212a.485.485 0 0 1 .069-.491z"/></g><g><path fill="#e992ec" d="M178.103 237.644l.818-.313c.227-.068.474.033.566.232.092.199-.001.428-.214.526l-.823.304a.47.47 0 0 1-.525-.242c-.086-.185-.01-.4.178-.507z"/></g><g><path fill="#e992ec" d="M180.896 237.052l.772-.266a.434.434 0 0 1 .33.014.414.414 0 0 1 .22.24.399.399 0 0 1-.017.318.418.418 0 0 1-.246.21l-.776.263a.43.43 0 0 1-.545-.254.412.412 0 0 1 .262-.529z"/></g><g><path fill="#e992ec" d="M182.541 236.476l.773-.237a.435.435 0 0 1 .421.096.426.426 0 0 1-.169.724l-.768.233a.417.417 0 0 1-.534-.283.407.407 0 0 1 .277-.533z"/></g><g><path fill="#e992ec" d="M185.809 235.382l.732-.214a.396.396 0 0 1 .457.056c.127.115.176.3.124.468a.417.417 0 0 1-.363.298l-.732.21a.411.411 0 0 1-.503-.308.431.431 0 0 1 .04-.319.392.392 0 0 1 .245-.191z"/></g><g><path fill="#e992ec" d="M188.557 234.787l.766-.193a.42.42 0 0 1 .329.05c.098.062.17.162.197.278a.456.456 0 0 1-.316.55l-.77.19a.433.433 0 0 1-.522-.332.456.456 0 0 1 .316-.543z"/></g><g><path fill="#e992ec" d="M190.19 233.678l.747-.179a.416.416 0 0 1 .434.12c.112.122.15.3.1.462a.44.44 0 0 1-.342.308l-.746.174a.414.414 0 0 1-.41-.135.473.473 0 0 1-.094-.442.44.44 0 0 1 .316-.308z"/></g><g><path fill="#e992ec" d="M193.477 233.107l.754-.168a.444.444 0 0 1 .522.364.487.487 0 0 1-.061.351.439.439 0 0 1-.279.202l-.754.158a.44.44 0 0 1-.52-.361.466.466 0 0 1 .342-.55z"/></g><g><path fill="#e992ec" d="M195.657 233.093l.754-.154a.45.45 0 0 1 .524.377.474.474 0 0 1-.356.556l-.753.146a.446.446 0 0 1-.508-.377.47.47 0 0 1 .343-.548z"/></g><g><path fill="#e992ec" d="M198.373 232.538l.753-.14a.459.459 0 0 1 .53.389.48.48 0 0 1-.37.558l-.752.137a.46.46 0 0 1-.497-.395.48.48 0 0 1 .34-.549z"/></g><g><path fill="#e992ec" d="M201.13 231.976l.73-.13a.43.43 0 0 1 .337.088.491.491 0 0 1 .18.319.503.503 0 0 1-.082.36.44.44 0 0 1-.298.19l-.733.126a.422.422 0 0 1-.334-.09.484.484 0 0 1-.175-.317c-.036-.262.132-.506.376-.546z"/></g><g><path fill="#e992ec" d="M203.298 231.971l.719-.121a.428.428 0 0 1 .433.167.521.521 0 0 1 .07.494.453.453 0 0 1-.369.3l-.72.118c-.242.04-.469-.142-.506-.406-.037-.264.13-.511.373-.552z"/></g><g><path fill="#e992ec" d="M206.005 231.41l.738-.114c.253-.042.49.14.534.409.04.268-.132.52-.384.564l-.742.114a.477.477 0 0 1-.496-.428.497.497 0 0 1 .366-.557z"/></g><g><path fill="#e992ec" d="M208.762 230.863l.717-.108a.432.432 0 0 1 .342.095c.098.08.162.198.178.33.033.27-.143.52-.394.56l-.717.1a.442.442 0 0 1-.423-.187.524.524 0 0 1-.06-.488.464.464 0 0 1 .36-.302z"/></g><g><path fill="#e992ec" d="M211.462 230.854l.727-.1a.45.45 0 0 1 .35.098.523.523 0 0 1 .087.704.467.467 0 0 1-.317.192l-.727.096a.482.482 0 0 1-.488-.437.5.5 0 0 1 .368-.553z"/></g><g><path fill="#e992ec" d="M181.074 281.07l-.449-.412a.07.07 0 0 1-.015-.045.07.07 0 0 1 .015-.045c.015-.028.044-.037.067-.018l.44.42c.01.009.018.023.021.039a.076.076 0 0 1-.007.047c-.007.016-.02.027-.033.03-.014.003-.029-.003-.04-.015z"/></g><g><path fill="#e992ec" d="M178.882 278.872l-.426-.406a.077.077 0 0 1 0-.095.055.055 0 0 1 .043-.021c.016 0 .03.007.042.02l.423.41a.074.074 0 0 1 .007.093c-.02.028-.056.032-.08.008z"/></g><g><path fill="#e992ec" d="M176.703 277.784l-.423-.408a.08.08 0 0 1 0-.105.07.07 0 0 1 .1 0l.405.411a.073.073 0 0 1 0 .1.066.066 0 0 1-.082.002z"/></g><g><path fill="#e992ec" d="M175.025 275.553l-.375-.792a.228.228 0 0 1 .01-.207c.036-.052.09-.044.12.019l.37.802a.194.194 0 0 1 .024.1c0 .037-.009.074-.025.1-.017.028-.04.043-.065.039-.024-.004-.045-.026-.059-.06z"/></g><g><path fill="#e992ec" d="M173.336 273.902l-.328-.797a.187.187 0 0 1-.004-.151c.02-.048.058-.076.099-.074.04.003.077.036.094.085l.324.802a.182.182 0 0 1 .009.107.139.139 0 0 1-.051.084c-.051.035-.114.01-.143-.056z"/></g><g><path fill="#e992ec" d="M172.639 271.119l-.187-.809c-.016-.078.05-.153.15-.168.1-.013.194.04.213.118l.176.808c.01.037 0 .075-.028.106a.186.186 0 0 1-.116.058c-.097.013-.19-.037-.208-.113z"/></g><g><path fill="#e992ec" d="M172.459 268.287l.246-.776a.154.154 0 0 1 .074-.095.135.135 0 0 1 .114-.007c.077.028.12.119.094.203l-.254.78c-.028.08-.11.122-.184.093a.144.144 0 0 1-.085-.078.163.163 0 0 1-.005-.12z"/></g><g><path fill="#e992ec" d="M173.597 265.969l.68-.687a.201.201 0 0 1 .292 0 .21.21 0 0 1 0 .294l-.69.681a.201.201 0 0 1-.282 0 .21.21 0 0 1 0-.288z"/></g><g><path fill="#e992ec" d="M175.263 264.425l.717-.292c.09-.03.2-.008.251.05.052.06.028.135-.053.175l-.722.291c-.089.036-.204.017-.257-.043a.096.096 0 0 1-.024-.1c.013-.034.044-.063.088-.081z"/></g><g><path fill="#e992ec" d="M177.996 263.845l.705-.26a.243.243 0 0 1 .147-.007.18.18 0 0 1 .11.075.115.115 0 0 1 .01.113.168.168 0 0 1-.099.085l-.709.253c-.094.033-.206.003-.252-.067-.044-.072-.005-.157.088-.192z"/></g><g><path fill="#e992ec" d="M180.733 262.169l.684-.227a.248.248 0 0 1 .203.023c.058.036.087.094.076.151-.01.058-.058.107-.126.128l-.689.221a.236.236 0 0 1-.148 0 .174.174 0 0 1-.103-.084.126.126 0 0 1-.007-.124c.02-.04.06-.072.11-.088z"/></g><g><path fill="#e992ec" d="M182.36 261.078l.66-.21a.229.229 0 0 1 .222.001c.067.04.1.109.081.176-.018.067-.082.117-.163.128l-.663.203a.223.223 0 0 1-.148-.004.175.175 0 0 1-.1-.093c-.03-.081.018-.168.112-.2z"/></g><g><path fill="#e992ec" d="M185.65 259.946l.682-.202c.107-.02.216.03.253.115.038.085-.007.18-.105.222l-.685.196c-.111.033-.234-.015-.274-.107-.037-.091.02-.19.13-.224z"/></g><g><path fill="#e992ec" d="M187.283 259.94l.654-.19c.114-.033.238.015.28.109.038.094-.022.196-.135.23l-.654.188a.258.258 0 0 1-.166-.008.194.194 0 0 1-.11-.103c-.038-.092.02-.192.13-.225z"/></g><g><path fill="#e992ec" d="M190.006 258.3l.636-.189c.118-.034.25.014.292.109.044.095-.017.2-.135.234l-.64.184c-.116.03-.242-.017-.285-.109-.043-.092.017-.194.132-.228z"/></g><g><path fill="#e992ec" d="M192.72 257.424l.621-.387c.122-.075.26.014.31.198.05.185-.01.396-.13.47l-.626.377c-.119.067-.25-.022-.298-.2-.047-.178.007-.38.122-.458z"/></g><g><path fill="#e992ec" d="M194.88 256.36l.597-.408a.188.188 0 0 1 .195-.026.29.29 0 0 1 .147.176.457.457 0 0 1 .018.266.332.332 0 0 1-.127.203l-.598.398c-.12.082-.266.016-.326-.148-.06-.164-.012-.364.108-.447z"/></g><g><path fill="#e992ec" d="M197.062 255.356l.544-.472a.236.236 0 0 1 .194-.061c.07.01.132.053.175.118a.34.34 0 0 1-.05.428l-.546.464a.235.235 0 0 1-.271.061.3.3 0 0 1-.167-.255.32.32 0 0 1 .125-.287z"/></g><g><path fill="#e992ec" d="M198.61 253.179c.134-.244.227-.507.275-.78a.388.388 0 0 1 .448-.314c.212.035.355.231.32.439a3.07 3.07 0 0 1-.28.843l-.074.144a.388.388 0 0 1-.515.172.372.372 0 0 1-.174-.504z"/></g><g><path fill="#e992ec" d="M198.498 250.872l-.413-.546a.232.232 0 0 1-.018-.275.351.351 0 0 1 .284-.15.37.37 0 0 1 .304.124l.412.552a.229.229 0 0 1 .043.206.281.281 0 0 1-.15.169.396.396 0 0 1-.25.036.337.337 0 0 1-.208-.12z"/></g><g><path fill="#e992ec" d="M197.57 249.287l-.516-.46a.337.337 0 0 1-.11-.305.318.318 0 0 1 .19-.252c.1-.04.214-.018.295.058l.517.476c.104.117.11.3.015.425a.277.277 0 0 1-.387.062z"/></g><g><path fill="#e992ec" d="M195.19 248.09l-.075-.133c-.045-.08-.107-.189-.16-.307a3.425 3.425 0 0 1-.179-.5c-.06-.22.05-.455.244-.523.197-.065.402.06.464.283.031.122.073.24.124.354.036.081.076.16.12.235l.066.114a.457.457 0 0 1-.107.566c-.162.126-.383.084-.501-.095z"/></g><g><path fill="#e992ec" d="M195.505 244.848l.127-.07a4.72 4.72 0 0 1 .291-.149c.21-.097.428-.179.428-.179.214-.08.464.005.557.19.093.183-.006.397-.22.477 0 0-.192.07-.37.152-.118.051-.232.11-.34.175a.471.471 0 0 1-.587-.074c-.136-.158-.097-.38.086-.499z"/></g><g><path fill="#e992ec" d="M197.776 244.11l.756-.176a.353.353 0 0 1 .455.07.52.52 0 0 1 .091.527c-.069.18-.228.29-.396.272l-.76.167c-.201.033-.391-.12-.438-.352-.027-.231.099-.45.292-.508z"/></g><g><path fill="#e992ec" d="M201.12 243.428l.805-.095c.148-.018.292.06.38.207a.596.596 0 0 1 .04.502c-.06.165-.19.277-.337.295l-.805.085c-.148.016-.292-.064-.377-.212a.596.596 0 0 1-.037-.502c.062-.163.192-.274.34-.29z"/></g><g><path fill="#e992ec" d="M203.332 243.377l.786-.046c.23-.013.424.213.434.505.01.292-.168.539-.397.551l-.807.036a.357.357 0 0 1-.301-.139.587.587 0 0 1-.127-.374.596.596 0 0 1 .115-.38.365.365 0 0 1 .297-.153z"/></g><g><path fill="#e992ec" d="M206.048 243.33h.832c.229.027.403.264.403.547 0 .283-.174.52-.403.547h-.832c-.226-.027-.398-.261-.398-.542 0-.28.172-.515.398-.542z"/></g><g><path fill="#e992ec" d="M208.749 243.34h.809c.245 0 .445.243.445.542 0 .3-.2.542-.445.542l-.79-.024c-.225-.027-.398-.258-.398-.535s.173-.509.399-.535z"/></g><g><path fill="#e992ec" d="M210.967 243.33l.779.033c.157.006.3.113.374.28.075.167.07.369-.013.53-.083.161-.231.257-.388.251l-.76-.042c-.24-.012-.428-.257-.419-.547.01-.29.213-.516.454-.505z"/></g><g><path fill="#e992ec" d="M213.712 243.33l.731.041c.165-.005.318.102.396.275a.617.617 0 0 1-.023.55c-.093.163-.255.25-.418.224l-.73-.054c-.239-.016-.42-.261-.407-.547.013-.286.217-.504.455-.488z"/></g><g><path fill="#e992ec" d="M215.917 243.33l.752.052c.242.036.418.277.403.552-.016.275-.217.49-.46.49l-.772-.06c-.24-.036-.415-.277-.399-.55.016-.274.218-.485.46-.484z"/></g><g><path fill="#e992ec" d="M219.21 243.882l.714.058c.249.025.434.273.418.558a.544.544 0 0 1-.158.354.414.414 0 0 1-.33.12l-.732-.067c-.247-.023-.43-.27-.41-.553.02-.283.236-.493.483-.47z"/></g><g><path fill="#e992ec" d="M221.944 243.882l.645.065c.18 0 .344.111.424.285a.547.547 0 0 1-.046.537.46.46 0 0 1-.465.197l-.644-.069c-.26-.026-.45-.275-.426-.556.025-.28.256-.485.516-.459z"/></g></g><g><g><path fill="#e992ec" d="M204.048 290.064l-.699.347a.466.466 0 0 1-.448.053c-.148-.061-.24-.192-.23-.331.008-.14.115-.262.27-.309l.69-.347a.466.466 0 0 1 .449-.053c.148.061.239.192.23.331-.009.14-.115.262-.27.309z"/></g><g><path fill="#e992ec" d="M202.007 290.564l-.75.37a.511.511 0 0 1-.501.083c-.172-.062-.278-.207-.265-.363.013-.155.141-.287.321-.33l.746-.368c.195-.049.404.018.509.163.105.144.078.33-.064.45z"/></g><g><path fill="#e992ec" d="M199.624 292.85l-.678.34a.456.456 0 0 1-.42.048c-.14-.054-.228-.17-.226-.297.002-.127.094-.242.235-.292l.674-.361a.467.467 0 0 1 .472-.104c.167.055.272.194.258.343-.014.149-.143.273-.32.305z"/></g><g><path fill="#e992ec" d="M198.125 293.88l-.74.42a.555.555 0 0 1-.449.053c-.151-.047-.256-.153-.273-.277-.018-.124.055-.245.19-.316l.735-.42a.56.56 0 0 1 .44-.044c.147.047.25.15.27.27.02.12-.046.24-.173.313z"/></g><g><path fill="#e992ec" d="M195.415 296.034l-.707.451a.588.588 0 0 1-.457.091c-.164-.032-.289-.126-.322-.244-.034-.117.03-.238.164-.312l.702-.455a.6.6 0 0 1 .644.017c.171.13.16.332-.024.452z"/></g><g><path fill="#e992ec" d="M193.847 297.324l-.432.734c-.068.14-.188.213-.309.19-.12-.023-.22-.14-.26-.3a.58.58 0 0 1 .078-.459l.429-.734c.112-.192.315-.22.453-.063.137.157.158.44.045.632z"/></g><g><path fill="#e992ec" d="M191.69 299.993l-.39.812c-.097.207-.313.279-.482.16-.17-.119-.228-.383-.131-.59l.39-.811c.101-.198.312-.262.477-.147.166.115.227.37.14.576z"/></g><g><path fill="#e992ec" d="M190.618 301.552l-.286.844a.416.416 0 0 1-.498.274.402.402 0 0 1-.263-.515l.263-.854a.416.416 0 0 1 .526-.26.41.41 0 0 1 .262.52z"/></g><g><path fill="#e992ec" d="M190.094 304.8l-.043.855a.483.483 0 0 1-.087.265c-.05.067-.116.1-.183.091-.066-.007-.128-.054-.171-.132a.53.53 0 0 1-.06-.28l.04-.857c0-.147.053-.281.138-.349.084-.067.186-.055.263.03.078.086.117.231.103.376z"/></g><g><path fill="#e992ec" d="M190.464 306.886l.096.447c0 .053 0 .107.035.156V307.605c0 .08.036.134.036.134a.361.361 0 0 1-.122.374.48.48 0 0 1-.426.094.415.415 0 0 1-.305-.28l-.035-.134c0-.045-.03-.094-.045-.152-.015-.058 0-.103-.036-.157l-.095-.424a.365.365 0 0 1 .125-.395.487.487 0 0 1 .453-.081c.156.05.268.173.29.32z"/></g><g><path fill="#e992ec" d="M190.762 308.968l.387.848a.494.494 0 0 1 .03.323.418.418 0 0 1-.171.253c-.175.11-.392.033-.488-.172l-.39-.843c-.074-.203-.005-.439.159-.544.163-.106.368-.048.473.135z"/></g><g><path fill="#e992ec" d="M192.804 312.2l.478.512a.295.295 0 0 1 0 .427.316.316 0 0 1-.438-.018l-.48-.512a.294.294 0 0 1 .017-.426.316.316 0 0 1 .423.017z"/></g><g><path fill="#e992ec" d="M194.369 313.271l.53.453c.08.07.124.184.113.301a.329.329 0 0 1-.168.266.25.25 0 0 1-.28-.037l-.527-.452a.33.33 0 0 1-.114-.213.36.36 0 0 1 .054-.243c.09-.147.266-.18.392-.075z"/></g><g><path fill="#e992ec" d="M196.697 314.36l.844.385c.19.095.264.309.166.484s-.333.248-.53.165l-.844-.386a.373.373 0 0 1-.203-.209.328.328 0 0 1 .024-.277.393.393 0 0 1 .234-.184.442.442 0 0 1 .309.022z"/></g><g><path fill="#e992ec" d="M198.816 315.451l.887.307a.411.411 0 0 1 .217.503.389.389 0 0 1-.465.265l-.887-.302a.411.411 0 0 1-.248-.515.389.389 0 0 1 .496-.258z"/></g><g><path fill="#e992ec" d="M200.938 316.543l.908.1c.192.03.313.144.279.261-.035.118-.213.2-.41.19l-.909-.097c-.134-.014-.246-.07-.293-.148-.047-.077-.022-.164.066-.227a.541.541 0 0 1 .36-.079z"/></g><g><path fill="#e992ec" d="M203.585 316.54l.924.033c.203.009.36.131.351.275-.004.07-.048.134-.121.18a.466.466 0 0 1-.267.066l-.9-.03c-.132-.005-.251-.059-.311-.142-.06-.084-.054-.183.018-.262a.43.43 0 0 1 .33-.12z"/></g><g><path fill="#e992ec" d="M206.279 316.577l.93-.037a.482.482 0 0 1 .268.066c.074.046.118.11.122.178.008.069-.024.136-.09.188a.446.446 0 0 1-.258.086l-.93.036c-.193-.005-.35-.111-.36-.245-.011-.134.126-.252.318-.272z"/></g><g><path fill="#e992ec" d="M209.027 316.626l.893-.084c.197-.018.379.071.407.198.013.061-.011.123-.069.172a.424.424 0 0 1-.236.09l-.893.087a.485.485 0 0 1-.356-.08c-.087-.068-.107-.161-.054-.242.054-.08.173-.135.308-.14z"/></g><g><path fill="#e992ec" d="M211.161 316.67l.912-.125a.546.546 0 0 1 .351.065c.089.058.12.138.08.212-.04.074-.143.13-.272.147l-.917.122c-.195.02-.382-.054-.426-.167-.043-.114.072-.228.262-.26z"/></g><g><path fill="#e992ec" d="M213.876 315.184l.91-.289a.338.338 0 0 1 .354.101.444.444 0 0 1 .1.394.392.392 0 0 1-.255.294l-.91.289c-.195.061-.396-.065-.451-.283-.055-.218.058-.445.252-.506z"/></g><g><path fill="#e992ec" d="M217.057 314.664l.61-.327c.127-.062.263.05.305.253.04.204-.028.423-.154.491l-.607.327c-.128.068-.266-.043-.308-.248-.043-.205.026-.427.154-.496z"/></g><g><path fill="#e992ec" d="M219.25 313.576l.61-.349c.123-.06.255.042.299.233.044.19-.015.402-.134.48l-.61.349c-.082.054-.176.033-.245-.056a.513.513 0 0 1-.086-.366c.017-.137.08-.25.166-.291z"/></g><g><path fill="#e992ec" d="M221.968 313.046l.617-.368c.123-.06.255.036.302.22.047.185-.008.393-.126.475l-.617.369a.166.166 0 0 1-.187-.005.347.347 0 0 1-.129-.208.543.543 0 0 1 .002-.287.317.317 0 0 1 .138-.196z"/></g><g><path fill="#e992ec" d="M223.607 312.525l.602-.374c.08-.063.175-.053.248.028.072.08.109.217.093.351-.015.135-.08.245-.165.283l-.598.38c-.121.073-.259-.015-.31-.198a.534.534 0 0 1 .001-.276.324.324 0 0 1 .13-.194z"/></g><g><path fill="#e992ec" d="M226.884 310.863l.618-.394a.166.166 0 0 1 .181-.004.316.316 0 0 1 .13.189c.054.18-.002.391-.123.47l-.613.394c-.122.08-.263-.003-.316-.184a.515.515 0 0 1-.005-.274.326.326 0 0 1 .128-.197z"/></g><g><path fill="#e992ec" d="M229.07 309.772l.614-.4a.163.163 0 0 1 .18-.009c.059.034.105.1.13.186a.5.5 0 0 1 .004.265.32.32 0 0 1-.125.192l-.611.406c-.078.057-.17.046-.242-.028a.434.434 0 0 1-.098-.328c.01-.127.067-.236.148-.284z"/></g><g><path fill="#e992ec" d="M230.713 309.221l.613-.41c.116-.078.253-.003.307.167.053.17.002.372-.114.45l-.61.416c-.076.063-.171.058-.244-.013a.42.42 0 0 1-.103-.327c.01-.129.068-.238.151-.283z"/></g><g><path fill="#e992ec" d="M233.984 307.578l.625-.427c.118-.077.256-.004.311.164.028.082.031.176.01.262a.315.315 0 0 1-.123.191l-.622.427c-.117.081-.257.009-.312-.162-.056-.17-.006-.374.111-.455z"/></g><g><path fill="#e992ec" d="M235.62 306.479l.622-.426c.075-.061.166-.057.238.011a.402.402 0 0 1 .103.313c-.009.124-.064.23-.143.276l-.62.431a.165.165 0 0 1-.175.016.285.285 0 0 1-.132-.17c-.055-.167-.008-.368.106-.451z"/></g><g><path fill="#e992ec" d="M238.351 305.37l.632-.438c.115-.078.252-.009.309.157.054.166.005.364-.108.443l-.632.444c-.115.079-.252.009-.309-.157a.474.474 0 0 1-.01-.257.32.32 0 0 1 .118-.191z"/></g><g><path fill="#e992ec" d="M240.54 304.828l.636-.445c.114-.08.25-.01.305.155.055.165.007.363-.107.442l-.635.446c-.115.079-.252.009-.307-.157a.469.469 0 0 1-.009-.253.316.316 0 0 1 .117-.188z"/></g><g><path fill="#e992ec" d="M242.728 303.17l.645-.447a.16.16 0 0 1 .17-.014.28.28 0 0 1 .128.168.47.47 0 0 1 .01.253.318.318 0 0 1-.115.189l-.641.446c-.113.08-.248.01-.302-.154-.055-.164-.008-.362.105-.441z"/></g><g><path fill="#e992ec" d="M245.461 302.053l.662-.456c.11-.054.23.022.28.177.048.155.01.339-.09.427l-.657.455c-.114.079-.25.008-.303-.159a.472.472 0 0 1-.01-.256.313.313 0 0 1 .118-.188z"/></g><g><path fill="#e992ec" d="M247.648 301.258l.656-.222a.286.286 0 0 1 .168-.006c.054.015.099.046.123.085.049.083 0 .18-.11.218l-.653.225a.286.286 0 0 1-.168.006.205.205 0 0 1-.123-.085.127.127 0 0 1-.008-.127.195.195 0 0 1 .115-.094z"/></g><g><path fill="#e992ec" d="M250.398 300.145l.645-.222c.108-.035.233.002.282.083.023.04.025.084.004.124a.19.19 0 0 1-.112.09l-.645.221a.27.27 0 0 1-.227-.005c-.068-.034-.104-.096-.093-.158.011-.062.068-.114.146-.133z"/></g><g><path fill="#e992ec" d="M252.573 298.483l.68-.226c.107-.024.22.017.263.096.044.078.004.169-.092.212l-.677.226c-.111.035-.238-.003-.288-.087a.13.13 0 0 1-.004-.129.197.197 0 0 1 .118-.092z"/></g><g><path fill="#e992ec" d="M254.8 297.363l.657-.216c.102-.024.21.017.251.095.04.078 0 .168-.095.207l-.657.213a.248.248 0 0 1-.23.007c-.072-.035-.109-.102-.092-.168.016-.065.082-.116.165-.127z"/></g><g><path fill="#e992ec" d="M256.905 296.82l.715-.218c.11-.034.235.009.279.096.043.089-.011.188-.122.224l-.715.221c-.097.008-.19-.036-.226-.108-.037-.073-.008-.155.07-.203z"/></g><g><path fill="#e992ec" d="M260.235 296.262l.685-.21a.237.237 0 0 1 .156.003c.049.02.087.054.106.097.037.089-.016.187-.12.22l-.689.212c-.106.032-.223-.015-.261-.104a.146.146 0 0 1 .008-.13.194.194 0 0 1 .115-.088z"/></g><g><path fill="#e992ec" d="M262.414 294.584l.698-.204a.22.22 0 0 1 .152.008.18.18 0 0 1 .1.1c.034.091-.021.19-.125.22l-.693.208c-.106.028-.218-.02-.256-.112-.034-.09.02-.189.124-.22z"/></g><g><path fill="#e992ec" d="M264.61 294.024l.704-.196a.208.208 0 0 1 .148.013.18.18 0 0 1 .093.107.162.162 0 0 1-.014.134.19.19 0 0 1-.114.086l-.704.2c-.104.026-.212-.027-.245-.121a.165.165 0 0 1 .015-.137.193.193 0 0 1 .117-.086z"/></g><g><path fill="#e992ec" d="M267.354 293.461l.708-.185a.193.193 0 0 1 .234.13.173.173 0 0 1-.016.14.184.184 0 0 1-.116.086l-.708.186a.2.2 0 0 1-.189-.049.184.184 0 0 1-.05-.182.192.192 0 0 1 .137-.133z"/></g><g><path fill="#e992ec" d="M270.085 292.887l.717-.172a.189.189 0 0 1 .227.142.191.191 0 0 1-.14.229l-.717.172a.183.183 0 0 1-.143-.022.187.187 0 0 1-.084-.12.191.191 0 0 1 .14-.229z"/></g><g><path fill="#e992ec" d="M272.28 292.314l.72-.15a.184.184 0 0 1 .179.067c.044.055.057.131.034.199a.194.194 0 0 1-.146.13l-.715.15a.184.184 0 0 1-.213-.15.2.2 0 0 1 .017-.158.18.18 0 0 1 .125-.088z"/></g><g><path fill="#e992ec" d="M275.564 291.739l.729-.136a.164.164 0 0 1 .136.037.231.231 0 0 1 .04.293.176.176 0 0 1-.12.082l-.728.136a.164.164 0 0 1-.136-.037.231.231 0 0 1-.04-.293.176.176 0 0 1 .12-.082z"/></g><g><path fill="#e992ec" d="M277.204 290.602l.742-.11c.063-.01.125.023.162.087a.27.27 0 0 1 .021.22c-.024.073-.078.124-.141.133l-.741.11a.152.152 0 0 1-.13-.047.24.24 0 0 1-.065-.149.257.257 0 0 1 .035-.163.167.167 0 0 1 .117-.081z"/></g><g><path fill="#e992ec" d="M279.958 290.564l.732-.073c.094-.01.176.087.183.218.007.13-.063.245-.156.255l-.755.079c-.045.006-.09-.015-.125-.056a.275.275 0 0 1-.056-.165.298.298 0 0 1 .046-.185c.034-.05.082-.076.131-.073z"/></g><g><path fill="#e992ec" d="M283.221 290.51l.77.027c.095 0 .173.11.173.244s-.078.244-.174.244h-.769c-.087-.019-.151-.124-.151-.247s.064-.228.151-.246z"/></g><g><path fill="#e992ec" d="M285.445 290.49l.745.083c.044.004.085.033.113.08a.306.306 0 0 1 .04.171.282.282 0 0 1-.056.162c-.033.041-.076.062-.12.057l-.764-.082c-.09-.009-.159-.122-.153-.252.007-.13.085-.227.176-.218z"/></g><g><path fill="#e992ec" d="M288.177 291.602l.764.135c.09.015.153.12.141.235-.014.115-.098.195-.189.18l-.76-.13c-.09-.018-.153-.124-.142-.24.013-.115.095-.195.186-.18z"/></g><g><path fill="#e992ec" d="M290.903 291.6l.777.18c.044.01.082.04.107.083a.21.21 0 0 1 .023.144.186.186 0 0 1-.071.117.147.147 0 0 1-.124.025l-.777-.18c-.082-.028-.132-.122-.115-.217s.095-.16.18-.151z"/></g><g><path fill="#e992ec" d="M293.118 292.716l.77.223a.17.17 0 0 1 .11.207.163.163 0 0 1-.2.112l-.77-.223a.167.167 0 0 1-.11-.207.163.163 0 0 1 .2-.112z"/></g><g><path fill="#e992ec" d="M295.866 293.278l.766.267c.081.03.121.113.092.187-.033.074-.127.11-.21.083l-.766-.263a.155.155 0 0 1-.093-.075.128.128 0 0 1-.004-.113c.035-.074.13-.112.215-.086z"/></g><g><path fill="#e992ec" d="M298.625 293.834l.76.304c.08.031.112.107.07.168-.04.062-.139.086-.22.054l-.764-.296c-.082-.033-.115-.11-.072-.174.042-.063.143-.088.226-.056z"/></g><g><path fill="#e992ec" d="M300.275 296.053l.762.338c.08.035.1.105.048.157-.057.049-.163.06-.242.027l-.762-.335c-.067-.037-.08-.102-.031-.15.05-.048.146-.064.225-.037z"/></g><g><path fill="#e992ec" d="M301.963 297.19l.732.722a.203.203 0 0 1 .01.274.173.173 0 0 1-.255.01l-.738-.722a.207.207 0 0 1 0-.274.171.171 0 0 1 .25-.01z"/></g><g><path fill="#e992ec" d="M304.572 298.875l.345.773a.269.269 0 0 1 .012.168c-.014.055-.045.094-.08.101-.036.007-.071-.018-.093-.067l-.344-.768a.248.248 0 0 1-.021-.125.198.198 0 0 1 .041-.111c.02-.028.047-.04.074-.035.026.006.05.029.066.064z"/></g><g><path fill="#e992ec" d="M305.727 301.11l.298.803a.182.182 0 0 1 .004.115.142.142 0 0 1-.063.084.098.098 0 0 1-.094.008.133.133 0 0 1-.068-.08l-.302-.803c-.03-.077-.003-.168.059-.205.063-.032.136.002.166.078z"/></g><g><path fill="#e992ec" d="M306.38 303.905l.192.83c.016.075-.047.147-.142.16a.207.207 0 0 1-.13-.02.136.136 0 0 1-.073-.088l-.191-.83a.116.116 0 0 1 .027-.107.184.184 0 0 1 .115-.058c.095-.013.186.037.202.113z"/></g><g><path fill="#e992ec" d="M306.523 306.158l-.104.839c-.012.073-.093.126-.186.12a.18.18 0 0 1-.114-.048.111.111 0 0 1-.034-.098l.098-.84a.129.129 0 0 1 .062-.09.202.202 0 0 1 .124-.03c.045.003.087.02.116.048a.116.116 0 0 1 .038.099z"/></g><g><path fill="#e992ec" d="M306.033 308.992l-.3.81a.132.132 0 0 1-.067.075.119.119 0 0 1-.097.002.14.14 0 0 1-.071-.172l.29-.829a.13.13 0 0 1 .098-.096c.047-.01.095.01.124.05.03.04.035.095.015.141z"/></g><g><path fill="#e992ec" d="M305.476 311.216l-.35.806c-.015.052-.05.086-.088.086-.04 0-.074-.032-.09-.084a.194.194 0 0 1 .018-.154l.333-.806c.03-.064.088-.083.134-.044.048.037.068.124.043.196z"/></g><g><path fill="#e992ec" d="M303.824 313.467l-.38.808c-.034.058-.086.058-.119 0a.216.216 0 0 1-.025-.105c0-.04.01-.079.025-.106l.378-.809c.016-.029.037-.045.06-.045.022 0 .043.016.058.045a.246.246 0 0 1 .003.212z"/></g><g><path fill="#e992ec" d="M302.186 315.567l-.401.395a.072.072 0 0 1-.103 0 .085.085 0 0 1 0-.114l.398-.395a.072.072 0 0 1 .106 0 .088.088 0 0 1 0 .114z"/></g><g><path fill="#e992ec" d="M299.979 317.242l-.833.386c-.062.027-.147.019-.191-.02-.02-.018-.03-.041-.023-.063.006-.022.026-.042.055-.055l.833-.39c.061-.02.138-.01.178.027.04.036.032.085-.019.115z"/></g><g><path fill="#e992ec" d="M297.76 318.934l-.84.37c-.058.022-.128.007-.164-.033a.07.07 0 0 1-.012-.068.099.099 0 0 1 .057-.054l.835-.371a.16.16 0 0 1 .132-.007c.042.016.067.05.066.085-.002.035-.03.067-.073.081z"/></g><g><path fill="#e992ec" d="M295.578 320.616l-.868.35c-.057.021-.122-.002-.147-.052a.082.082 0 0 1-.007-.075.097.097 0 0 1 .06-.054l.865-.355a.125.125 0 0 1 .087-.004.108.108 0 0 1 .064.052c.028.051.004.113-.054.138z"/></g><g><path fill="#e992ec" d="M293.381 321.189l-.88.329a.1.1 0 0 1-.082-.006.11.11 0 0 1-.053-.065.113.113 0 0 1 .062-.142l.881-.329a.109.109 0 0 1 .139.071c.01.028.007.06-.005.086a.107.107 0 0 1-.062.056z"/></g><g><path fill="#e992ec" d="M291.198 321.79l-.892.26a.087.087 0 0 1-.076-.01.111.111 0 0 1-.045-.072.119.119 0 0 1 .008-.09.093.093 0 0 1 .065-.049l.887-.266a.091.091 0 0 1 .08.013c.024.017.04.044.046.076.012.06-.02.122-.073.138z"/></g></g><g><g><path fill="url(#w8o9B)" d="M218.55 392.572c4.415-6.891 11.387-18.848 13.402-23.482 1.93-4.443-.707-5.849 4.146-13.44 5.262-8.228 65.913-103.007 68.634-107.277 2.722-4.27 7.895-9 13.245-5.534s3.838 10.006.851 14.671c-2.986 4.666-63.248 100.298-67.952 107.65-6.205 9.695-6.851 5.312-10.363 9.125-3.568 3.874-11.399 15.41-15.762 22.217z"/></g><g><path fill="#fff" d="M313.599 250.198c-2.031-1.343-2.718 1.323-5.576 5.856l-6.763 10.76 6.314-3.134c2.834-4.492 1.433-2.258 1.935-3.05 4.154-6.596 6.125-9.097 4.09-10.432z"/></g><g><path fill="url(#w8o9C)" d="M301.433 266.909A770833.633 770833.633 0 0 0 219.1 393.618l2.848 1.79c16.01-24.515 69.31-106.193 85.849-131.57 0 0 .65-4.309-3.011-1.609-.431.35-3.353 4.68-3.353 4.68z"/></g><g><path fill="url(#w8o9D)" d="M217.485 392.13c-6.308 9.756-6.81 10.548-9.32 14.434a3.793 3.793 0 0 0 1.182 5.205 3.85 3.85 0 0 0 5.261-1.078c2.532-3.89 3.07-4.698 9.416-14.459z"/></g><g><path fill="#fff" d="M245.763 362.58a.218.218 0 0 1-.084-.02l-6.22-3.486a.173.173 0 1 1 .17-.302l6.222 3.486a.17.17 0 0 1-.088.322z"/></g><g><path fill="#fff" d="M263.839 335.22a.202.202 0 0 1-.084-.02l-6.228-3.489a.172.172 0 0 1 0-.298.175.175 0 0 1 .173 0l6.223 3.485a.171.171 0 0 1 .068.235.177.177 0 0 1-.152.088z"/></g><g><path fill="#fff" d="M251.788 354.37a.238.238 0 0 1-.089-.02l-6.22-3.484a.178.178 0 0 1-.068-.239.177.177 0 0 1 .24-.064l6.22 3.485a.17.17 0 0 1-.083.322z"/></g><g><path fill="#fff" d="M268.221 327.56a.173.173 0 0 1-.088-.023l-6.223-3.484a.171.171 0 0 1-.068-.235.177.177 0 0 1 .237-.067l6.227 3.483a.174.174 0 0 1 .064.239.169.169 0 0 1-.149.088z"/></g><g><path fill="#fff" d="M257.818 343.43a.17.17 0 0 1-.084-.023l-6.227-3.485a.171.171 0 0 1 .041-.316.174.174 0 0 1 .132.017l6.226 3.485a.171.171 0 0 1 .064.235.177.177 0 0 1-.152.088z"/></g><g><path fill="#fff" d="M273.698 320.99a.202.202 0 0 1-.084-.02l-6.243-3.494a.175.175 0 0 1-.048-.227.178.178 0 0 1 .221-.076l6.239 3.494a.172.172 0 0 1 .068.236.177.177 0 0 1-.153.088z"/></g><g><path fill="#fff" d="M290.673 294.18a.217.217 0 0 1-.084-.02l-6.222-3.489a.171.171 0 0 1 .041-.315.173.173 0 0 1 .132.017l6.221 3.485a.17.17 0 0 1-.088.322z"/></g><g><path fill="#fff" d="M279.173 312.78a.218.218 0 0 1-.084-.02l-6.223-3.486a.178.178 0 0 1-.064-.239.177.177 0 0 1 .237-.063l6.222 3.486a.17.17 0 0 1-.088.322z"/></g><g><path fill="#fff" d="M295.609 286.52a.157.157 0 0 1-.084-.023l-6.228-3.484a.171.171 0 0 1-.064-.235.177.177 0 0 1 .237-.067l6.223 3.487a.171.171 0 0 1 .068.235.177.177 0 0 1-.152.088z"/></g><g><path fill="#fff" d="M285.74 301.84a.185.185 0 0 1-.089-.023l-6.214-3.486a.172.172 0 0 1 0-.298.174.174 0 0 1 .172 0l6.223 3.485a.17.17 0 0 1-.085.322z"/></g><g><path fill="#fff" d="M305.467 271.74a.238.238 0 0 1-.088-.02l-6.221-3.485a.174.174 0 0 1 .172-.302l6.222 3.485a.17.17 0 0 1-.085.322z"/></g><g><path fill="#fff" d="M310.948 263.53a.154.154 0 0 1-.084-.02l-6.243-3.494a.175.175 0 0 1-.048-.227.178.178 0 0 1 .221-.076l6.239 3.494a.172.172 0 0 1 .068.236.177.177 0 0 1-.153.087z"/></g><g><path fill="#fff" d="M299.993 279.95a.17.17 0 0 1-.084-.023l-6.222-3.487a.17.17 0 0 1 .041-.314.174.174 0 0 1 .132.017l6.221 3.474a.17.17 0 0 1-.088.322z"/></g><g><path fill="#fff" d="M316.81 246.56a.4.4 0 0 1-.117 0c-1.532-.499-1.77-.461-2.208-.397-.267.045-.536.07-.806.076-.193.002-.352-.14-.359-.321-.002-.18.15-.329.343-.333.236-.007.472-.03.705-.068.58-.087.926-.106 2.55.423.183.06.28.248.218.42a.36.36 0 0 1-.326.2z"/></g><g><path fill="#fff" d="M235.88 360.935a.34.34 0 0 1-.093 0 .35.35 0 0 1-.245-.431c.803-2.912 3.702-6.76 3.826-6.922 2.614-4.082 19.853-30.973 35.924-56.04l29.026-45.284c.952-1.484 2.967-4.195 5.745-5.647a.348.348 0 0 1 .513.33.351.351 0 0 1-.196.295c-2.633 1.356-4.56 3.953-5.476 5.381l-29.01 45.3-35.94 56.065c-.044.06-2.962 3.924-3.725 6.703a.341.341 0 0 1-.35.25z"/></g></g><g><g><path fill="url(#w8o9E)" d="M186.489 319.24l1.752 5.27s.486 4.024-1.752 6.418c0 0-2.189 1.9-3.639.324l.935-6.838s2.297.03 2.473-.56c0 0-1.341-3.141.23-4.614z"/></g><g><path fill="url(#w8o9F)" d="M186.65 331.243l.572-1.563s5.068 5.482 12.15 4.892c.47 1.999.76 4.04.867 6.097-4.782-.49-9.658-3.009-13.589-9.426z"/></g><g><path fill="url(#w8o9G)" d="M226.471 416.421c-2.964.143-5.832.05-7.751-.05 1.746-1.294 5.764-4.11 9.13-5.229l2.31-.142s.78 1.257 1.061 4.072c-.382.512-1.504 1.19-4.75 1.35z"/></g><g><path fill="url(#w8o9H)" d="M218.445 416.402h.025c1.951.077 4.868.148 7.883.038 3.301-.12 4.443-.646 4.831-1.04l.037.323c.05.48-.403.9-1.01.94-2.455.146-8.591.482-11.55.359-.207.03-.41-.071-.466-.232-.056-.161.052-.33.25-.388z"/></g><g><path fill="url(#w8o9I)" d="M247.542 415.173c.198-1.361.517-3.322.763-3.824.366-.785 1.7 0 1.7 0 .542.28 1.007.704 1.35 1.231.272.49 1.023 1.883 1.53 2.832a.654.654 0 0 1 .08.337l-5.273.196a1.203 1.203 0 0 1-.15-.772z"/></g><g><path fill="url(#w8o9J)" d="M252.965 415.95c-.008.255-.272.46-.6.467l-3.875.082c-.39.01-.756-.144-.96-.402z"/></g><g><path fill="url(#w8o9K)" d="M246.98 406.816c.051.172.79 3.963 1.107 5.629.089.46.48.781.92.757.238 0 .519-.034.811-.076.523-.071.92-.534.941-1.094.051-1.455.075-4.253-.427-5.338-.684-1.494-3.352.122-3.352.122z"/></g><g><path fill="url(#w8o9L)" d="M230.681 408.277c-.324 0 .126 1.599-.36 3.182a.846.846 0 0 1-.78.646c-.251 0-.547 0-.851-.027a.924.924 0 0 1-.864-.81l-.406-4.108z"/></g><g><path fill="url(#w8o9M)" d="M221.44 362.517c.14.704 5.148 30.518 5.455 45.936a.521.521 0 0 0 .443.512c1.019.158 2.055.158 3.074 0a.364.364 0 0 0 .296-.342c.175-2.872 1.595-27.177-.14-38.615 0 0 14.24 30.58 16.398 39.014.052.205.24.343.446.33.98-.038 1.95-.213 2.883-.521a.772.772 0 0 0 .475-.903c-1.196-5.05-9.654-39.816-15.393-47.478z"/></g><g><path fill="#fff" d="M230.549 369.238a.137.137 0 0 0 .12-.082.135.135 0 0 0-.023-.144l-1.369-1.383a.132.132 0 0 0-.188 0 .135.135 0 0 0 0 .19l1.365 1.383c.026.023.06.036.095.036z"/></g><g><path fill="url(#w8o9N)" d="M221.753 315.94s1.155 6.256 1.313 8.221c0 0-5.707 2.007-7.066.648l.183-7.567z"/></g><g><path fill="url(#w8o9O)" d="M216.402 309.35s-1.798 3.924-1.919 5.983c-.12 2.06-.587 3.393 1.919 3.82 2.505.429 4.616-.763 5.758-2.823 0 0 1.794-3.16 1.391-4.455-.402-1.295-7.15-2.525-7.15-2.525z"/></g><g><path fill="url(#w8o9P)" d="M221.233 315.298h-.325s1.33-2.686.16-3.158c-1.17-.473-5.806-1.422-6.808-3.037-1.002-1.615-.107-3.578 1.183-4.14a.17.17 0 0 1 .217.078l.107.198a.173.173 0 0 0 .32-.033.174.174 0 0 1 .312-.044c.308.484 1.138 1.272 3.364 1.672 3.153.573 5.24 1.829 5.293 3.977a.17.17 0 0 0 .092.146.175.175 0 0 0 .174-.008c.235-.138.608-.202 1.105.21.867.714.513 2.576-1.388 4.102a.173.173 0 0 0 0 .275c.345.222.858.747-.472 1.446-1.33.698-2.164.638-2.464.561a.166.166 0 0 1-.131-.178l.119-1.902a.172.172 0 0 0-.049-.128.178.178 0 0 0-.128-.053z"/></g><g><path fill="url(#w8o9Q)" d="M220.89 315.301s.496-2.732 1.35-1.965c.853.766-.445 3.06-1.13 3.16z"/></g><g><path fill="url(#w8o9R)" d="M210.024 351.215c-.253-.643-.72-2.76-1.29-3.095-3.015-1.793-8.413-4.15-8.413-4.15-.206.51-.006 1.109.453 1.349l2.574 1.464c-.049.91-.226 1.353-.06 2.328a2.986 2.986 0 0 0 1.09 1.83c.56.44 1.307 1.005 1.963 1.411 1.236.755 3.622.515 3.683-1.137z"/></g><g><path fill="url(#w8o9S)" d="M232.073 323.93c-.068-.068-.06-.128-.131-.176-1.246-.83-3.698-.986-6.03-.805-1.293-.072-2.714-1.509-2.714-1.509l-3.86 2.402c-.797.157-1.593.318-2.297.475a8.527 8.527 0 0 1-.358-1.493l-1.533 1.843c-.772.523-1.405.402-1.823.5a1.428 1.428 0 0 0-.823.663.105.105 0 0 0-.02.036.102.102 0 0 0 0 .028 17.326 17.326 0 0 1-6.571 6.463 14.952 14.952 0 0 1-6.213 1.975 31.74 31.74 0 0 1 .88 5.903c4.54.447 8.986-.829 12.457-2.33l3.303 9.456a54.8 54.8 0 0 1-8.035.688l1.003 4.024a48.713 48.713 0 0 0 9.086 1.175l3.092 8.853 13.93-2.065s.044-4.8-.103-10.916a14.772 14.772 0 0 0 1.592-1.38c8.939-8.99-4.832-23.81-4.832-23.81z"/></g><g><path fill="#50c7fe" d="M221.137 354.406c-.707 0-1.43 0-2.174-.057a.253.253 0 0 1-.178-.085.26.26 0 0 1-.064-.189.268.268 0 0 1 .27-.25c6.84.343 12.277-.924 16.168-3.767a.26.26 0 0 1 .407.257.263.263 0 0 1-.105.17c-3.557 2.598-8.374 3.92-14.324 3.92z"/></g><g><path fill="#50c7fe" d="M217.348 347.26a.264.264 0 0 1-.256-.233.276.276 0 0 1 .216-.307c4.002-.634 7.338-1.658 9.651-2.956 1.574-.874 2.562-1.899 2.983-3.039.511-1.401.075-3.06-.453-4.054a.278.278 0 0 1 .1-.367.25.25 0 0 1 .349.105c.582 1.095 1.054 2.936.48 4.511-.464 1.265-1.546 2.384-3.219 3.317-2.396 1.347-5.7 2.359-9.816 3.014z"/></g><g><path fill="#fff" d="M214.17 310.78c1.333.368 2.686.97 2.654 1.308-.068.535-.382 1.48-.827 1.809a.48.48 0 0 1-.438.1 4.45 4.45 0 0 1-1.963-1.101c-.229-.246.173-1.353.574-2.112zm1.976 3.35c.566-.418.875-1.533.936-2.007.1-.769-2.23-1.453-2.949-1.647l-.096-.026-.048.092c-.18.351-1.024 2.046-.583 2.547a4.651 4.651 0 0 0 2.093 1.18c.06.018.122.027.185.027a.759.759 0 0 0 .462-.167z"/></g><g><path fill="#fff" d="M220.08 314.28c-.067.541-.38 1.487-.82 1.817a.487.487 0 0 1-.44.097 4.388 4.388 0 0 1-1.957-1.1c-.229-.25.172-1.354.572-2.115 1.329.37 2.69.967 2.646 1.302zm-1.126 2.216a.757.757 0 0 0 .458-.163c.566-.417.875-1.534.94-2.008.1-.77-2.233-1.46-2.951-1.649l-.097-.026-.048.092c-.176.352-1.024 2.049-.578 2.55a4.61 4.61 0 0 0 2.088 1.182.692.692 0 0 0 .188.022z"/></g><g><path fill="#50c7fe" d="M222.178 328.585a.768.768 0 0 1-.585-.257c-1.373-1.483-3.8-2.592-3.826-2.604a.25.25 0 0 1-.11-.334.276.276 0 0 1 .343-.127c.103.047 2.552 1.183 3.996 2.726a.238.238 0 0 0 .22.083c.95-.091 3.058-3.026 4.15-4.853a.268.268 0 0 1 .163-.12.282.282 0 0 1 .206.026.255.255 0 0 1 .126.153.242.242 0 0 1-.027.194c-.303.509-3.033 4.963-4.564 5.109z"/></g><g><path fill="#50c7fe" d="M215.147 327.487a.568.568 0 0 1-.488-.297 3.299 3.299 0 0 1 .087-2.88.287.287 0 0 1 .388-.075.27.27 0 0 1 .078.38 2.889 2.889 0 0 0-.216 1.9c.065.296.156.417.182.417.207-.042.717-.597 1.166-1.09.422-.48.873-.936 1.351-1.365a.286.286 0 0 1 .398 0 .263.263 0 0 1 0 .38c-.458.417-.89.86-1.296 1.323-.635.693-1.093 1.194-1.533 1.253z"/></g><g><path fill="#50c7fe" d="M223.067 333.137c.51-.4 3.66-.946 4.051-.716.14.218.29 1.825.29 4.837-.065.25-1.16 1.065-2.193 1.706-1.066-.574-2.164-1.366-2.164-1.694 0-.206.016-.598.037-1.057.087-1.024.08-2.053-.02-3.076zm2.316 6.364c.963-.587 2.572-1.653 2.572-2.212 0-2.109-.065-4.701-.38-5.153-.453-.654-3.92.107-4.659.503-.412.194-.42.44-.36.59.111.302.038 2.038 0 2.97-.036.464-.036.864-.036 1.082.008.817 1.977 1.907 2.58 2.22l.136.072z"/></g></g><g><g><path fill="url(#w8o9T)" d="M183.97 320.09c.482 0 .894.355.977.84l15.413 92.831a1.01 1.01 0 0 1-.814 1.164.992.992 0 0 1-1.139-.832l-15.413-92.827a1.005 1.005 0 0 1 .79-1.16 1.16 1.16 0 0 1 .187-.016z"/></g><g><path fill="url(#w8o9U)" d="M131.3 415.492a.899.899 0 0 1-.204-.02 1.018 1.018 0 0 1-.659-.423 1 1 0 0 1-.158-.762l21.87-91.735a1.023 1.023 0 0 1 1.208-.791c.553.111.91.647.798 1.195l-21.854 91.727c-.096.472-.515.811-1 .81z"/></g><g><path fill="url(#w8o9V)" d="M163.902 415.492a.86.86 0 0 1-.203-.02 1.004 1.004 0 0 1-.81-1.185l18.627-91.735a1.014 1.014 0 0 1 1.988.404l-18.626 91.731c-.095.465-.502.8-.976.805z"/></g><g><path fill="url(#w8o9W)" d="M137.873 378.085c-.026.445.124.883.416 1.215.293.332.704.532 1.143.555l33.864-.219c.44-.03.851-.236 1.141-.574.29-.339.434-.781.401-1.228-.24-9.02 11.883-56.571 11.95-58.341.068-1.77-27.141-.812-33.852-.536a1.672 1.672 0 0 0-1.498 1.737z"/></g><g><path fill="#fff" d="M152.772 320.17c0-.04.024-.068.048-.068 12.285-.477 19.449-.275 24.646-.13 1.815.049 3.386.093 4.773.093.4-.02.787.137 1.063.429.56.618.472 1.722.472 1.722-5.089 20.769-8.123 37.32-10.198 49.41-.216.719-.36 1.435-.488 2.065-.387 1.909-.667 3.291-2.502 3.291-2.555 0-31.05.405-31.338.405h-.028v-.025zm-13.484 57.47c.288 0 28.787-.405 31.334-.405 2.047 0 2.358-1.544 2.758-3.5.132-.655.268-1.334.484-2.058 2.079-12.095 5.113-28.644 10.202-49.417.004-.052.104-1.233-.536-1.944a1.614 1.614 0 0 0-1.255-.513c-1.383 0-2.95-.045-4.765-.093-5.221-.146-12.37-.348-24.666.129a.306.306 0 0 0-.292.299l-13.592 57.186a.334.334 0 0 0 .088.23.286.286 0 0 0 .224.101z"/></g><g><path fill="#fff" d="M169.86 370.932c.27.955-.183 1.974-1.043 2.346l-24.031-.266c-.414.135-.86.076-1.232-.161a1.662 1.662 0 0 1-.723-1.087c-.256-.952.2-1.958 1.054-2.324l24.032.265c.409-.13.85-.072 1.218.16.368.233.63.62.724 1.067z"/></g><g><path fill="#fff" d="M152.67 329.408a.134.134 0 0 1-.13-.126.126.126 0 0 1 .127-.13c12.15-.466 19.216-.269 24.378-.126 1.795.047 3.344.09 4.72.09a.127.127 0 0 1 .126.13c0 .07-.057.127-.126.127-1.38 0-2.93-.044-4.743-.091-5.139-.142-12.221-.34-24.363.126z"/></g><g><path fill="#fff" d="M150.478 335.988a.13.13 0 0 1 0-.257c12.156-.463 19.227-.269 24.391-.127 1.795.052 3.35.095 4.722.095a.126.126 0 0 1 .13.127.13.13 0 0 1-.13.13c-1.376 0-2.93-.043-4.746-.094-5.14-.143-12.223-.337-24.371.126z"/></g><g><path fill="#fff" d="M150.503 366.15h-.02a.126.126 0 0 1-.11-.15c.84-5.64 4.03-21.321 8.973-44.156a.138.138 0 0 1 .159-.102.13.13 0 0 1 .101.158c-4.944 22.832-8.124 38.505-8.973 44.156a.134.134 0 0 1-.13.093z"/></g><g><path fill="#fff" d="M157.005 366.142a.134.134 0 0 1-.114-.15l.102-.671c.922-6.215 2.644-17.782 7.246-39.112a.134.134 0 0 1 .26.053c-4.602 21.326-6.32 32.889-7.246 39.1l-.102.67a.13.13 0 0 1-.146.11z"/></g><g><path fill="#fff" d="M149.388 342.568a.13.13 0 0 1 0-.257c12.156-.463 19.23-.27 24.391-.123 1.8.048 3.35.091 4.722.091a.13.13 0 0 1 .13.13.127.127 0 0 1-.13.128c-1.376 0-2.93-.044-4.746-.092-5.14-.146-12.223-.34-24.371.123z"/></g><g><path fill="#fff" d="M148.308 348.598a.13.13 0 0 1 0-.256c12.158-.466 19.23-.269 24.394-.126 1.796.05 3.35.094 4.723.094.07 0 .126.057.126.126a.126.126 0 0 1-.126.13c-1.377 0-2.931-.043-4.746-.094-5.142-.142-12.23-.34-24.379.126z"/></g><g><path fill="#fff" d="M146.15 355.178a.13.13 0 0 1-.13-.122.13.13 0 0 1 .127-.134c12.15-.466 19.216-.269 24.374-.127 1.799.052 3.348.091 4.724.091a.127.127 0 0 1 .126.13c0 .07-.057.127-.126.127-1.38 0-2.93-.04-4.743-.091-5.139-.142-12.221-.34-24.363.126z"/></g><g><path fill="#fff" d="M145.607 361.208a.127.127 0 0 1-.127-.122.127.127 0 0 1 .123-.135c12.16-.463 19.232-.269 24.397-.127 1.796.052 3.35.095 4.723.095a.13.13 0 0 1 0 .258c-1.376 0-2.93-.044-4.746-.091-5.162-.147-12.23-.34-24.378.122z"/></g><g><path fill="url(#w8o9X)" d="M154.124 365.6a.6.6 0 0 1-.145-.02l-2.263-.64a.558.558 0 0 1-.224-.132l-1.16-1.156-1.66 1.008a.535.535 0 0 1-.234.076l-2.924.22a.522.522 0 0 1-.53-.747.522.522 0 0 1 .45-.289l2.808-.212 1.922-1.156a.527.527 0 0 1 .642.076l1.352 1.348 1.974.556 3.298-1.148a1.915 1.915 0 0 1 1.549-.14c.433.205.735.614.802 1.088.197.26 1.721-.04 3.262-.728l1.87-2 .036-.036c.345-.3 1.472-1.24 2.299-1.336.38-.44 1.18-2.72 1.721-4.68a.517.517 0 0 1 .501-.4h1.561c.96-2.432 6.925-17.803 8.19-26.931a.522.522 0 0 1 1.034.14c-1.384 10-8.317 27.331-8.385 27.503a.522.522 0 0 1-.486.328h-1.516c-1.429 5.06-2.143 5.048-2.488 5.056-.289 0-1.135.56-1.721 1.068l-1.922 2.064a.562.562 0 0 1-.164.12c-.506.228-3.094 1.356-4.23.8a1.064 1.064 0 0 1-.585-.752c-.028-.132-.084-.3-.193-.352a.953.953 0 0 0-.654.124l-.084.04-3.495 1.2a.527.527 0 0 1-.208.04z"/></g></g><g><g><path fill="url(#w8o9Y)" d="M110.408 332.08s21.276-9.594 3.728-14.41c0 0 .211-6.415.227-7.53-.446 0-1.884.802-2.026 2.626a5.095 5.095 0 0 1-1.017 2.743s-.507-1.82-1.512-1.684l.701 3.131s.863 2.15 2.05 2.15c.524.112 11.822 3.38-1.876 6.772 0 0-.87.252-.936.657-.21 1.227-.445 3.83.66 5.546z"/></g><g><path fill="url(#w8o9Z)" d="M100.371 315.63s-2.347 1.153-2.78 2.477c-.347 1.063-2.945 1.197-3.2 3.287A2.387 2.387 0 0 1 92.4 323.5c-2.65.407-6.74 1.8-7.394 6.444-.5 3.544 1.293 4.889 3.172 5.357a2.68 2.68 0 0 1 2.02 3.1c-.266 1.348.134 2.908 2.453 4.143 5.192 2.762 10.38-6.546 10.38-6.546l1.063-16.258z"/></g><g><path fill="url(#w8o9aa)" d="M100.252 412.126l-.312 2.757c-.06.523-.444.935-.931.996-1.14.149-2.292.168-3.436.056a.909.909 0 0 1-.65-.445 1.042 1.042 0 0 1-.1-.82c.315-1.065.893-2.66 1.723-3.6h2.85a.855.855 0 0 1 .646.324.99.99 0 0 1 .21.732z"/></g><g><path fill="url(#w8o9ab)" d="M123.1 380.39l1.684 1.928s-1.728 17.549-2.034 24.572a5.504 5.504 0 0 0 .805 3.123l3.002 4.894-7.655-4.518-.153-.933 1.253-1.726s-1.426-14.195-1.64-19.662c-.213-5.467 1.153-7.718 1.153-7.718z"/></g><g><path fill="url(#w8o9ac)" d="M127.545 415.46h-2.362c-.445.001-.866-.207-1.137-.563-.74-.971-2.28-2.867-3.015-2.915-.988-.067-.862 3.478-.862 3.478h-.555l-.701-4.405a2.611 2.611 0 0 1 1.358-2.725s.224 1.685 1.452 2.431 4.991 3.415 4.991 3.415c.323-.039.649-.03.969.027a.634.634 0 0 1 .506.693.631.631 0 0 1-.644.564z"/></g><g><path fill="url(#w8o9ad)" d="M113.957 381.062s-10 19.04-11.588 23.386a42.279 42.279 0 0 0-2.17 8.32c-.03.535-.695 1.05-2.526 1.05-.947 0-1.409-.38-1.636-.747a1.07 1.07 0 0 1-.043-1.039c.58-1.175 2.415-4.93 3.096-6.637.796-2.033 2.554-11.247 3.514-14.452.959-3.204 2.037-6.68 6.208-9.881-.008 0 2.853-2.817 5.145 0z"/></g><g><path fill="url(#w8o9ae)" d="M103.129 349.18c2.587-11.052-3.969-17.306-3.969-17.306 4.136-4.025 11.67-5.824 11.67-5.824s7.187 5.3 6.337 9.446c-.499 2.414-5.05 14.56-5.05 14.56s-4.213 2-8.988-.877z"/></g><g><path fill="url(#w8o9af)" d="M112.5 355.241c-1.086-3.187-.658-4.723-.658-4.723-4.04 1.676-9.269-.878-9.269-.878s-7.103 3.171-3.467 11.467c2.956 6.74 9.298 20.24 9.298 20.24 6.646 1.31 17.055 1.202 17.055 1.202-4.204-14.743-11.871-24.124-12.958-27.308z"/></g><g><path fill="url(#w8o9ag)" d="M102.45 323.159l1.095 5.493c-.208.872.583.73 1.457.566 1.436-.277 3.289-.838 3.909-1.961.06-.116.099-.243.112-.373l-2.343-2.468a1.259 1.259 0 0 0-.72-1.3l-1.816-.808a1.242 1.242 0 0 0-1.04.034 1.256 1.256 0 0 0-.654.817z"/></g><g><path fill="url(#w8o9ah)" d="M104.222 314.597s2.58.68 4.697 3.84c2.118 3.16 1.09 4.865-.438 5.268-1.53.402-4.18.06-6.945-1.81-2.766-1.87-.652-8.073 2.686-7.298z"/></g><g><path fill="url(#w8o9ai)" d="M103.18 320.611s-2.601-4.935 2.127-5.591l1.225.617s1.352-3.088-1.682-4.097c-3.034-1.008-6.223.538-6.942 4.41-.718 3.87-.588 6.393 1.67 7.908 2.258 1.514 2.818-.598 2.818-.598s-1.323-1.526-.992-2.475c.33-.949 1.502.629 1.502.629z"/></g><g><path fill="url(#w8o9aj)" d="M92.948 319.613s-12.007 15.517 5.285 11.821c3.43 2.128 3.11 4.769 3.11 4.769s-29.367 3.684-10.844-16.126c.298-.324.258-.8.294-1.244.085-.924.848-2.672.9-3.6.069-1.153 1.787-3.68 2.885-3.425.746.172.46 1.448.339 2.2l-1.4 3.18c-.142.877.105.66.996.597 0 0 .553-.184.61-.044.165.44-2.175 1.872-2.175 1.872z"/></g></g><g><g><path fill="url(#w8o9ak)" d="M290.67 255.21s2.62-.087 2.725 2c.104 2.087-2.482 2.934-2.482 2.934z"/></g><g><path fill="url(#w8o9al)" d="M284.666 260.58s-2.629 2.606-2.843 3.222c-.335.987.42 3.85-.792 3.75-1.212-.101-1.107.257-1.677.273-.57.016.742-4.526.696-5.637a6.426 6.426 0 0 0-.445-2.038z"/></g><g><path fill="url(#w8o9am)" d="M289.807 251.993c-1.793-.547-2.407 2.174-2.407 2.174l.3 7.88c2.2 4.177 4.326.781 4.571-2.585.245-3.367-.67-6.927-2.464-7.47z"/></g><g><path fill="url(#w8o9an)" d="M279.209 260.944c-2.012 2.203-4.268-.268-3.741-3.029.527-2.76 2.94-1.123 2.94-1.123z"/></g><g><path fill="url(#w8o9ao)" d="M253.752 234.38l.338.365c.208.24.304.553.266.864l-.266 3.29s.262.187.716-.353a.634.634 0 0 1 .943-.108s-.664.718-1.676 1.748a2.56 2.56 0 0 1-1.714.773l-.429-1.113c.303-1.905.918-3.75 1.822-5.466z"/></g><g><path fill="url(#w8o9ap)" d="M251.96 240.41c-.713 1.281-4.116 6.963-4.366 8.55-.25 1.588 1.504 3.945 1.504 3.945-.833 1.277 3.245-8.494 3.928-11.508z"/></g><g><path fill="#c16f86" d="M254.1 251.33c5.755 2.471 6.568 4.78 6.568 4.78l-4.942 4.033a19.732 19.732 0 0 1-7.606-9.195c1.155-.628 1.7-1.61 2.392-2.318.772 1.123 2.245 2.125 3.587 2.7z"/></g><g><path fill="url(#w8o9aq)" d="M214.577 294.507a6.897 6.897 0 0 0-3.444-.258c-.443.093-.73.505-.65.932l1.329 6.91c.03.143.151.252.302.27a.358.358 0 0 0 .364-.189c.708-1.476 2.007-4.362 2.357-6.346z"/></g><g><path fill="url(#w8o9ar)" d="M212.112 283.064a6.496 6.496 0 0 0-2.252-2.52.783.783 0 0 0-1.085.278l-3.706 6.205a.361.361 0 0 0 .027.404c.091.114.241.156.375.104 1.49-.66 4.34-2.003 5.919-3.296z"/></g><g><path fill="url(#w8o9as)" d="M215.216 294.14l-2.37.756c-.113.066-.183.162-.194.265-.012.103.036.205.132.283.152.117.33.214.528.288.225.084.5.066.698-.046l3.005-.71z"/></g><g><path fill="url(#w8o9at)" d="M213.482 280.98l-2.137 1.032c-.277.134-.432 1.29-.24 1.514a.608.608 0 0 0 .693.142l3.041-1.342z"/></g><g><path fill="url(#w8o9au)" d="M243.329 268.92s-2.82.592-4.366 1.896c-5.36 4.476-26.845 10.252-26.845 10.252s-.161 2.572.966 2.4c0 0 16.04-2.428 23.72-5.2 0 0-6.52 7.292-22.366 15.044 0 0 .853 2.02 1.53 1.92 0 0 33.829-13.712 34.332-18.94z"/></g><g><path fill="#fff" d="M236.794 278.786a.136.136 0 0 1-.112-.07.14.14 0 0 1-.019-.104.134.134 0 0 1 .06-.086l4.415-2.9-.952-.984a.147.147 0 0 1 0-.2.13.13 0 0 1 .096-.042.13.13 0 0 1 .095.042l1.193 1.231-4.684 3.091a.165.165 0 0 1-.092.022z"/></g><g><path fill="#c16f86" d="M266.45 259.377c-2.148-3.596-7.118-6.051-10.042-7.242a2.792 2.792 0 0 0-3.473 1.154c-2.114 3.457-3.427 9.368-10.275 16.105 3.186 2.23 6.65 6.252 8.402 7.197a48.522 48.522 0 0 0 10.183-11.56c3.404 5.882 9.788 4.334 10.876 3.985a23.884 23.884 0 0 1-.036-4.926c-4.218-1.659-5.636-4.713-5.636-4.713z"/></g><g><path fill="#c16f86" d="M279.218 264.668l-.582-1.228c-2.966 1.257-5.226 1.228-6.944.57a23.335 23.335 0 0 0 .037 4.912c4.261-.638 7.489-4.254 7.489-4.254z"/></g><g><path fill="url(#w8o9av)" d="M261.352 248.08l-3.412 5.44s2.25 2.512 4.39 2.784l2.157-5.098z"/></g><g><path fill="url(#w8o9aw)" d="M264.775 244.077c.05.079 1.34 6.077 1.34 6.077l-3.4.673-2.055-5.507s3.303-2.56 4.115-1.243z"/></g><g><path fill="url(#w8o9ax)" d="M262.75 245.976l.915 3.108c.012.04.03.078.054.111.133.217.655.927 1.356.353.634-.521 1.223-.988 1.745-1.05a.46.46 0 0 1 .498.353c.226.988.372 1.994.435 3.005a.445.445 0 0 1-.415.464 14.668 14.668 0 0 1-3.428.094.451.451 0 0 1-.369-.283c-.303-.754-1.219-3.047-1.575-3.645-.357-.599-1.244-.599-1.605-.587a.446.446 0 0 1-.327-.127 1.168 1.168 0 0 1 .029-1.882.445.445 0 0 0 .029-.648 1.172 1.172 0 0 1-.054-1.75 1.671 1.671 0 0 1 2.023-.366.463.463 0 0 0 .56-.168.354.354 0 0 1 .381-.151.455.455 0 0 0 .349-.105.445.445 0 0 0 .157-.326 1.349 1.349 0 0 1 1.132-1.349c1.587-.41 2.487 1.152 2.512 2.272.025 1.12-1.712 1.447-2.724 1.316-.767-.099-1.38.627-1.629.98a.43.43 0 0 0-.05.381z"/></g><g><path fill="url(#w8o9ay)" d="M261.757 249.52s-.111-1.331-.728-1.427c-.618-.095-1.266.328-.678 1.099.71.961 1.406.328 1.406.328z"/></g><g><path fill="url(#w8o9az)" d="M282.998 263.152l-3.622-.308.116-.504s-1.604.39-1.662 1.73l-.25 2.108c.315-.25 1.278-.758 1.662-.68l1.905.39c.8.158 1.573-.385 1.764-1.237.129-.487.158-.998.087-1.499z"/></g><g><path fill="url(#w8o9aA)" d="M277.743 256.818s5.112.138 11.152-3.69a.712.712 0 0 1 .517-.095.672.672 0 0 1 .431.28c1.86 2.874 1.466 5.99.944 7.851a1.563 1.563 0 0 1-.845 1.003 1.77 1.77 0 0 1-1.37.066c-2.264-.796-6.623-2.015-10.68-1.45-1.54-.234-2.112-3.358-.15-3.965z"/></g><g><path fill="#50c7fe" d="M295.276 251.918a.231.231 0 0 1-.152-.057.308.308 0 0 1-.042-.393l2.232-3.28c.086-.123.241-.144.35-.048a.308.308 0 0 1 .042.393l-2.232 3.277a.237.237 0 0 1-.198.108z"/></g><g><path fill="#50c7fe" d="M299.09 246.445a.236.236 0 0 1-.145-.044.195.195 0 0 1-.093-.133.177.177 0 0 1 .049-.15l1.154-1.241a.273.273 0 0 1 .336-.034c.052.032.085.08.094.133a.177.177 0 0 1-.05.15l-1.153 1.241a.268.268 0 0 1-.192.078z"/></g><g><path fill="#50c7fe" d="M300.747 252.47a.255.255 0 0 1-.252-.2.245.245 0 0 1 .153-.275l7.124-2.796a.261.261 0 0 1 .336.133.243.243 0 0 1-.138.322l-7.124 2.796a.213.213 0 0 1-.099.02z"/></g><g><path fill="#50c7fe" d="M295.295 254.665a.262.262 0 0 1-.102-.506l2.744-1.12a.27.27 0 0 1 .346.145.262.262 0 0 1-.143.344l-2.748 1.116a.213.213 0 0 1-.097.02z"/></g><g><path fill="#50c7fe" d="M299.118 258.498c-.148 0-.268-.092-.268-.206 0-.114.12-.206.268-.206l6.002-.136c.148.001.268.09.277.203.002.113-.113.207-.26.212l-6.002.133z"/></g><g><path fill="#50c7fe" d="M295.815 258.498c-.128 0-.233-.111-.235-.25-.002-.14.1-.255.228-.259l1.166-.039c.13-.002.237.107.243.247a.267.267 0 0 1-.064.182.228.228 0 0 1-.165.08l-1.165.04z"/></g></g></g><g><g><path fill="#e296af" d="M46.51 416.994l-17.76.01c-4.359-1.788-8.044-3.873-11.158-6.14l2.642-2.26-3.817 1.372c-3.068-2.393-5.539-4.965-7.524-7.6l8.06-5.855-10.076 2.904c-3.436-5.572-4.934-11.215-5.529-15.822l1.232-1.378-1.369.18c-.542-5.397.13-9.105.13-9.105s-.207 4.282 10.354 6.742l-1.098 2.655 4.505-1.992c.784.127 1.613.243 2.489.348 6.89.835 13.648 3.956 18.942 8.673l-3.154 2.228 4.656-.808c4.26 4.28 7.363 9.672 8.48 15.748l-3.712.983 3.96.633a28.247 28.247 0 0 1-.254 8.484"/></g><g><path fill="#b56983" d="M43.708 411.73l-2.94-.825 2.788 2.928c-.184 2.056-.386 3.15-.386 3.15l-17.64.012c-1.83-3.852-2.85-7.788-3.316-11.714l3.572-.605-3.773-1.548c-.278-4.03-.018-8.03.505-11.9l4.636-.875-4.165-2.208c.793-4.665 1.87-9.09 2.723-13.085l3.443-.971-3.1-.688c.9-4.476 1.401-8.338.71-11.291 0 0 6.12 4.918 10.818 13.568l-2.522 1.169 3.135-.002c1.838 3.622 3.39 7.84 4.16 12.581.591 3.627.967 6.963 1.192 9.964l-4.31.879 4.445 1.173c.237 4.234.174 7.708.025 10.288"/></g><g><path fill="#d17993" d="M64.159 394.285l-4.513-.938 4.299 4.799a84.747 84.747 0 0 1-1.588 11.1l-2.86.246 2.474 1.473a78.103 78.103 0 0 1-1.671 6.019L36.913 417c-1.26-5.134-1.866-9.767-1.953-13.976l4.919-1.208-4.913-1.13c.257-9.965 3.514-17.45 7.826-23.559l9.509 1.155-6.79-4.693a76.216 76.216 0 0 1 3.488-3.9c1.85-1.944 3.304-3.691 4.446-5.247l3.47-.002-2.345-1.614c3.435-5.24 3.01-7.826 3.01-7.826s2.194 5.152 4.059 13.432l-5.677 1.7 6.258 1.05c1.276 6.439 2.238 14.394 1.939 23.103"/></g><g><path fill="#7e508e" d="M70.819 397.476l-2.891.016 2.758 1.363c-.35 3.218-1.068 7.109-2.485 11.18l-1.963-1.066 1.297 2.86a42.621 42.621 0 0 1-2.366 5.023l-1.367-.278.373.413-11.985.01c.166-2.602.563-4.874 1.141-6.875l2.465.112-2.12-1.215c1.58-4.67 4.194-7.755 7.096-10.043l4.256 1.861-2.471-3.158a38.596 38.596 0 0 1 2.195-1.359 27.316 27.316 0 0 0 2.837-1.861l1.616.48-.854-1.09c2.366-1.998 2.547-3.279 2.547-3.279s.266 2.738-.08 6.906"/></g></g><g><g><path fill="#729b78" d="M285.999 418h-56.14a165.404 165.404 0 0 1-2.699-3.378 25.217 25.217 0 0 1 1.54-4.235l2.936 5.257-1.753-7.522a31.321 31.321 0 0 1 1.767-2.726c1.92 4.428 4.907 11.3 4.798 10.872-.102-.389-1.647-7.85-2.788-13.389.747-.85 1.545-1.67 2.387-2.454l1.363 4.591-.767-5.135c.51-.452 1.032-.885 1.567-1.309l3.69 11.56-1.45-13.173a31.145 31.145 0 0 1 5.01-2.698l1.147 12.576 1.677-13.612a27.263 27.263 0 0 1 5.487-1.102v12.437l2.407-12.56h.105c1.593 0 3.158.144 4.684.42-.22 3.705-.443 7.817-.353 7.593.08-.193.782-3.783 1.478-7.373 1.51.34 2.975.796 4.397 1.364l-2.294 18.12 4.36-17.207a31.338 31.338 0 0 1 3.314 1.881l-3.02 9.354 4.474-8.357c.995.717 1.939 1.49 2.838 2.302l-.948 3.155 1.672-2.482a36.928 36.928 0 0 1 1.76 1.816c-1.405 4.5-3.504 11.296-3.328 11.184.193-.124 3.393-5.692 5.22-8.886.71.94 1.36 1.909 1.946 2.893l-3.85 5.993 5.014-3.84c1.313 2.687 2.134 5.442 2.352 8.07"/></g><g><path fill="#8ab592" d="M243.677 418h-35.95c-.663-.805-1.32-1.639-1.727-2.163.233-.902.567-1.809.986-2.71l1.878 3.367-1.123-4.818c.342-.59.72-1.173 1.132-1.745 1.231 2.836 3.142 7.235 3.074 6.96-.066-.249-1.054-5.026-1.786-8.57.48-.543.99-1.067 1.53-1.57l.873 2.94-.492-3.29a24.51 24.51 0 0 1 1.005-.836l2.362 7.398-.93-8.43a19.88 19.88 0 0 1 3.208-1.728l.735 8.05 1.075-8.713a17.586 17.586 0 0 1 3.514-.704v7.96l1.539-8.038h.068c1.021 0 2.022.092 3 .267-.14 2.37-.284 5.003-.225 4.862.051-.125.501-2.423.946-4.72.967.217 1.906.51 2.814.873l-1.468 11.596 2.791-11.013c.734.36 1.445.763 2.125 1.205l-1.937 5.986 2.867-5.349a20.81 20.81 0 0 1 1.816 1.474l-.607 2.019 1.071-1.587c.393.378.77.765 1.127 1.162-.899 2.88-2.242 7.227-2.13 7.157.123-.078 2.173-3.644 3.342-5.689.455.602.871 1.223 1.248 1.854l-2.467 3.835 3.21-2.456c.843 1.719 1.368 3.483 1.506 5.164"/></g></g><g><g><path fill="#e9eff4" d="M138.759 150.333c.002 3.13-2.629 5.668-5.876 5.67-3.247.002-5.88-2.533-5.883-5.663-.002-3.13 2.628-5.668 5.875-5.67 3.247-.002 5.881 2.533 5.884 5.663"/></g><g><path fill="#e9eff4" d="M153.194 146.722c.003 4.268-3.583 7.73-8.012 7.733-4.427.002-8.02-3.455-8.022-7.722-.003-4.268 3.584-7.73 8.012-7.733 4.426-.003 8.02 3.454 8.022 7.722"/></g><g><path fill="#e9eff4" d="M158.003 152.394c.002 1.991-1.672 3.607-3.74 3.608-2.064.001-3.74-1.612-3.743-3.603 0-1.992 1.674-3.608 3.739-3.609 2.068-.001 3.744 1.612 3.744 3.604"/></g><g><path fill="#e9eff4" d="M133.417 155.998l20.303-.013s-6.828-8.592-7.155-8.743c-.324-.15-13.155 6.946-13.155 6.946l.007 1.81"/></g></g><g opacity=".86"><g opacity=".86"><path fill="#e9eff4" d="M260.933 191.532a7.467 7.467 0 1 1-14.933.01 7.467 7.467 0 0 1 14.933-.01"/></g><g opacity=".86"><path fill="#e9eff4" d="M280.137 185.926c.005 6.039-4.887 10.937-10.926 10.94-6.037.005-10.936-4.887-10.941-10.925-.002-6.038 4.89-10.937 10.926-10.941 6.039-.004 10.938 4.888 10.94 10.926"/></g><g opacity=".86"><path fill="#e9eff4" d="M286.003 193.933a5.067 5.067 0 1 1-10.132.006 5.067 5.067 0 0 1 10.132-.006"/></g><g opacity=".86"><path fill="#e9eff4" d="M254.54 199l26.657-.018s-8.97-12.558-9.395-12.779c-.426-.22-17.272 10.152-17.272 10.152l.01 2.645"/></g></g><g><g><path fill="#dedfd9" d="M269.276 167.811l.022-.77a129.73 129.73 0 0 0-4.118-.038l.005.77c1.355-.008 2.731.003 4.091.038z"/></g><g><path fill="#dedfd9" d="M256.98 168.095a125.65 125.65 0 0 1 4.096-.225l-.028-.77c-1.37.053-2.753.129-4.118.226z"/></g><g><path fill="#dedfd9" d="M277.455 168.28l.066-.768c-1.36-.122-2.741-.223-4.107-.302l-.044.77c1.354.078 2.73.179 4.085.3z"/></g><g><path fill="#dedfd9" d="M248.82 168.936a127.59 127.59 0 0 1 4.073-.489l-.077-.767c-1.365.142-2.742.307-4.096.492z"/></g><g><path fill="#dedfd9" d="M285.588 169.278l.115-.762c-1.349-.21-2.725-.4-4.085-.566l-.088.766c1.349.164 2.714.354 4.058.562z"/></g><g><path fill="#dedfd9" d="M240.734 170.316c1.333-.273 2.693-.527 4.036-.756l-.127-.76c-1.354.23-2.72.486-4.063.76z"/></g><g><path fill="#dedfd9" d="M293.644 170.793l.165-.753a127.352 127.352 0 0 0-4.036-.83l-.143.758c1.338.252 2.687.53 4.014.825z"/></g><g><path fill="#dedfd9" d="M232.754 172.224c1.305-.36 2.643-.706 3.97-1.023l-.177-.751c-1.332.32-2.681.667-3.997 1.03z"/></g><g><path fill="#dedfd9" d="M301.583 172.834l.215-.74a127.7 127.7 0 0 0-3.98-1.094l-.188.747c1.321.34 2.648.705 3.953 1.087z"/></g><g><path fill="#dedfd9" d="M224.923 174.681c1.283-.451 2.594-.887 3.893-1.295l-.226-.736c-1.31.41-2.626.849-3.92 1.303z"/></g><g><path fill="#dedfd9" d="M309.355 175.401l.264-.724a125.556 125.556 0 0 0-3.892-1.357l-.237.733c1.288.427 2.593.88 3.865 1.348z"/></g><g><path fill="#dedfd9" d="M217.283 177.69a111.607 111.607 0 0 1 3.793-1.571l-.275-.719a114.352 114.352 0 0 0-3.821 1.582z"/></g><g><path fill="#dedfd9" d="M316.956 178.494l.308-.704a121.174 121.174 0 0 0-3.793-1.62l-.281.716c1.255.512 2.527 1.054 3.766 1.608z"/></g><g><path fill="#dedfd9" d="M209.872 181.246c1.2-.634 2.434-1.257 3.673-1.85l-.33-.696a110.976 110.976 0 0 0-3.695 1.863z"/></g><g><path fill="#dedfd9" d="M324.331 182.106l.358-.681c-1.211-.646-2.45-1.28-3.683-1.885l-.336.694c1.228.6 2.461 1.23 3.661 1.872z"/></g><g><path fill="#dedfd9" d="M202.767 185.37a102.34 102.34 0 0 1 3.513-2.131l-.38-.669a103.925 103.925 0 0 0-3.54 2.148z"/></g><g><path fill="#dedfd9" d="M331.448 186.234l.408-.655a123.1 123.1 0 0 0-3.546-2.139l-.38.668c1.184.685 2.368 1.4 3.518 2.126z"/></g><g><path fill="#dedfd9" d="M196.007 190.06a97.582 97.582 0 0 1 3.326-2.415l-.43-.635a98.412 98.412 0 0 0-3.353 2.433z"/></g><g><path fill="#dedfd9" d="M338.264 190.853l.452-.625a125.156 125.156 0 0 0-3.387-2.388l-.429.64c1.134.767 2.263 1.565 3.364 2.373z"/></g><g><path fill="#dedfd9" d="M189.677 195.313a91.446 91.446 0 0 1 3.11-2.696l-.484-.597a93.477 93.477 0 0 0-3.133 2.719z"/></g><g><path fill="#dedfd9" d="M344.728 195.956l.49-.59a119.756 119.756 0 0 0-3.21-2.626l-.468.608c1.074.846 2.142 1.724 3.188 2.608z"/></g><g><path fill="#dedfd9" d="M183.195 200.504a64.07 64.07 0 0 0 3.32-2.49l-.474-.604a65.956 65.956 0 0 1-3.281 2.461z"/></g><g><path fill="#dedfd9" d="M350.81 201.515l.534-.554a115.524 115.524 0 0 0-3.017-2.851l-.507.572c1.008.922 2.015 1.875 2.99 2.833z"/></g><g><path fill="#dedfd9" d="M176.138 204.843a72.335 72.335 0 0 0 3.595-2.065l-.396-.658a72.07 72.07 0 0 1-3.557 2.043z"/></g><g><path fill="#dedfd9" d="M356.496 207.495l.567-.514a118.675 118.675 0 0 0-2.802-3.061l-.551.534c.942.99 1.878 2.015 2.786 3.041z"/></g><g><path fill="#dedfd9" d="M168.646 208.358a79.82 79.82 0 0 0 3.788-1.659l-.319-.699a80.088 80.088 0 0 1-3.755 1.644z"/></g><g><path fill="#dedfd9" d="M160.85 211.128c1.338-.412 2.66-.849 3.931-1.3l-.253-.728c-1.26.448-2.571.883-3.898 1.29z"/></g><g><path fill="#dedfd9" d="M152.86 213.271c1.36-.314 2.715-.649 4.014-.996l-.192-.745c-1.294.345-2.638.678-3.992.99z"/></g><g><path fill="#dedfd9" d="M361.746 213.865l.605-.472a122.628 122.628 0 0 0-2.587-3.253l-.584.493a111.4 111.4 0 0 1 2.566 3.232z"/></g><g><path fill="#dedfd9" d="M144.757 214.889c1.382-.238 2.747-.492 4.057-.753l-.143-.756c-1.305.26-2.67.512-4.041.748z"/></g><g><path fill="#dedfd9" d="M136.604 216.111c1.404-.182 2.775-.374 4.085-.57l-.11-.761a240.58 240.58 0 0 1-4.069.567z"/></g><g><path fill="#dedfd9" d="M128.417 217.05a333.87 333.87 0 0 0 4.102-.444l-.083-.766c-1.316.15-2.653.295-4.096.444z"/></g><g><path fill="#dedfd9" d="M120.206 217.837c1.36-.123 2.731-.248 4.107-.38l-.071-.767c-1.377.131-2.742.257-4.102.38z"/></g><g><path fill="#dedfd9" d="M112.002 218.584c1.354-.127 2.725-.252 4.101-.376l-.066-.768c-1.382.124-2.753.25-4.107.377z"/></g><g><path fill="#dedfd9" d="M103.814 219.437c1.277-.151 2.615-.298 4.09-.45l-.082-.767c-1.476.152-2.814.3-4.102.451z"/></g><g><path fill="#dedfd9" d="M95.667 220.575c1.271-.215 2.642-.424 4.063-.622l-.105-.763c-1.431.198-2.802.408-4.085.624z"/></g><g><path fill="#dedfd9" d="M366.54 220.585l.633-.43a125.712 125.712 0 0 0-2.356-3.425l-.617.451c.793 1.113 1.58 2.258 2.34 3.404z"/></g><g><path fill="#dedfd9" d="M87.637 222.27c1.261-.33 2.604-.645 3.997-.935l-.154-.755c-1.41.293-2.764.611-4.03.944z"/></g><g><path fill="#dedfd9" d="M79.903 224.89a46.755 46.755 0 0 1 3.815-1.459l-.242-.731c-1.36.456-2.665.955-3.876 1.481z"/></g><g><path fill="#dedfd9" d="M370.884 227.622l.661-.385a130.915 130.915 0 0 0-2.125-3.577l-.65.407a118.852 118.852 0 0 1 2.114 3.555z"/></g><g><path fill="#dedfd9" d="M72.878 228.973c1.03-.8 2.17-1.559 3.375-2.253l-.374-.67a30.711 30.711 0 0 0-3.469 2.31z"/></g><g><path fill="#dedfd9" d="M67.373 234.874l.121-.18a23.837 23.837 0 0 1 2.384-3.005l-.556-.529a24.07 24.07 0 0 0-2.455 3.101l-.127.184z"/></g><g><path fill="#dedfd9" d="M374.748 234.94l.682-.341a121.47 121.47 0 0 0-1.888-3.709l-.672.364a133.056 133.056 0 0 1 1.877 3.687z"/></g><g><path fill="#dedfd9" d="M63.54 242.133a35.11 35.11 0 0 1 1.724-3.728l-.672-.365a36.438 36.438 0 0 0-1.762 3.81z"/></g><g><path fill="#dedfd9" d="M378.162 242.479l.699-.299c-.534-1.28-1.09-2.566-1.657-3.82l-.694.32a140.099 140.099 0 0 1 1.652 3.799z"/></g><g><path fill="#dedfd9" d="M61.765 250.091c.066-1.326.26-2.688.567-4.048l-.743-.173a24.727 24.727 0 0 0-.589 4.182z"/></g><g><path fill="#dedfd9" d="M381.126 250.22l.716-.258a145.576 145.576 0 0 0-1.426-3.912l-.716.278c.49 1.278.969 2.587 1.426 3.891z"/></g><g><path fill="#dedfd9" d="M383.636 258.113l.727-.215a150.337 150.337 0 0 0-1.206-3.988l-.727.237c.413 1.303.82 2.638 1.206 3.966z"/></g><g><path fill="#dedfd9" d="M62.198 258.373l.72-.258a20.745 20.745 0 0 1-.974-3.955l-.754.111c.198 1.385.54 2.765 1.008 4.102z"/></g><g><path fill="#dedfd9" d="M66.317 265.683l.594-.482a26.226 26.226 0 0 1-2.29-3.381l-.661.385a27.642 27.642 0 0 0 2.357 3.478z"/></g><g><path fill="#dedfd9" d="M385.721 266.143l.743-.178c-.314-1.353-.65-2.714-.996-4.045l-.738.196c.347 1.325.677 2.68.991 4.027z"/></g><g><path fill="#dedfd9" d="M72.285 271.526l.468-.611a37.138 37.138 0 0 1-3.094-2.685l-.529.556a39.034 39.034 0 0 0 3.155 2.74z"/></g><g><path fill="#dedfd9" d="M387.407 274.271l.755-.14a186.565 186.565 0 0 0-.799-4.091l-.743.158c.275 1.341.54 2.711.787 4.073z"/></g><g><path fill="#dedfd9" d="M79.377 275.96l.308-.704c-.01-.007-1.497-.678-3.573-1.986l-.402.655c2.125 1.338 3.606 2.007 3.667 2.035z"/></g><g><path fill="#dedfd9" d="M388.716 282.468l.754-.104c-.187-1.38-.391-2.767-.606-4.124l-.754.121c.215 1.353.418 2.734.606 4.107z"/></g><g><path fill="#dedfd9" d="M389.644 290.718l.76-.07c-.127-1.386-.27-2.782-.424-4.148l-.76.087c.154 1.362.297 2.752.424 4.131z"/></g><g><path fill="#dedfd9" d="M390.239 299.002l.76-.04c-.072-1.39-.16-2.79-.254-4.162l-.765.056c.1 1.367.187 2.762.259 4.146z"/></g></g></g><g transform="matrix(-1 0 0 1 67 0)"><g><path fill="#c16f86" d="M39.044 416L39 350l1.218 3.065L43 415.998l-3.956.002"/></g><g><path fill="#c16f86" d="M49.582 347.358C46.12 352.328 39.23 353 39.23 353s-1.276-7.388 2.186-12.358C44.88 335.67 51.77 335 51.77 335s1.276 7.385-2.188 12.358"/></g><g><path fill="#e59ab3" d="M45.049 415.201c-.593-16.45 4.41-51.201 4.41-51.201l.541 2.463s-4.367 33.362-2.099 49.16c.102.723-2.825.308-2.852-.422"/></g><g><path fill="#e59ab3" d="M57.908 365c-3.311 3.31-8.905 2.992-8.905 2.992s-.222-5.683 3.09-8.992c3.31-3.31 8.904-2.992 8.904-2.992s.224 5.685-3.09 8.992"/></g><g><path fill="#dd8399" d="M35.955 415.121C36.521 397.087 31.531 359 31.531 359L31 361.7s4.358 36.568 2.137 53.888c-.102.792 2.792.334 2.818-.467"/></g><g><path fill="#dd8399" d="M22.356 359.76c3.59 3.584 9.64 3.23 9.64 3.23s.236-6.164-3.354-9.75c-3.588-3.584-9.639-3.23-9.639-3.23s-.235 6.164 3.353 9.75"/></g><g><path fill="#d17993" d="M33.998 414.131C34.1 409.702 29.351 383 29.351 383l-1.351.13s3.524 16.376 3.047 31.448c-.027.801 2.933.354 2.951-.447"/></g><g><path fill="#d17993" d="M14.701 383.199c6.629 3.558 15.299.746 15.299.746s-2.075-8.583-8.704-12.144C14.67 368.243 6 371.055 6 371.055s2.075 8.583 8.701 12.144"/></g></g></g></svg>