<svg xmlns="http://www.w3.org/2000/svg" width="1449" height="38" viewBox="0 0 1449 38"><g><g transform="rotate(180 724.5 19)"><g><path fill="#f5f8fa" d="M0 31.706L23.257 1.8 55 34.8z"/></g><g><path fill="#f5f8fa" d="M77 34.8l32.238-33L141 34.8z"/></g><g><path fill="#f5f8fa" d="M163 34.8l32.238-33L227 34.8z"/></g><g><path fill="#f5f8fa" d="M35 38.8l32.238-33L99 38.8z"/></g><g><path fill="#f5f8fa" d="M119 38.8l32.238-33L183 38.8z"/></g><g><path fill="#f5f8fa" d="M206 38.8l32.238-33L270 38.8z"/></g><g><path fill="#f5f8fa" d="M248 34.8l32.238-33L312 34.8z"/></g><g><path fill="#f5f8fa" d="M335 34.8l32.238-33L399 34.8z"/></g><g><path fill="#f5f8fa" d="M421 34.8l32.238-33L485 34.8z"/></g><g><path fill="#f5f8fa" d="M507 34.8l32.238-33L571 34.8z"/></g><g><path fill="#f5f8fa" d="M291 38.8l32.238-33L355 38.8z"/></g><g><path fill="#f5f8fa" d="M378 38.8l32.238-33L442 38.8z"/></g><g><path fill="#f5f8fa" d="M464 38.8l32.238-33L528 38.8z"/></g><g><path fill="#f5f8fa" d="M549 38.8l32.238-33L613 38.8z"/></g><g><path fill="#f5f8fa" d="M592 34.8l32.238-33L656 34.8z"/></g><g><path fill="#f5f8fa" d="M679 34.8l32.238-33L743 34.8z"/></g><g><path fill="#f5f8fa" d="M765 34.8l32.238-33L829 34.8z"/></g><g><path fill="#f5f8fa" d="M850 34.8l32.238-33L914 34.8z"/></g><g><path fill="#f5f8fa" d="M636 38.8l32.238-33L700 38.8z"/></g><g><path fill="#f5f8fa" d="M722 38.8l32.238-33L786 38.8z"/></g><g><path fill="#f5f8fa" d="M807 38.8l32.238-33L871 38.8z"/></g><g><path fill="#f5f8fa" d="M894 38.8l32.238-33L958 38.8z"/></g><g><path fill="#f5f8fa" d="M936 34.8l32.238-33 31.762 33z"/></g><g><path fill="#f5f8fa" d="M1023 34.8l32.238-33 31.762 33z"/></g><g><path fill="#f5f8fa" d="M1109 34.8l32.238-33 31.762 33z"/></g><g><path fill="#f5f8fa" d="M1195 34.8l32.238-33 31.762 33z"/></g><g><path fill="#f5f8fa" d="M980 38.8l32.238-33 31.762 33z"/></g><g><path fill="#f5f8fa" d="M1066 38.8l32.238-33 31.762 33z"/></g><g><path fill="#f5f8fa" d="M1151 38.8l32.238-33 31.762 33z"/></g><g><path fill="#f5f8fa" d="M1237 38.8l32.238-33 31.762 33z"/></g><g><path fill="#f5f8fa" d="M1109 34.8l32.238-33 31.762 33z"/></g><g><path fill="#f5f8fa" d="M1237 38.8l32.238-33 31.762 33z"/></g><g><path fill="#f5f8fa" d="M1367 34.8l32.238-33 31.762 33z"/></g><g><path fill="#f5f8fa" d="M1323 38.8l32.238-33 31.762 33z"/></g><g><path fill="#f5f8fa" d="M1399 38.8l31.819-33L1449 32.028z"/></g><g><path fill="#f5f8fa" d="M1279 34.8l32.238-33 31.762 33z"/></g></g></g></svg>