<svg xmlns="http://www.w3.org/2000/svg" width="416" height="15" viewBox="0 0 416 15"><g><g transform="rotate(180 208 7.5)"><g><path fill="#f5f8fa" d="M0 13.25l12.09-13 11.91 13z"/></g><g><path fill="#f5f8fa" d="M33 13.25l12.09-13 11.91 13z"/></g><g><path fill="#f5f8fa" d="M66 13.25l12.09-13 11.91 13z"/></g><g><path fill="#f5f8fa" d="M0 14.25v-7.5l7 7.5z"/></g><g><path fill="#f5f8fa" d="M16 14.25l12.09-13 11.91 13z"/></g><g><path fill="#f5f8fa" d="M49 14.25l12.09-13 11.91 13z"/></g><g><path fill="#f5f8fa" d="M82 14.25l12.09-13 11.91 13z"/></g><g><path fill="#f5f8fa" d="M98 13.25l12.09-13 11.91 13z"/></g><g><path fill="#f5f8fa" d="M131 13.25l12.09-13 11.91 13z"/></g><g><path fill="#f5f8fa" d="M164 13.25l12.09-13 11.91 13z"/></g><g><path fill="#f5f8fa" d="M197 13.25l12.09-13 11.91 13z"/></g><g><path fill="#f5f8fa" d="M115 14.25l12.09-13 11.91 13z"/></g><g><path fill="#f5f8fa" d="M148 14.25l12.09-13 11.91 13z"/></g><g><path fill="#f5f8fa" d="M180 14.25l12.09-13 11.91 13z"/></g><g><path fill="#f5f8fa" d="M213 14.25l12.09-13 11.91 13z"/></g><g><path fill="#f5f8fa" d="M229 13.25l12.09-13 11.91 13z"/></g><g><path fill="#f5f8fa" d="M263 13.25l12.09-13 11.91 13z"/></g><g><path fill="#f5f8fa" d="M295 13.25l12.09-13 11.91 13z"/></g><g><path fill="#f5f8fa" d="M328 13.25l12.09-13 11.91 13z"/></g><g><path fill="#f5f8fa" d="M246 14.25l12.09-13 11.91 13z"/></g><g><path fill="#f5f8fa" d="M279 14.25l12.09-13 11.91 13z"/></g><g><path fill="#f5f8fa" d="M311 14.25l12.09-13 11.91 13z"/></g><g><path fill="#f5f8fa" d="M344 14.25l12.09-13 11.91 13z"/></g><g><path fill="#f5f8fa" d="M295 13.25l12.09-13 11.91 13z"/></g><g><path fill="#f5f8fa" d="M344 14.25l12.09-13 11.91 13z"/></g><g><path fill="#f5f8fa" d="M394 13.25l12.09-13 9.91 13z"/></g><g><path fill="#f5f8fa" d="M377 14.25l12.09-13 11.91 13z"/></g><g><path fill="#f5f8fa" d="M360 13.25l12.09-13 11.91 13z"/></g></g></g></svg>