<?xml version="1.0" encoding="utf-8"?>
<!-- Generator: Adobe Illustrator 20.1.0, SVG Export Plug-In . SVG Version: 6.00 Build 0)  -->
<svg version="1.1" id="Слой_1" xmlns="http://www.w3.org/2000/svg" xmlns:xlink="http://www.w3.org/1999/xlink" x="0px" y="0px"
	 viewBox="0 0 1442 782" style="enable-background:new 0 0 1442 782;" xml:space="preserve">
<style type="text/css">
	.st0{fill:#FFFAFA;}
	.st1{fill:url(#SVGID_1_);}
	.st2{fill:#FFFFFE;}
	.st3{fill:#DEDFD9;}
	.st4{fill:#D2CBBB;}
	.st5{fill:#243A62;}
	.st6{fill:#E39C7C;}
	.st7{fill:#73C5C6;}
	.st8{fill:#30363A;}
	.st9{fill:#916B58;}
	.st10{fill:#B7954D;}
	.st11{fill:#3C4D87;}
	.st12{fill:#2B345B;}
	.st13{fill:#E9EFF4;}
	.st14{fill:#D1E9F2;}
	.st15{fill:#E296AF;}
	.st16{fill:#B56983;}
	.st17{fill:#D17993;}
	.st18{fill:#7E508E;}
	.st19{fill:#FCF3F2;}
	.st20{fill:#D86161;}
	.st21{fill:#C15656;}
	.st22{fill:#4F2F5B;}
	.st23{fill:#F4AF5D;}
	.st24{fill:#FFCEBF;}
	.st25{fill:#EFF6F2;}
	.st26{fill:#E5A495;}
	.st27{fill:#10739B;}
	.st28{fill:#A3C4D4;}
	.st29{fill:#A3C1D2;}
	.st30{fill:#92BCD0;}
	.st31{fill:#0B5D85;}
	.st32{fill:#729EB6;}
	.st33{fill:#B2CEDB;}
	.st34{fill:#898BB3;}
	.st35{fill:#729B78;}
	.st36{fill:#8AB592;}
	.st37{fill:#4E2649;}
	.st38{fill:#447BCC;}
	.st39{fill:#3A8EC1;}
	.st40{fill:#3E71AF;}
	.st41{fill:#F4976E;}
	.st42{fill:#F76374;}
	.st43{fill:#775464;}
	.st44{fill:#EB965E;}
	.st45{clip-path:url(#SVGID_3_);}
</style>
<g>
	<g>
		<g>
			<path class="st0" d="M0,0h1441v133H0V0z"/>
		</g>
		<g>
			<path class="st0" d="M0,649h1441v121H0V649z"/>
		</g>
		<g>
			
				<linearGradient id="SVGID_1_" gradientUnits="userSpaceOnUse" x1="1349.5483" y1="879.1304" x2="90.9284" y2="-154.1598" gradientTransform="matrix(1 0 0 -1 0 781.89)">
				<stop  offset="0" style="stop-color:#D2CBBB"/>
				<stop  offset="1" style="stop-color:#FD8278"/>
			</linearGradient>
			<path class="st1" d="M2,722.7c57,26.2,121,40.9,184.3,41c48.6,0.1,149.4-0.2,233.8-14.8c80.4-14,198.4-75,212.6-86.2
				c29.1-22.8,351.7,111.8,808.3,107.2l1-703.4c-131.8-19.2-204.7-38.2-290-16.7c-164.6,41.6-257.6,7.7-312.4,0
				c-74.2-10.4-96.1-42.3-249.3,17.7L0,68.5"/>
		</g>
		<g>
			<path class="st2" d="M1436,769.3c0,0-976.8,30.1-851.8-74.7c98.4-82.6,284.8,0.9,380.3-222.9c95.5-223.7,284.6-252.6,476.5-120.7
				L1436,769.3z"/>
		</g>
		<g>
			<path class="st2" d="M1016,306.7c-32.2,31.2-59.1,71.4-80,119.4c-55,126.7-132.4,142.6-214.3,159.5
				c-69.9,14.4-142.2,29.4-209.3,110.9c-41.3,50.2-82.9,105.3,2.2,1.9c66.5-80.8,138.3-95.6,207.7-109.9
				C805,571.4,883,555.3,938.7,427.3c40.9-94,102.8-155.4,184.2-182.4c91.6-30.4,203.5-14,318.2,46.2v-3.3
				c-114.9-59.9-227.1-76.2-319-45.7C1082.3,255.2,1046.7,277,1016,306.7L1016,306.7z"/>
		</g>
		<g>
			<path class="st3" d="M677,452.9c0.1-2.7,0.3-5.4,0.5-8.1l1.5,0.1c-0.2,2.7-0.4,5.4-0.5,8.1L677,452.9z M679.6,436.9l-1.5-0.1
				c0.2-2.7,0.5-5.4,0.8-8.1l1.5,0.2C680.1,431.5,679.9,434.2,679.6,436.9z M681.4,420.8l-1.5-0.2c0.4-2.7,0.8-5.4,1.2-8l1.5,0.2
				C682.2,415.4,681.8,418.1,681.4,420.8L681.4,420.8z M1278.5,408.1l-0.6-1.4c0,0,2.9-1.3,6.9-3.9l0.8,1.3
				C1281.5,406.8,1278.6,408.1,1278.5,408.1z M683.9,404.8l-1.5-0.3c0.5-2.7,1-5.3,1.5-8l1.4,0.3
				C684.9,399.6,684.4,402.2,683.9,404.8L683.9,404.8z M1292.2,399.5l-0.9-1.2c2.1-1.6,4.1-3.4,6-5.2l1,1.1
				C1296.4,396.1,1294.3,397.9,1292.2,399.5L1292.2,399.5z M687.2,389l-1.4-0.3c0.6-2.6,1.2-5.3,1.9-7.9l1.4,0.4
				C688.4,383.8,687.8,386.4,687.2,389L687.2,389z M1303.7,388.1l-1.1-0.9c1.6-2.1,3.1-4.3,4.4-6.6l1.3,0.8
				C1306.9,383.7,1305.4,386,1303.7,388.1L1303.7,388.1z M1311.7,373.9l-1.4-0.5c0.9-2.5,1.5-5.1,1.9-7.7l1.5,0.2
				C1313.2,368.6,1312.6,371.3,1311.7,373.9L1311.7,373.9z M691.2,373.4l-1.4-0.4c0.7-2.6,1.5-5.2,2.3-7.8l1.4,0.5
				C692.7,368.2,692,370.8,691.2,373.4L691.2,373.4z M696.1,358l-1.4-0.5c0.9-2.6,1.8-5.1,2.8-7.6l1.4,0.5
				C697.9,353,696.9,355.5,696.1,358L696.1,358z M1312.5,357.8c-0.1-2.7-0.5-5.3-1.1-7.9l1.4-0.3c0.6,2.7,1,5.4,1.1,8.1
				L1312.5,357.8z M701.8,343l-1.3-0.6c1-2.5,2.1-5,3.2-7.4l1.3,0.6C703.9,338,702.8,340.5,701.8,343L701.8,343z M1309.1,342.3
				c-1-2.5-2.1-4.9-3.3-7.3l1.3-0.7c1.3,2.4,2.4,4.9,3.4,7.4L1309.1,342.3z M708.4,328.3l-1.3-0.7c1.2-2.4,2.4-4.8,3.6-7.2l1.3,0.7
				C710.7,323.5,709.5,325.9,708.4,328.3L708.4,328.3z M1301.7,328.2l-0.2-0.4c-1.4-2.1-2.9-4-4.6-5.9l1.1-1c1.7,1.9,3.3,3.9,4.7,6
				l0.2,0.4L1301.7,328.2z M1291.1,316.6c-2.1-1.6-4.2-3.1-6.5-4.4l0.7-1.3c2.3,1.3,4.6,2.8,6.7,4.5L1291.1,316.6z M715.8,314
				l-1.3-0.8c1.3-2.3,2.7-4.7,4.1-7l1.3,0.8C718.5,309.4,717.2,311.7,715.8,314L715.8,314z M1277.5,308.7c-2.4-1.1-4.9-2-7.4-2.8
				l0.5-1.4c2.5,0.9,5,1.8,7.5,2.9L1277.5,308.7z M1262.6,303.6c-2.4-0.6-5-1.3-7.7-1.8l0.3-1.5c2.7,0.6,5.3,1.2,7.8,1.8
				L1262.6,303.6z M724.2,300.3l-1.2-0.8c1.5-2.2,3-4.5,4.5-6.7l1.2,0.9C727.2,295.9,725.7,298.1,724.2,300.3L724.2,300.3z
				 M1247.1,300.3c-2.6-0.4-5.2-0.8-7.8-1.2l0.2-1.5c2.8,0.4,5.4,0.8,7.9,1.2L1247.1,300.3z M1231.4,298.1c-2.5-0.3-5-0.6-7.9-0.9
				l0.2-1.5c2.8,0.3,5.4,0.6,7.9,0.9L1231.4,298.1z M1215.6,296.4c-2.6-0.2-5.3-0.5-7.9-0.7l0.1-1.5c2.7,0.2,5.3,0.5,7.9,0.7
				L1215.6,296.4z M1199.7,295c-2.6-0.2-5.3-0.5-7.9-0.7l0.1-1.5c2.7,0.3,5.3,0.5,7.9,0.7L1199.7,295z M1183.9,293.4
				c-2.6-0.3-5.3-0.6-7.9-0.9l0.2-1.5c2.5,0.3,5.1,0.6,7.9,0.9L1183.9,293.4z M1168.1,291.6c-2.7-0.4-5.4-0.7-7.9-1.1l0.2-1.5
				c2.5,0.4,5.2,0.8,7.9,1.1L1168.1,291.6z M1152.3,289.2c-2.6-0.5-5.2-0.9-7.8-1.5l0.3-1.5c2.5,0.5,5.2,1,7.8,1.5L1152.3,289.2z
				 M733.5,287.2l-1.2-0.9c1.6-2.1,3.3-4.3,5-6.3l1.1,1C736.7,283,735.1,285.1,733.5,287.2L733.5,287.2z M1136.7,286.1
				c-2.6-0.6-5.2-1.2-7.7-1.9l0.4-1.5c2.5,0.7,5.1,1.3,7.7,1.9L1136.7,286.1z M1121.3,281.9c-2.6-0.8-5.1-1.6-7.6-2.5l0.5-1.4
				c2.4,0.9,5,1.7,7.5,2.5L1121.3,281.9z M1106.2,276.5c-2.5-1-4.9-2.1-7.3-3.2l0.6-1.4c2.4,1.1,4.8,2.2,7.2,3.2L1106.2,276.5z
				 M743.6,274.8l-1.1-1c1.8-2,3.6-4,5.4-6l1.1,1C747.2,270.9,745.4,272.8,743.6,274.8z M1091.8,269.7c-2.4-1.3-4.7-2.6-6.9-4
				l0.8-1.3c2.3,1.4,4.5,2.7,6.9,4L1091.8,269.7z M754.6,263.2l-1-1.1c1.9-1.9,3.8-3.7,5.8-5.5l1,1.1
				C758.4,259.5,756.5,261.3,754.6,263.2z M1078.1,261.2c-2.2-1.5-4.3-3.2-6.4-4.9l0.9-1.2c2.1,1.7,4.2,3.3,6.3,4.8L1078.1,261.2z
				 M766.3,252.4l-0.9-1.1c2-1.7,4.1-3.4,6.2-5.1l0.9,1.2C770.4,249,768.3,250.7,766.3,252.4L766.3,252.4z M1065.6,251.1
				c-2-1.8-4-3.5-6-5.2l0.9-1.2c2.1,1.7,4.1,3.5,6,5.3L1065.6,251.1z M778.8,242.4l-0.9-1.2c2.2-1.6,4.3-3.1,6.5-4.6l0.8,1.2
				C783.1,239.3,780.9,240.9,778.8,242.4z M1053.4,240.9c-2.1-1.6-4.2-3.2-6.4-4.7l0.8-1.2c2.2,1.5,4.3,3.1,6.5,4.7L1053.4,240.9z
				 M792,233.4l-0.8-1.3c2.3-1.4,4.5-2.8,6.8-4.2l0.7,1.3C796.4,230.6,794.2,232,792,233.4z M1040.4,231.8c-2.2-1.4-4.5-2.8-6.8-4.2
				l0.7-1.3c2.3,1.3,4.6,2.7,6.8,4.2L1040.4,231.8z M805.7,225.4l-0.7-1.3c2.3-1.3,4.7-2.5,7.1-3.7l0.6,1.3
				C810.4,222.9,808,224.2,805.7,225.4z M1026.6,223.7c-2.3-1.2-4.7-2.4-7.1-3.6l0.6-1.4c2.4,1.2,4.8,2.4,7.1,3.6L1026.6,223.7z
				 M819.9,218.4l-0.6-1.4c2.4-1.1,4.9-2.1,7.3-3.2l0.5,1.4C824.8,216.2,822.3,217.3,819.9,218.4L819.9,218.4z M1012.3,216.8
				c-2.4-1.1-4.9-2.1-7.3-3.1l0.5-1.4c2.5,1,5,2,7.4,3.1L1012.3,216.8z M834.6,212.4l-0.5-1.4c2.5-0.9,5-1.8,7.5-2.6l0.5,1.4
				C839.6,210.6,837,211.5,834.6,212.4L834.6,212.4z M997.6,211c-2.5-0.9-5-1.7-7.5-2.5l0.4-1.4c2.5,0.8,5.1,1.7,7.6,2.5L997.6,211z
				 M849.6,207.4l-0.4-1.4c2.5-0.8,5.1-1.5,7.7-2.1l0.4,1.5C854.7,205.9,852.1,206.6,849.6,207.4L849.6,207.4z M982.4,206.2
				c-2.5-0.7-5.1-1.4-7.7-2l0.3-1.5c2.6,0.6,5.2,1.3,7.7,2L982.4,206.2z M864.9,203.4l-0.3-1.5c2.6-0.6,5.2-1.1,7.8-1.6l0.3,1.5
				C870.1,202.3,867.5,202.8,864.9,203.4L864.9,203.4z M967.1,202.5c-2.6-0.5-5.2-1-7.8-1.5l0.2-1.5c2.6,0.4,5.2,0.9,7.8,1.5
				L967.1,202.5z M880.5,200.4l-0.2-1.5c2.6-0.4,5.3-0.8,7.9-1.1l0.2,1.5C885.7,199.7,883.1,200,880.5,200.4L880.5,200.4z
				 M951.4,199.8c-2.6-0.4-5.2-0.7-7.9-0.9l0.1-1.5c2.6,0.3,5.3,0.6,7.9,1L951.4,199.8z M896.2,198.5L896,197
				c2.6-0.2,5.3-0.4,7.9-0.6l0.1,1.5C901.4,198.1,898.8,198.3,896.2,198.5L896.2,198.5z M935.7,198.1c-2.6-0.2-5.3-0.3-7.9-0.4
				l0.1-1.5c2.6,0.1,5.3,0.2,8,0.4L935.7,198.1z M912,197.6l0-1.5c2.6-0.1,5.3-0.1,8-0.1l0,1.5C917.2,197.5,914.6,197.5,912,197.6z"
				/>
		</g>
		<g>
			<path class="st0" d="M383.4,154c-33.9,17-78.7,33.9-137.8,48.1C142,226.9,74,255.3,30.4,293.2C19,303.1,9.2,313.7,1,325V7
				l614,52.1C615,59.1,469.6,110.7,383.4,154L383.4,154z"/>
		</g>
		<g>
			<g>
				<path class="st4" d="M902,555.7c0,111.4-3,133.2-29.5,158.2c-10.4,9.8-29.5,30.1-84.6,40.2c-16.6,3-36.3,5.2-60.1,5.8
					c-9.7,0.3-18.6-0.1-26.8-1c-6.8-0.8-13.1-2-18.9-3.5c-60.6-16-65.1-70.8-38.6-116.8c7-12.2,15-23.4,23.4-33.9
					c13-16.1,26.9-30.5,39.5-43.9c11.6-12.3,22.1-23.9,29.8-35.2c3.2-4.8,5.9-9.6,8-14.4c6.4-14.7,14.1-28.7,23.2-42
					c7.7-11.3,13.5-17.6,13.5-17.6c6.8-3.4,24.6-9.9,43.2-10.6C858.9,439.8,902,457.9,902,555.7"/>
			</g>
			<g>
				<path class="st5" d="M771.5,745.6c0,0,0.9,7.4,2,10.7c1.2,3.3,7.4,10.9,4.8,18.2c-2.9,7.9-15.4,0.3-20.5-2.1
					c-5.1-2.4-4-6.8-4.5-12.1c-0.5-5.4-3-5.5-2.1-9.3c0.9-3.8,6.5-11,6.5-11L771.5,745.6"/>
			</g>
			<g>
				<path class="st6" d="M760.2,736c0,0-3.3,4.9-3.2,5.1c0.1,0.1,13.9,9.3,14.9,6.3c0.8-2.4,1.1-5.8,1.1-5.8L760.2,736"/>
			</g>
			<g>
				<path class="st5" d="M714,751.2c0,0-4.2,3.8-7.9,9.6c-3.7,5.8-13.6,6.1-14.1,14.1c-0.4,7.9,13.5,8.2,20.8,5.6
					c7.3-2.6,8.4-10.4,12.8-12.3c4.4-1.9,6.7-3.5,6.4-7.3c-0.3-3.8-2.8-9.9-2.8-9.9s-2.7,0.9-4.4,1.1
					C723.2,752.3,717.8,752.3,714,751.2"/>
			</g>
			<g>
				<path class="st7" d="M763,532.5c0,0-2.8,17.5-5.1,29v0c-0.9,4.7-1.8,8.4-2.3,9.6c-0.7,1.5-5.9,7.4-12.4,14.4
					c-11.4,12.2-26.4,27.6-26.4,27.6l-5.9-11.6c0,0,13.3-16.3,22.4-27.2c4.2-5,7.4-8.9,8-9.5c1.9-1.8,4.1-19.1,7.2-33.5
					c3.1-14.3,9.3-22.2,9.3-22.2L763,532.5"/>
			</g>
			<g>
				<path class="st6" d="M744,585.3c-11.3,12.3-26.2,27.7-26.2,27.7l-5.8-11.7c0,0,13.2-16.4,22.2-27.3
					C736.9,575.4,742,578.8,744,585.3"/>
			</g>
			<g>
				<path class="st6" d="M714.6,746l-0.6,5c0,0,7.1,2.5,14.8-0.2l0.2-4.4L714.6,746"/>
			</g>
			<g>
				<path class="st7" d="M816.6,611.3c0.4,1.6-76.6,0-76.6,0s21.3-16.4,22.7-20.8c1.4-4.4-5.4-30.7-6.3-39.3
					c-0.7-6.9-2.5-37.5,1.8-42.2c4.5-4.9,20.5-10,20.5-10l23.4,0.9c0,0,3.9,0.9,6.6,2.2c2.8,1.4,18.6,7.3,21.1,15.7
					c2.6,8.4-15.7,35.2-15.7,35.2l-0.1,3.2v0c-0.1,2.6-0.2,6.6-0.3,11c-0.1,5.6-0.2,11.8-0.2,16.4
					C813.4,594.2,816.1,609.7,816.6,611.3"/>
			</g>
			<g>
				<path class="st3" d="M817.3,610.2c0,0,10.5,16.2,10.7,27.3c0.2,11.1-18.7,48.1-21.5,53.4c-8.6,15.9-32,50.3-32,50.3
					s-4-0.1-16.7-5.2c0,0,15.6-45.4,17.6-50.1c8.4-20,13.1-34.2,10.3-37.6c-2.8-3.4-10.5-6.9-12.7-8.9c-2.2-2-41,7.7-45.1,8.8
					c-10.5,2.9-5.7,22.1-3.4,30.7c3.9,14.4,7.3,66.5,7.3,66.5s-7.5,3.4-20.1,0.5c0,0-24.7-94-25.5-103.4
					c-0.8-9.3-1.2-24.8,59.6-36.5L817.3,610.2"/>
			</g>
			<g>
				<path class="st6" d="M785.2,445.3c0,0-20.2-4.9-15.6,22.4c4.6,27.3,9.5,29.4,21.6,23.8c12.2-5.6,11.1-23.1,11.7-31.7
					C803.6,451.2,791.7,445.6,785.2,445.3"/>
			</g>
			<g>
				<path class="st6" d="M780,505.3c0,0,8.9,9.9,23,0.9c0,0-3.1-21.4-1.5-31.8c1.7-10.4-18.4,16.1-18.4,16.1
					c0.3,0.1,0.4,1.1,0.5,2.6c0,1.2,0,2.7-0.2,4.2C783,500.8,782,504.5,780,505.3"/>
			</g>
			<g>
				<path class="st8" d="M802.5,473c0,0-0.5-8.3-3.5-8.6c-3-0.3-3.4,3.1-3.4,3.1l-3,0.6c0,0,0.9-7.3-2-8.5c-2.9-1.3-19.1,4-21.4,1.9
					c-2.4-2.1-1.3-16.9,3-18.9c4.3-2,16-6.5,24.7-0.5c0,0,6.7-0.8,7.7,4.8C805.7,452.4,804.3,468.8,802.5,473"/>
			</g>
			<g>
				<path class="st9" d="M783,498c14.9-4.7,16-13.9,16-14c-4.9,8.6-15.8,9.8-15.8,9.8C783.2,495.2,783.2,496.6,783,498"/>
			</g>
			<g>
				<path class="st6" d="M810,502.7c0,0-10.9,22.7-28.4,21.2c-17.5-1.5-3-24.3-2.2-24.5C780.3,499.2,797.4,494.8,810,502.7"/>
			</g>
			<g>
				<path class="st7" d="M732,609.7c0,0,52.9,6.6,85,1.1l-61.3-7.8C755.7,603,755.4,604.6,732,609.7"/>
			</g>
			<g>
				<path class="st7" d="M832.6,587c-0.8,1-11.3,5.4-23.1,10.2v0c-16.2,6.6-34.4,12.8-34.4,12.8l-4.1-9.4c0,0,19.1-10.9,32-18.6
					c6.1-3.6,10.8-6.5,11.5-7.2c2.1-2.1,2.6-5.4,1.1-11.2c-1.5-5.8-5-32.6-5.4-35.7c-0.4-3.1,1-11.4,8.4-11.9
					c7.4-0.4,11.2,1.8,11.2,1.8s1.9,0.8,3.2,19.8C834.3,556.5,834.5,584.7,832.6,587"/>
			</g>
			<g>
				<path class="st10" d="M815,556L815,556c-0.1,2.6-0.2,6.7-0.3,11c-8-18.8-3.4-33.7-3.3-34C810.5,538.1,814.9,555.7,815,556"/>
			</g>
			<g>
				<path class="st10" d="M758,562.3L758,562.3c-0.8,4.7-1.5,8.5-2,9.7c-2.2-12.7-0.2-29-0.2-29C756.1,550.8,758,562.3,758,562.3"/>
			</g>
			<g>
				<path class="st6" d="M810,597.1L810,597.1c-15.9,6.5-34.5,12.9-34.5,12.9l-3.5-9.5c0,0,18.8-10.9,31.5-18.5
					C803.5,582,808.2,584.4,810,597.1"/>
			</g>
			<g>
				<path class="st11" d="M770,611.1l-75-1.1l37.9,20L770,611.1"/>
			</g>
			<g>
				<path class="st12" d="M733,630l38-15.1V611l-41,15.2L733,630"/>
			</g>
			<g>
				<path class="st6" d="M768.4,602.8c0,0-4.7-0.8-8-1.6c-2.5-0.6-8.8,0.2-10.4,2c-1.6,1.7-6.7,13.8-7.7,14.5
					c-1,0.7,0.5,2.4,2.2,1.6c0,0,1.5,5.3,5.4,3.3c3.8-2,6.4-6.3,8.4-7c2-0.8,13.7-4.6,13.7-4.6S771.4,601.5,768.4,602.8"/>
			</g>
			<g>
				<path class="st12" d="M733,630l-22.5-65l-72.5,1.3l21.4,59.9L733,630"/>
			</g>
			<g>
				<path class="st6" d="M796.2,465.1c0.2-2.5,4.4-3.4,4.8,0.3c0.3,3.7-1.9,10.1-3.5,9.5C795.9,474.3,795.8,468.5,796.2,465.1"/>
			</g>
			<g>
				<path class="st6" d="M771.2,600l-4.2,2.2c0,0,1,6.8,3.3,8.8l4.7-1.2C775,609.8,774,602.3,771.2,600"/>
			</g>
			<g>
				<path class="st6" d="M750.6,602c0,0-3,1.5-3.8,2.2c-0.8,0.7-3.9,3.2-4.7,3.7c-0.8,0.6,1.2,2.2,6.8-0.3
					C754.6,605,750.6,602,750.6,602"/>
			</g>
		</g>
		<g>
			<g>
				<path class="st13" d="M1165,771.7l-0.1-209.6l-68.7,0l0-22.3l-94.5,0.1l0,22.3l-40.7,0l0.1,209.6L1165,771.7"/>
			</g>
			<g>
				<path class="st13" d="M975.1,567.8l9.9,0l-0.1-97l-9.9,0L975.1,567.8"/>
			</g>
			<g>
				<path class="st13" d="M1019,553.8l65,0l0-35l-65,0L1019,553.8"/>
			</g>
			<g>
				<path class="st13" d="M970,771.8l-64.9,0l-0.1-171l64.9,0L970,771.8"/>
			</g>
			<g>
				<path class="st13" d="M1438,771.8l-0.1-220.5l-29.6-38.1l0-59.5l-32.8,0l0-88.9l-15.4,0l0.2,407L1438,771.8"/>
			</g>
			<g>
				<path class="st13" d="M1382,771.8l-52.8,0l-0.2-329l50.9,0L1382,771.8"/>
			</g>
			<g>
				<path class="st13" d="M1165,561.8l-38,0l0-13l38,0L1165,561.8"/>
			</g>
			<g>
				<path class="st13" d="M1214,771.8l-54.9,0l-0.1-189l54.9,0L1214,771.8"/>
			</g>
			<g>
				<path class="st13" d="M1294,771.8l-81.8,0l-0.2-298.9l81.8-0.1L1294,771.8"/>
			</g>
			<g>
				<path class="st13" d="M1337,770.8l-54.8,0l-0.2-255l54.8,0L1337,770.8"/>
			</g>
			<g>
				<path class="st13" d="M1276,474.8l-47,0l0-17l47,0L1276,474.8"/>
			</g>
			<g>
				<path class="st13" d="M1219,474.8l-4,0l0-60l4,0L1219,474.8"/>
			</g>
			<g>
				<path class="st13" d="M900,360.3c0,7.5-6,13.5-13.5,13.5c-7.5,0-13.5-6-13.5-13.5c0-7.5,6-13.5,13.5-13.5
					C893.9,346.8,900,352.9,900,360.3"/>
			</g>
			<g>
				<path class="st13" d="M933,350.8c0,10.5-8.5,19-19,19c-10.5,0-19-8.5-19-19c0-10.5,8.5-19,19-19
					C924.5,331.8,933,340.3,933,350.8"/>
			</g>
			<g>
				<path class="st13" d="M944,364.8c0,5-4,9-9,9c-5,0-9-4-9-9l0,0c0-5,4-9,9-9C940,355.8,944,359.9,944,364.8"/>
			</g>
			<g>
				<path class="st13" d="M888,373.8l47,0c0,0-15.8-21.6-16.6-22c-0.8-0.4-30.4,17.4-30.4,17.4L888,373.8"/>
			</g>
			<g>
				<path class="st13" d="M1091,289.8c0,5.5-4.5,10-10,10c-5.5,0-10-4.5-10-10c0-5.5,4.5-10,10-10
					C1086.5,279.8,1091,284.3,1091,289.8"/>
			</g>
			<g>
				<path class="st13" d="M1116,282.8c0,7.7-6.3,14-14,14c-7.7,0-14-6.3-14-14c0-7.7,6.3-14,14-14
					C1109.7,268.8,1116,275.1,1116,282.8"/>
			</g>
			<g>
				<path class="st13" d="M1124,293.3c0,3.6-2.9,6.5-6.5,6.5c0,0,0,0,0,0c-3.6,0-6.5-2.9-6.5-6.5c0-3.6,2.9-6.5,6.5-6.5
					C1121.1,286.8,1124,289.7,1124,293.3C1124,293.3,1124,293.3,1124,293.3"/>
			</g>
			<g>
				<path class="st13" d="M1082,299.8l35,0c0,0-11.8-15.7-12.3-16c-0.6-0.3-22.7,12.7-22.7,12.7L1082,299.8"/>
			</g>
			<g>
				<path class="st14" d="M1435.2,765.8c3.2,0,5.8,2.6,5.8,5.7c0,3.2-2.6,5.7-5.8,5.7l-616.4,0.5c-3.2,0-5.8-2.6-5.8-5.7
					c0-3.2,2.6-5.7,5.8-5.7L1435.2,765.8"/>
			</g>
			<g>
				<path class="st15" d="M924.2,770.8l-31.7,0c-7.8-3.3-14.3-7.2-19.9-11.4l4.7-4.2l-6.8,2.5c-5.5-4.4-9.9-9.2-13.4-14.1l14.4-10.8
					l-18,5.4c-6.1-10.3-8.8-20.8-9.9-29.3l2.2-2.6l-2.4,0.3c-1-10,0.2-16.9,0.2-16.9s-0.4,7.9,18.5,12.5l-2,4.9l8-3.7
					c1.4,0.2,2.9,0.5,4.4,0.6c12.3,1.5,24.3,7.3,33.8,16.1l-5.6,4.1l8.3-1.5c7.6,7.9,13.1,17.9,15.1,29.2l-6.6,1.8l7.1,1.2
					C925.2,760.1,925.1,765.4,924.2,770.8"/>
			</g>
			<g>
				<path class="st16" d="M918.8,761.1l-5.2-1.5l5,5.4c-0.3,3.8-0.7,5.8-0.7,5.8l-31.4,0c-3.3-7.1-5.1-14.3-5.9-21.6l6.3-1.1
					l-6.7-2.8c-0.5-7.4,0-14.8,0.9-21.9l8.2-1.6l-7.4-4.1c1.4-8.6,3.3-16.7,4.8-24.1l6.1-1.8l-5.5-1.3c1.6-8.2,2.5-15.3,1.3-20.8
					c0,0,10.9,9,19.2,25l-4.5,2.2l5.6,0c3.3,6.7,6,14.4,7.4,23.2c1,6.1,1.7,12.2,2.1,18.3l-7.7,1.6l7.9,2.2
					C919.1,750,919,756.4,918.8,761.1"/>
			</g>
			<g>
				<path class="st17" d="M955.9,729.1l-8-1.7l7.6,8.8c-0.5,6.9-1.4,13.7-2.8,20.4l-5.1,0.5l4.4,2.7c-0.8,3.7-1.8,7.4-3,11.1
					l-41.6,0c-2.2-9.4-3.3-18-3.5-25.7l8.7-2.2l-8.7-2.1c0.5-18.3,6.2-32.1,13.9-43.3l16.9,2.1l-12.1-8.6c2-2.5,4.1-4.9,6.2-7.2
					c3.3-3.6,5.9-6.8,7.9-9.6l6.2,0l-4.2-3c6.1-9.6,5.3-14.4,5.3-14.4s3.9,9.5,7.2,24.7l-10.1,3.1l11.1,1.9
					C954.7,698.4,956.4,713.1,955.9,729.1"/>
			</g>
			<g>
				<path class="st18" d="M967.7,734.6l-5.2,0l5,2.5c-0.6,6-1.9,13.2-4.5,20.7l-3.5-2l2.3,5.3c-1.2,3.2-2.7,6.3-4.3,9.3L955,770
					l0.7,0.8l-21.7,0c0.3-4.8,1-9,2.1-12.7l4.5,0.2l-3.8-2.3c2.9-8.7,7.6-14.4,12.8-18.6l7.7,3.5l-4.5-5.9c1.3-0.9,2.6-1.7,4-2.5
					c2.1-1.2,3.8-2.4,5.1-3.5l2.9,0.9l-1.5-2c4.3-3.7,4.6-6.1,4.6-6.1S968.3,726.9,967.7,734.6"/>
			</g>
			<g>
				<path class="st19" d="M1460,578.1l-0.5-1.3c0,0-2.6,1.1-3.5,2.9l2.5,4.1L1460,578.1"/>
			</g>
			<g>
				<path class="st19" d="M1548,519.3l0.2-1.4c0,0,2.6,0.5,3.8,2.2l-1.3,4.8L1548,519.3"/>
			</g>
			<g>
				<path class="st20" d="M1048.4,625.8c-5.7,27.9-1.3,38.1,14.4,73.6l10.2,0.4l-5.1-70.8L1048.4,625.8"/>
			</g>
			<g>
				<path class="st21" d="M1059.2,689.8c0,0,1.3-38.9,5.1-40.9c3.8-1.9,4.7-3.9,4.7-3.9l-1.3-9.2c0,0-5.4-8.8-6.8-8
					c-1.4,0.7-7.8,4.1-7.5,6.2c0.3,2.1-7.4,26-7.4,26L1059.2,689.8"/>
			</g>
			<g>
				<path class="st22" d="M1075,767.7l0.3,6.2c0,0,14.6,0.2,17.7-3.6c0,0-11.6,0-14.7-3.1C1075.2,764,1075,767.7,1075,767.7"/>
			</g>
			<g>
				<path class="st20" d="M1063,698.2c0,0,0.2,21.3,2.1,27c1.9,5.7,9.1,41.6,9.1,41.6l3.8-0.2l-3.6-61c-0.2-3.1-0.9-6.1-2.2-8.9
					l-0.4-0.9L1063,698.2"/>
			</g>
			<g>
				<path class="st20" d="M1036.6,708.3l10.3,1.5l9-72.9l-21.6-9.1C1025.5,654.8,1028.5,668.8,1036.6,708.3z"/>
			</g>
			<g>
				<path class="st21" d="M1030,647.7c0,0,18,3.4,24.5,1.6l1.5-7.5l-25.1,1L1030,647.7"/>
			</g>
			<g>
				<path class="st22" d="M1024,769.3l-2,6.2c0,0,13.6,5.3,18,2.4c0,0-10.9-3.9-12.7-8.1C1025.5,765.6,1024,769.3,1024,769.3"/>
			</g>
			<g>
				<path class="st20" d="M1036.9,700.3c0,0-7.1,20.1-7.3,26.1c-0.2,6-5.7,42.2-5.7,42.2l3.6,1.2l20-64.1c1.5-4.9-2-9.8-7.1-9.9
					l-0.7,0L1036.9,700.3"/>
			</g>
			<g>
				<path class="st23" d="M1031,596.5l4,20.3c0,0-12.8,21.9-10.7,26.6c0,0.1,11.7,3.8,32.6,2.1l2.8-11.2l4,9.7
					c6.6,0,13.5-3.3,13.5-3.3l-10.9-26.1l3.4-24.7l-16.7-17l-4.1-0.9l-6.2,1.2L1031,596.5"/>
			</g>
			<g>
				<path class="st24" d="M1128.4,577.6c0,0,2.2-1.1,2.4-2.4c0.2-1.3,0.6-1.7,0.9-1c0.3,0.6,0.1,1.8,0.1,1.8s3.7-1.3,4.2-1
					c0.5,0.4-0.6,0.8-0.6,0.8s1.4-0.4,1.6-0.1c0.2,0.4-1,0.8-1,0.8s0.8-0.1,0.9,0.1c0.1,0.2-0.6,0.6-1.2,0.8c0,0,0.6-0.2,0.8,0.2
					c0.1,0.2-0.5,0.5-1.1,0.8c-1.6,0.7-3.3,2-5.3,1.4l-3,1.2L1128.4,577.6"/>
			</g>
			<g>
				<path class="st23" d="M1051,572.8c0,0,10.8,0,16.6,1.7c7.6,2.1,31.4,5.9,31.4,5.9l-1.5,10.9c-0.6,4.4-4.8,7.3-9.1,6.3l-22.5-5.2
					l-10.8-6.5L1051,572.8"/>
			</g>
			<g>
				<path class="st25" d="M1048,573.8l-4,2.2l4,5.7l4.3-3.5l2.4,3.5l2.4-4.3l-3.2-3.2L1048,573.8"/>
			</g>
			<g>
				<path class="st24" d="M1055.8,568.6l0.2,7.3c0,0-1.3,2.3-3.2,1.9c-3.5-0.8-3.5-3.2-3.5-3.2L1049,560l1.2-1.2L1055.8,568.6"/>
			</g>
			<g>
				<path class="st26" d="M1049.3,567.7c2.4,6.3,6.6,5,6.6,5l0.1-3.6l-7-6.3L1049.3,567.7"/>
			</g>
			<g>
				<path class="st24" d="M1064.9,554.5c0.6,8.9-3.1,18.6-9.9,17.2c0,0-5.4-1.3-6-9.4c-0.6-7.6,4.6-10.4,5.4-10.5
					C1055.2,551.7,1064.9,554.5,1064.9,554.5"/>
			</g>
			<g>
				<path class="st22" d="M1048.8,549.4c-6.5-4.4-11.2,0.9-10.7,6.5c0.5,5.6-3.1,4.3-3.1,4.3s7.1,5.1,11.1-3
					C1050.1,549.3,1048.8,549.4,1048.8,549.4"/>
			</g>
			<g>
				<path class="st24" d="M1051,550c-3.3-1.4-7.2,4.3-5.6,7.3C1047,560.2,1051,550,1051,550"/>
			</g>
			<g>
				<path class="st22" d="M1066,557.4c-0.1,2.9-9-0.8-9-0.8s-2.3,2.3-4.4,2.1l-1.7,3l-1.3,7.2c0,0-1-2.3-2.4-5.6
					c-0.9-2.1-1.5-4.7-0.7-7.5c2-7,7.8-8.7,12-7.5C1061.9,549.1,1065.7,551.6,1066,557.4"/>
			</g>
			<g>
				<path class="st24" d="M1050.7,559.6c-0.7-2.5-2.2-2.2-2.6-0.5c-0.4,1.7,0.1,5.5,1.8,4.5C1051.7,562.6,1050.7,559.6,1050.7,559.6
					"/>
			</g>
			<g>
				<path class="st25" d="M1128,578.5l1.3-0.7c0,0,1.1,2.4,0.5,4.4l-4.8,1.6L1128,578.5"/>
			</g>
			<g>
				<path class="st23" d="M1097.2,581l31.6-3.1l1.3,4.5l-29.5,11.7c-3.2,1.3-6.7,1.1-9.8-0.6c-3.5-1.9-5.7-5.5-5.8-9.4V584
					L1097.2,581"/>
			</g>
			<g>
				<path class="st27" d="M1353.3,684c-0.8,1.9-1.7,3.8-2.6,5.6c-33.1,68.9-115,100-185.9,69.5c-72.8-31.3-106.4-115.7-75.2-188.5
					c9.3-21.7,23.3-39.9,40.4-53.9c9.3-7.7,19.6-14.2,30.6-19.3c6.7-3.1,13.5-5.7,20.6-7.8c9.6-2.8,19.5-4.6,29.5-5.4
					c22.3-1.7,45.4,1.8,67.4,11.3c33.2,14.3,58.3,39.6,72.7,69.8C1368.1,601.4,1370.3,644.4,1353.3,684"/>
			</g>
			<g>
				<path class="st28" d="M1215.6,556.4c-1.6,3-7.2,2.3-11.6,1.7c-3.8-0.6-6.7-1.1-5.4,0.7c2.8,3.9-7,11.2-19.5,12.8
					c-12.4,1.6-22.5,18.9-35.8,13.7c-13.3-5.2-18.9,5.6-14.5,18.5c4.5,12.9,14.7,9.6,11.9,16.6c-2.9,7,0,10.4,2,12
					c2,1.6,2.9,4.3,2.9,4.3c1.4-1.9,9.7-5.7,19.9,2.9c10.2,8.6,14.3,20.7,20.1,27.8c5.8,7.2,19.6,18,14.5,26.1
					c-5,8.1-9.7,7.9-17.5,15.1c-7.8,7.1-30.9,15-39.9,20.2c-9,5.2-2.4,10.7-0.4,11.8c2,1.1-10.3-0.8-10.3-10.1
					c0-9.3,1.6-18,7.6-32.1c6-14.1-3.3-11.4-3.3-21.1c0-9.6-4.7-10.5-3.8-19.9c0.9-9.4,11.4-16.1,11.4-16.1s0-5.4-2.8-5
					c-2.8,0.3-6.8-12.5-6.8-12.5s-2.8-1.6-6.5-11.7c-3.7-10.1-17.1-8.7-13-17.4c4.1-8.6-5.6-16.3-6.7-31.8
					c-1-15.5-6.8-15.4,7.6-33.5l13.9-13.3c9.4-7.7,19.7-14.2,30.7-19.4c0.8,0.5,1.5,1.1,1.9,2c2.9,5.3,21.7,3.1,21.7,3.1
					s12.6,5,10,10.3c-2.6,5.3-21.7,4.3-28,9c-6.2,4.7,4.3,11.7,9.5,13.9c5.2,2.1,0.4,7.4,5.5,4.7c5.1-2.7,4.8-16.3,13.3-17.7
					c8.5-1.4,16.9,3.7,13.7,11.1C1204.5,540.5,1218.6,550.8,1215.6,556.4"/>
			</g>
			<g>
				<path class="st28" d="M1200.7,497.6c6.3,5.8,19.4,18.1,15,24.3c-4.5,6.2-14.6,1.6-13-5.2c1.5-6.7-1.1-12.8-10.8-15.5
					c-9.6-2.7-0.9-6-6.9-9.5c-1.3-0.8-2.7-1.6-4-2.4c9.7-2.9,19.6-4.7,29.7-5.4c3.7,0.6,6.8,1.3,8.5,2.1
					C1229.2,490.9,1194.4,491.8,1200.7,497.6"/>
			</g>
			<g>
				<path class="st28" d="M1353.2,683.4c-0.8,1.9-1.7,3.8-2.6,5.6l-7.5-1.9l-3.1-16l-1.8,8.3l1.9,12.1l-17.8,6.8l-2.4-25.6
					l-6.1,23.9c-0.5,1.9,0.7,3.9,2.7,4.3c2.9,0.6,3.8,4.4,1.5,6.2c-5.8,4.6-16.3,12.6-32.6,23.9c-27.3,18.8-36.2,7.2-28.4-7
					c7.8-14.2,20.7-31.3-2.1-34.3c-22.8-2.9-15.5-30.8-6.8-45c7.5-12.3,11.2-12.2,24.2-12.1c2,0,4.1,0,6.6,0
					c18.5-0.2,28.1,17.1,43,28.1l-6.5-12c0,0,1.9-21-8.5-25.5c-3.9-1.7-9.1-1.5-14.1-1.4c-8.3,0.2-15.7,0.4-14.9-7.7
					c1.4-13,5.5-17.2,29.5-13.7c23.9,3.5,32.6-7,32.6-7s-19.3,5.8-23-5.2c-3.8-11,25.6-25.4,25.6-25.4l8.2,2.1
					C1368.1,600.9,1370.3,643.9,1353.2,683.4"/>
			</g>
			<g>
				<path class="st28" d="M1308.4,638.4c3-8.2-7-12.7-11.6-11.3C1292.3,628.5,1307.4,641.2,1308.4,638.4"/>
			</g>
			<g>
				<path class="st28" d="M1285.4,593.9c5.3,3.6,11.3-4.6,9.2-7.5C1292.4,583.5,1283,592.3,1285.4,593.9"/>
			</g>
			<g>
				<path class="st28" d="M1294.8,553.3c1.4,6.4-5.7,8.9-12.7,3.7c-7-5.2-4.7-10.7,3.1-6.9C1293,553.9,1294.8,553.3,1294.8,553.3"/>
			</g>
			<g>
				<path class="st28" d="M1207.4,567.6c-6-5.4,9-4.9,9.6,1.3C1217.5,575.1,1210,569.9,1207.4,567.6"/>
			</g>
			<g>
				<path class="st29" d="M1337,712.8L1337,712.8c5.5-7.4,10.3-15.2,14.3-23.5c0.2-0.5,0.5-1,0.7-1.5
					C1347.9,696.7,1342.8,705,1337,712.8"/>
			</g>
			<g>
				<path class="st29" d="M1259,765.8"/>
			</g>
			<g>
				<path class="st29" d="M1282,756.8c21.4-9.8,40.4-24.7,55-44v0C1322.4,732.1,1303.4,747.1,1282,756.8"/>
			</g>
			<g>
				<path class="st30" d="M1250.9,767.7c0,0,0.1,0,0.1,0L1250.9,767.7 M1250.6,767.7C1250.6,767.7,1250.7,767.7,1250.6,767.7
					C1250.7,767.7,1250.6,767.7,1250.6,767.7 M1250.4,767.7L1250.4,767.7L1250.4,767.7 M1250.5,767.7L1250.5,767.7L1250.5,767.7z
					 M1250.3,767.8L1250.3,767.8C1250.3,767.8,1250.3,767.8,1250.3,767.8"/>
			</g>
			<g>
				<path class="st31" d="M1221.4,770.8c-18.9,0-38.2-3.8-56.7-11.7c-37.3-16-64.3-45.8-77.7-80.8c11.7,16.5,27.3,30.5,46.4,40.2
					c-0.8,4.2-1.1,8.1-1.1,12.1c0,7.8,8.6,10.4,10.2,10.4c0.3,0,0.4-0.1,0-0.3c-2-1.1-8.6-6.6,0.4-11.8c1.8-1,4.1-2.2,6.8-3.4
					c13.9,4.9,28.5,7.4,43.2,7.4c25.9,0,51.2-7.8,72.5-22.1c-2.2,4.5-5.2,9.3-7.6,13.8c-4.9,8.9-3.2,16.8,5.5,16.8
					c5.1,0,12.7-2.8,22.9-9.8c16.3-11.2,26.8-19.2,32.5-23.9c2.3-1.9,1.4-5.6-1.5-6.2c-1.9-0.4-3.1-2.3-2.7-4.2c0,0,0-0.1,0-0.1
					l6-23.9l2.4,25.6l17.7-6.8l-1.9-12.1l1.8-8.3l3,16l7.5,1.9c-4,8.3-8.8,16.3-14.4,23.7c-14.5,19.3-33.4,34.3-54.7,44.1
					c-7.5,3.4-15.2,6.2-23.2,8.4c-2.6,0.7-5.3,1.3-7.9,1.9h0l-0.1,0c0,0-0.1,0-0.1,0l-0.1,0c0,0-0.1,0-0.1,0c0,0-0.1,0-0.1,0l-0.1,0
					l-0.1,0c0,0,0,0,0,0c0,0-0.1,0-0.1,0c0,0,0,0,0,0c-0.1,0-0.1,0-0.1,0l0,0C1240.4,769.9,1230.9,770.8,1221.4,770.8"/>
			</g>
			<g>
				<path class="st32" d="M1142.9,740.8c-1.6,0-10-2.7-9.9-10.6c0-4.1,0.3-8.1,1.1-12.4c5.1,2.8,10.5,5.2,15.9,7.2
					c-2.6,1.2-4.9,2.4-6.6,3.5c-8.7,5.3-2.4,10.9-0.4,12C1143.3,740.7,1143.3,740.8,1142.9,740.8"/>
			</g>
			<g>
				<path class="st29" d="M1354.1,681c0-0.1,0.1-0.2,0.1-0.2C1354.2,680.9,1354.1,681,1354.1,681"/>
			</g>
			<g>
				<path class="st33" d="M1204,484.8c2.6-0.8,5.3-1.4,8-2v1.3c-0.3,0-0.6,0-0.9,0.1C1208.7,484.3,1206.3,484.5,1204,484.8"/>
			</g>
			<g>
				<path class="st29" d="M1336.1,540.9L1336.1,540.9C1336,540.9,1336,540.9,1336.1,540.9z M1364.9,622.9
					C1364.9,622.9,1364.9,622.8,1364.9,622.9L1364.9,622.9 M1364.9,621.6c-0.9-23.4-7.5-46.1-19.2-66.2c1.8,3.1,3.5,6.2,5,9.5
					C1359.3,582.6,1364.2,601.9,1364.9,621.6z M1354.2,680.8c7.3-17.7,10.8-36,10.8-54C1365,644.8,1361.5,663.2,1354.2,680.8"/>
			</g>
			<g>
				<path class="st29" d="M1273,492.8c-16.8-6.5-34.1-9.6-51.1-9.6c-3.3,0-6.6,0.1-9.9,0.3v-1.4c6.3-1.4,13-2.3,19.9-2.3
					c4.2,0,8.4,0.3,12.7,1c9.2,1.5,18.2,5.7,26.3,11.2C1271.6,492.3,1272.3,492.6,1273,492.8"/>
			</g>
			<g>
				<path class="st29" d="M1336.5,541.5c0,0-0.1-0.1-0.1-0.1C1336.5,541.4,1336.5,541.5,1336.5,541.5"/>
			</g>
			<g>
				<path class="st34" d="M1365,626.8L1365,626.8c0-1.3,0-2.7-0.1-4v0C1365,624.2,1365,625.5,1365,626.8"/>
			</g>
			<g>
				<path class="st32" d="M1186.5,515.8c-7.6-2.5-15.2-6-22.5-10.8c0,0,1.6-1.3,4.5-3.2c2.4,0.5,5.3,0.6,8,0.6
					c4.4,0,8.2-0.4,8.2-0.4s12.6,4.8,9.9,10C1193.7,513.9,1190.5,515,1186.5,515.8"/>
			</g>
			<g>
				<path class="st32" d="M1215.1,521.8c-4-0.3-7.9-0.8-11.9-1.5c-0.8-1.3-1-2.8-0.7-4.3c1.5-6.6-1.1-12.5-10.8-15.2
					c-9.6-2.6-1.1-5.8-6.7-9.2c5.4-2.6,11.5-5.1,18.2-7.1c2.4-0.3,4.9-0.5,7.4-0.7c3.7,0.6,6.8,1.3,8.5,2.1
					c10.1,4.8-24.9,5.7-18.5,11.4c6.4,5.7,19.6,17.8,15.1,23.8C1215.5,521.4,1215.3,521.6,1215.1,521.8"/>
			</g>
			<g>
				<path class="st32" d="M1263.1,740.8c-8.6,0-10.3-7.9-5.4-16.8c2.4-4.5,5.4-9.3,7.6-13.8c19.9-13.4,36.3-32.4,46.5-56.1
					c0.3-0.6,0.5-1.2,0.8-1.8c3.1,2.9,6.2,5.8,9.7,8.4l-6.5-12c0,0,0.2-2.4,0.1-5.7c4.2-14.1,4.8-28.4,2.5-41.9
					c15.9-0.4,21.9-7.7,21.9-7.7s-5.1,1.5-10.5,1.5c-5.1,0-10.6-1.4-12.4-6.7c-3.7-11,25.5-25.4,25.5-25.4l8.1,2.1
					c9.2,19.2,14.1,40.3,14.1,61.9v0c0,18-3.4,36.4-10.7,54.1v0l0,0.1c0,0,0,0.1,0,0.1c-0.3,0.8-0.6,1.5-0.9,2.3
					c-0.6,1.4-1.2,2.8-1.8,4.1c-0.2,0.5-0.5,1-0.7,1.5l-7.5-1.9l-3-16l-1.8,8.3l1.9,12.1l-17.7,6.8l-2.4-25.6l-6,23.9
					c-0.5,1.9,0.7,3.8,2.6,4.3c0,0,0.1,0,0.1,0c2.9,0.6,3.8,4.4,1.5,6.2c-5.8,4.6-16.2,12.6-32.5,23.9
					C1275.9,738,1268.3,740.8,1263.1,740.8"/>
			</g>
			<g>
				<path class="st27" d="M1353.3,684c-0.8,1.9-1.7,3.8-2.6,5.6c-33.1,68.9-115,100-185.9,69.5c-72.8-31.3-106.4-115.7-75.2-188.5
					c9.3-21.7,23.3-39.9,40.4-53.9c9.3-7.7,19.6-14.2,30.6-19.3c6.7-3.1,13.5-5.7,20.6-7.8c9.6-2.8,19.5-4.6,29.5-5.4
					c22.3-1.7,45.4,1.8,67.4,11.3c33.2,14.3,58.3,39.6,72.7,69.8C1368.1,601.4,1370.3,644.4,1353.3,684"/>
			</g>
			<g>
				<path class="st28" d="M1215.6,556.4c-1.6,3-7.2,2.3-11.6,1.7c-3.8-0.6-6.7-1.1-5.4,0.7c2.8,3.9-7,11.2-19.5,12.8
					c-12.4,1.6-22.5,18.9-35.8,13.7c-13.3-5.2-18.9,5.6-14.5,18.5c4.5,12.9,14.7,9.6,11.9,16.6c-2.9,7,0,10.4,2,12
					c2,1.6,2.9,4.3,2.9,4.3c1.4-1.9,9.7-5.7,19.9,2.9c10.2,8.6,14.3,20.7,20.1,27.8c5.8,7.2,19.6,18,14.5,26.1
					c-5,8.1-9.7,7.9-17.5,15.1c-7.8,7.1-30.9,15-39.9,20.2c-9,5.2-2.4,10.7-0.4,11.8c2,1.1-10.3-0.8-10.3-10.1
					c0-9.3,1.6-18,7.6-32.1c6-14.1-3.3-11.4-3.3-21.1c0-9.6-4.7-10.5-3.8-19.9c0.9-9.4,11.4-16.1,11.4-16.1s0-5.4-2.8-5
					c-2.8,0.3-6.8-12.5-6.8-12.5s-2.8-1.6-6.5-11.7c-3.7-10.1-17.1-8.7-13-17.4c4.1-8.6-5.6-16.3-6.7-31.8
					c-1-15.5-6.8-15.4,7.6-33.5l13.9-13.3c9.4-7.7,19.7-14.2,30.7-19.4c0.8,0.5,1.5,1.1,1.9,2c2.9,5.3,21.7,3.1,21.7,3.1
					s12.6,5,10,10.3c-2.6,5.3-21.7,4.3-28,9c-6.2,4.7,4.3,11.7,9.5,13.9c5.2,2.1,0.4,7.4,5.5,4.7c5.1-2.7,4.8-16.3,13.3-17.7
					c8.5-1.4,16.9,3.7,13.7,11.1C1204.5,540.5,1218.6,550.8,1215.6,556.4"/>
			</g>
			<g>
				<path class="st28" d="M1200.7,497.6c6.3,5.8,19.4,18.1,15,24.3c-4.5,6.2-14.6,1.6-13-5.2c1.5-6.7-1.1-12.8-10.8-15.5
					c-9.6-2.7-0.9-6-6.9-9.5c-1.3-0.8-2.7-1.6-4-2.4c9.7-2.9,19.6-4.7,29.7-5.4c3.7,0.6,6.8,1.3,8.5,2.1
					C1229.2,490.9,1194.4,491.8,1200.7,497.6"/>
			</g>
			<g>
				<path class="st28" d="M1353.2,683.4c-0.8,1.9-1.7,3.8-2.6,5.6l-7.5-1.9l-3.1-16l-1.8,8.3l1.9,12.1l-17.8,6.8l-2.4-25.6
					l-6.1,23.9c-0.5,1.9,0.7,3.9,2.7,4.3c2.9,0.6,3.8,4.4,1.5,6.2c-5.8,4.6-16.3,12.6-32.6,23.9c-27.3,18.8-36.2,7.2-28.4-7
					c7.8-14.2,20.7-31.3-2.1-34.3c-22.8-2.9-15.5-30.8-6.8-45c7.5-12.3,11.2-12.2,24.2-12.1c2,0,4.1,0,6.6,0
					c18.5-0.2,28.1,17.1,43,28.1l-6.5-12c0,0,1.9-21-8.5-25.5c-3.9-1.7-9.1-1.5-14.1-1.4c-8.3,0.2-15.7,0.4-14.9-7.7
					c1.4-13,5.5-17.2,29.5-13.7c23.9,3.5,32.6-7,32.6-7s-19.3,5.8-23-5.2c-3.8-11,25.6-25.4,25.6-25.4l8.2,2.1
					C1368.1,600.9,1370.3,643.9,1353.2,683.4"/>
			</g>
			<g>
				<path class="st28" d="M1308.4,638.4c3-8.2-7-12.7-11.6-11.3C1292.3,628.5,1307.4,641.2,1308.4,638.4"/>
			</g>
			<g>
				<path class="st28" d="M1285.4,593.9c5.3,3.6,11.3-4.6,9.2-7.5C1292.4,583.5,1283,592.3,1285.4,593.9"/>
			</g>
			<g>
				<path class="st28" d="M1294.8,553.3c1.4,6.4-5.7,8.9-12.7,3.7c-7-5.2-4.7-10.7,3.1-6.9C1293,553.9,1294.8,553.3,1294.8,553.3"/>
			</g>
			<g>
				<path class="st28" d="M1207.4,567.6c-6-5.4,9-4.9,9.6,1.3C1217.5,575.1,1210,569.9,1207.4,567.6"/>
			</g>
			<g>
				<path class="st29" d="M1337,712.8L1337,712.8c5.5-7.4,10.3-15.2,14.3-23.5c0.2-0.5,0.5-1,0.7-1.5
					C1347.9,696.7,1342.8,705,1337,712.8"/>
			</g>
			<g>
				<path class="st29" d="M1259,765.8"/>
			</g>
			<g>
				<path class="st29" d="M1282,756.8c21.4-9.8,40.4-24.7,55-44v0C1322.4,732.1,1303.4,747.1,1282,756.8"/>
			</g>
			<g>
				<path class="st30" d="M1250.9,767.7c0,0,0.1,0,0.1,0L1250.9,767.7 M1250.6,767.7C1250.6,767.7,1250.7,767.7,1250.6,767.7
					C1250.7,767.7,1250.6,767.7,1250.6,767.7 M1250.4,767.7L1250.4,767.7L1250.4,767.7 M1250.5,767.7L1250.5,767.7L1250.5,767.7z
					 M1250.3,767.8L1250.3,767.8C1250.3,767.8,1250.3,767.8,1250.3,767.8"/>
			</g>
			<g>
				<path class="st31" d="M1221.4,770.8c-18.9,0-38.2-3.8-56.7-11.7c-37.3-16-64.3-45.8-77.7-80.8c11.7,16.5,27.3,30.5,46.4,40.2
					c-0.8,4.2-1.1,8.1-1.1,12.1c0,7.8,8.6,10.4,10.2,10.4c0.3,0,0.4-0.1,0-0.3c-2-1.1-8.6-6.6,0.4-11.8c1.8-1,4.1-2.2,6.8-3.4
					c13.9,4.9,28.5,7.4,43.2,7.4c25.9,0,51.2-7.8,72.5-22.1c-2.2,4.5-5.2,9.3-7.6,13.8c-4.9,8.9-3.2,16.8,5.5,16.8
					c5.1,0,12.7-2.8,22.9-9.8c16.3-11.2,26.8-19.2,32.5-23.9c2.3-1.9,1.4-5.6-1.5-6.2c-1.9-0.4-3.1-2.3-2.7-4.2c0,0,0-0.1,0-0.1
					l6-23.9l2.4,25.6l17.7-6.8l-1.9-12.1l1.8-8.3l3,16l7.5,1.9c-4,8.3-8.8,16.3-14.4,23.7c-14.5,19.3-33.4,34.3-54.7,44.1
					c-7.5,3.4-15.2,6.2-23.2,8.4c-2.6,0.7-5.3,1.3-7.9,1.9h0l-0.1,0c0,0-0.1,0-0.1,0l-0.1,0c0,0-0.1,0-0.1,0c0,0-0.1,0-0.1,0l-0.1,0
					l-0.1,0c0,0,0,0,0,0c0,0-0.1,0-0.1,0c0,0,0,0,0,0c-0.1,0-0.1,0-0.1,0l0,0C1240.4,769.9,1230.9,770.8,1221.4,770.8"/>
			</g>
			<g>
				<path class="st32" d="M1142.9,740.8c-1.6,0-10-2.7-9.9-10.6c0-4.1,0.3-8.1,1.1-12.4c5.1,2.8,10.5,5.2,15.9,7.2
					c-2.6,1.2-4.9,2.4-6.6,3.5c-8.7,5.3-2.4,10.9-0.4,12C1143.3,740.7,1143.3,740.8,1142.9,740.8"/>
			</g>
			<g>
				<path class="st29" d="M1354.1,681c0-0.1,0.1-0.2,0.1-0.2C1354.2,680.9,1354.1,681,1354.1,681"/>
			</g>
			<g>
				<path class="st33" d="M1204,484.8c2.6-0.8,5.3-1.4,8-2v1.3c-0.3,0-0.6,0-0.9,0.1C1208.7,484.3,1206.3,484.5,1204,484.8"/>
			</g>
			<g>
				<path class="st29" d="M1336.1,540.9L1336.1,540.9C1336,540.9,1336,540.9,1336.1,540.9z M1364.9,622.9
					C1364.9,622.9,1364.9,622.8,1364.9,622.9L1364.9,622.9 M1364.9,621.6c-0.9-23.4-7.5-46.1-19.2-66.2c1.8,3.1,3.5,6.2,5,9.5
					C1359.3,582.6,1364.2,601.9,1364.9,621.6z M1354.2,680.8c7.3-17.7,10.8-36,10.8-54C1365,644.8,1361.5,663.2,1354.2,680.8"/>
			</g>
			<g>
				<path class="st29" d="M1273,492.8c-16.8-6.5-34.1-9.6-51.1-9.6c-3.3,0-6.6,0.1-9.9,0.3v-1.4c6.3-1.4,13-2.3,19.9-2.3
					c4.2,0,8.4,0.3,12.7,1c9.2,1.5,18.2,5.7,26.3,11.2C1271.6,492.3,1272.3,492.6,1273,492.8"/>
			</g>
			<g>
				<path class="st29" d="M1336.5,541.5c0,0-0.1-0.1-0.1-0.1C1336.5,541.4,1336.5,541.5,1336.5,541.5"/>
			</g>
			<g>
				<path class="st34" d="M1365,626.8L1365,626.8c0-1.3,0-2.7-0.1-4v0C1365,624.2,1365,625.5,1365,626.8"/>
			</g>
			<g>
				<path class="st32" d="M1186.5,515.8c-7.6-2.5-15.2-6-22.5-10.8c0,0,1.6-1.3,4.5-3.2c2.4,0.5,5.3,0.6,8,0.6
					c4.4,0,8.2-0.4,8.2-0.4s12.6,4.8,9.9,10C1193.7,513.9,1190.5,515,1186.5,515.8"/>
			</g>
			<g>
				<path class="st32" d="M1215.1,521.8c-4-0.3-7.9-0.8-11.9-1.5c-0.8-1.3-1-2.8-0.7-4.3c1.5-6.6-1.1-12.5-10.8-15.2
					c-9.6-2.6-1.1-5.8-6.7-9.2c5.4-2.6,11.5-5.1,18.2-7.1c2.4-0.3,4.9-0.5,7.4-0.7c3.7,0.6,6.8,1.3,8.5,2.1
					c10.1,4.8-24.9,5.7-18.5,11.4c6.4,5.7,19.6,17.8,15.1,23.8C1215.5,521.4,1215.3,521.6,1215.1,521.8"/>
			</g>
			<g>
				<path class="st32" d="M1263.1,740.8c-8.6,0-10.3-7.9-5.4-16.8c2.4-4.5,5.4-9.3,7.6-13.8c19.9-13.4,36.3-32.4,46.5-56.1
					c0.3-0.6,0.5-1.2,0.8-1.8c3.1,2.9,6.2,5.8,9.7,8.4l-6.5-12c0,0,0.2-2.4,0.1-5.7c4.2-14.1,4.8-28.4,2.5-41.9
					c15.9-0.4,21.9-7.7,21.9-7.7s-5.1,1.5-10.5,1.5c-5.1,0-10.6-1.4-12.4-6.7c-3.7-11,25.5-25.4,25.5-25.4l8.1,2.1
					c9.2,19.2,14.1,40.3,14.1,61.9v0c0,18-3.4,36.4-10.7,54.1v0l0,0.1c0,0,0,0.1,0,0.1c-0.3,0.8-0.6,1.5-0.9,2.3
					c-0.6,1.4-1.2,2.8-1.8,4.1c-0.2,0.5-0.5,1-0.7,1.5l-7.5-1.9l-3-16l-1.8,8.3l1.9,12.1l-17.7,6.8l-2.4-25.6l-6,23.9
					c-0.5,1.9,0.7,3.8,2.6,4.3c0,0,0.1,0,0.1,0c2.9,0.6,3.8,4.4,1.5,6.2c-5.8,4.6-16.2,12.6-32.5,23.9
					C1275.9,738,1268.3,740.8,1263.1,740.8"/>
			</g>
			<g>
				<path class="st32" d="M1295,553.8c-0.3-0.3-0.7-0.7-1-1c0.1,0,0.3,0,0.4,0c0.3,0,0.4,0,0.4,0
					C1294.9,553.2,1295,553.5,1295,553.8"/>
			</g>
			<g>
				<path class="st35" d="M1356,770.8h-102.1c-1.9-2.3-3.8-4.6-4.9-6.1c0.7-2.5,1.6-5.1,2.8-7.7l5.3,9.5L1254,753
					c1-1.7,2-3.3,3.2-4.9c3.5,8,8.9,20.4,8.7,19.7c-0.2-0.7-3-14.2-5.1-24.2c1.4-1.5,2.8-3,4.3-4.4l2.5,8.3l-1.4-9.3
					c0.9-0.8,1.9-1.6,2.9-2.4l6.7,20.9l-2.6-23.8c2.9-1.9,5.9-3.5,9.1-4.9l2.1,22.7l3-24.6c3.2-1,6.6-1.7,10-2v22.5l4.4-22.7h0.2
					c2.9,0,5.7,0.3,8.5,0.8c-0.4,6.7-0.8,14.1-0.6,13.7c0.1-0.3,1.4-6.8,2.7-13.3c2.7,0.6,5.4,1.4,8,2.5l-4.2,32.8l7.9-31.1
					c2.1,1,4.1,2.2,6,3.4l-5.5,16.9l8.1-15.1c1.8,1.3,3.5,2.7,5.2,4.2l-1.7,5.7l3-4.5c1.1,1.1,2.2,2.2,3.2,3.3
					c-2.6,8.1-6.4,20.4-6.1,20.2c0.3-0.2,6.2-10.3,9.5-16.1c1.3,1.7,2.5,3.5,3.5,5.2l-7,10.8l9.1-6.9
					C1354.1,761.1,1355.6,766.1,1356,770.8"/>
			</g>
			<g>
				<path class="st36" d="M1280,770.8h-64.9c-1.1-1.3-2.1-2.6-3.1-3.9c0.4-1.6,1-3.3,1.8-4.9l3.4,6.1l-2-8.7c0.6-1.1,1.3-2.1,2-3.1
					c2.2,5.1,5.7,13,5.5,12.5c-0.1-0.4-1.9-9.1-3.2-15.4c0.9-1,1.8-1.9,2.8-2.8l1.6,5.3l-0.9-5.9c0.6-0.5,1.2-1,1.8-1.5l4.3,13.3
					l-1.7-15.2c1.8-1.2,3.8-2.3,5.8-3.1l1.3,14.5l1.9-15.7c2.1-0.6,4.2-1.1,6.3-1.3v14.4l2.8-14.5h0.1c1.8,0,3.6,0.2,5.4,0.5
					c-0.3,4.3-0.5,9-0.4,8.8c0.1-0.2,0.9-4.4,1.7-8.5c1.7,0.4,3.4,0.9,5.1,1.6l-2.7,20.9l5-19.9c1.3,0.6,2.6,1.4,3.8,2.2l-3.5,10.8
					l5.2-9.6c1.1,0.8,2.2,1.7,3.3,2.7l-1.1,3.6l1.9-2.9c0.7,0.7,1.4,1.4,2,2.1c-1.6,5.2-4,13-3.8,12.9c0.2-0.1,3.9-6.6,6-10.3
					c0.8,1.1,1.6,2.2,2.3,3.3l-4.5,6.9l5.8-4.4C1278.8,764.6,1279.7,767.8,1280,770.8"/>
			</g>
			<g>
				<path class="st24" d="M1111.1,624.3c0,0,2.7,0.3,3.6-0.7c0.9-1,1.5-1,1.4-0.3c-0.1,0.7-0.9,1.5-0.9,1.5s4.1,1,4.3,1.5
					c0.2,0.6-1,0.3-1,0.3s1.5,0.4,1.5,0.9c0,0.5-1.3,0.1-1.3,0.1s0.8,0.4,0.7,0.6c-0.1,0.2-0.9,0.2-1.5,0c0,0,0.7,0.2,0.6,0.6
					c-0.1,0.2-0.8,0.1-1.5,0c-1.9-0.3-4.1-0.1-5.5-1.8l-3.4-0.7L1111.1,624.3"/>
			</g>
			<g>
				<path class="st25" d="M1110.6,623.8l1.4,0.1c0,0-0.5,2.6-2.1,3.9l-4.9-1.2L1110.6,623.8"/>
			</g>
			<g>
				<path class="st23" d="M1110,623.3l-1.4,4.5l-33.7-6.3c-2.2-0.4-4.3-1.6-5.8-3.2l-3.1-3.4l4.9-10.1L1110,623.3"/>
			</g>
			<g>
				<path class="st23" d="M1043.3,572.9c5.3-1.1,11,5.4,17.2,13c5,6.1,15.5,21.4,15.5,21.4l-9.5,7.5l-17.6-13.6l-16.2-4.4
					C1032.6,596.8,1024.8,576.7,1043.3,572.9"/>
			</g>
			<g>
				<path class="st24" d="M1387.9,561.4l-0.9,6.2c0,0,0.6,2.5,2.5,2.3c2.2-0.3,4.2-2.4,4.2-2.4l1.3-12.3l-1.1-1.2L1387.9,561.4"/>
			</g>
			<g>
				<path class="st26" d="M1394.2,562.8c-2.7,3-6.2,1.8-6.2,1.8l0.2-3.3l6.8-4.5L1394.2,562.8"/>
			</g>
			<g>
				<path class="st24" d="M1382.6,546.4c-4.1,8.1,0.2,19.6,8,18.4c0,0,6-0.9,6.4-8.1c0.4-7.2-3.2-10.5-3.9-10.8
					C1392.4,545.6,1382.6,546.4,1382.6,546.4"/>
			</g>
			<g>
				<path class="st37" d="M1393,547.3c0,0-9.2,0.7-12-2c-2.7-2.8,0.2-7.5,3.9-8.3c3.7-0.8,8.5,2.4,6.9,4.7c0,0,7.2-0.4,8.9,6.8
					c1.7,7.2-4.1,11.3-4.1,11.3l0.4-4.1l-0.2-3.9l-1,1.4L1393,547.3"/>
			</g>
			<g>
				<path class="st37" d="M1383,545.5l0.2,8.8c0,0,0.8-3.2,2-2.9c1.2,0.3,0.6,4.4,1.1,5.9c0.5,1.4,5.3,7.5,10,2.7
					c4.7-4.8,1.9-13,1.9-13l-5.8-3.2L1383,545.5"/>
			</g>
			<g>
				<path class="st24" d="M1384.1,552.9c0.3-2.6,1.8-2.6,2.5-0.9c0.7,1.7,0.7,5.5-1.2,4.7S1384.1,552.9,1384.1,552.9"/>
			</g>
			<g>
				<path class="st38" d="M1407,618.8c8.2,25.8,5.4,33.8-2.1,71.6l-9.6,1.4l-8.4-64.3L1407,618.8"/>
			</g>
			<g>
				<path class="st39" d="M1398.1,622.8c4.1,26.6-5.9,33.4-21.4,67l-9.7-0.1l5.3-61.5L1398.1,622.8"/>
			</g>
			<g>
				<path class="st40" d="M1371,647.6c3.5,2.3,11.8,6.8,19.7,5.9c1.3-0.2,2.6-0.5,3.8-0.9l-2.9,8.1l0,0.2c5.4-10.9,8.2-19.1,7.2-32
					l-11.1,1.8l-11.8,1.9l-3.9,4.1L1371,647.6"/>
			</g>
			<g>
				<path class="st40" d="M1391,660.6l0.6,4.3c6.3-7.1,8.2-16.1,10.5-16.3c2.2-0.3,7.4-1,10-2.2c0.1-5-0.5-9.8-1.7-15.2l-11-2.3
					l-0.9,0.1C1399.4,641.7,1396.5,649.8,1391,660.6"/>
			</g>
			<g>
				<path class="st22" d="M1419.8,759.1l2.2,5.8c0,0-12.7,5.7-17,3.3c0,0,10.2-4.3,11.6-8.4C1418.1,755.8,1419.8,759.1,1419.8,759.1
					"/>
			</g>
			<g>
				<path class="st38" d="M1404.8,690.8c0,0,6.9,22.5,7.4,28.2c0.5,5.7,7.8,39.5,7.8,39.5l-3.4,1.3l-21.6-63.6l0.1-5.4L1404.8,690.8
					"/>
			</g>
			<g>
				<path class="st41" d="M1387,627.3l0.4,3.1l11.5-1.7l0.9-0.1l11.2,2.3c-0.8-3.6-2-7.5-3.4-12l-9.4,3.9L1387,627.3"/>
			</g>
			<g>
				<path class="st23" d="M1387.8,630.8l11.2-1.8c-0.2-2.1-0.4-4.1-0.7-6.2l-25.6,5.5l-0.7,8.5l4-4.1L1387.8,630.8"/>
			</g>
			<g>
				<path class="st22" d="M1380.8,760.3l1.2,5.8c0,0-13.2,3.5-17,0.5c0,0,10.5-2.5,12.6-6.2C1379.7,756.9,1380.8,760.3,1380.8,760.3
					"/>
			</g>
			<g>
				<path class="st39" d="M1376.2,690.5c0,0,3.9,23.4,3.5,29.1c-0.4,5.7,1.3,40.5,1.3,40.5l-3.5,0.8l-11.5-66.7l0.9-5.3
					L1376.2,690.5"/>
			</g>
			<g>
				<path class="st42" d="M1369.7,582.5l1.3,28.8c0,0-5.6,26.7-3.6,31.2c0,0.1,13.8,5.7,33.5,4l2.6-10.6l3.8,9.2
					c6.2,0,12.7-3.1,12.7-3.1l-6.2-30.6l-3.2-26.2c-0.9-7.4-5.3-13.8-11.8-17.4l-1.6-0.8c0,0-3.8-1.1-5.1-1.1
					c-1.2,0.1-4.7,1.4-4.7,1.4L1369.7,582.5"/>
			</g>
			<g>
				<path class="st42" d="M1388.7,567c0,0-1.4,0.4-7.4-1.1c-7.3-1.9-29.2-7-29.2-7l-9.1,14.5l46.1,21.5l3.2-10.4
					c1.1-3.5,0.9-7.3-0.6-10.7L1388.7,567"/>
			</g>
			<g>
				<path class="st43" d="M1369,584.8l14,7l-13.8-3.5L1369,584.8"/>
			</g>
			<g>
				<path class="st24" d="M1318.6,543.4c0,0-1.8-1.7-1.6-2.9c0.2-1.2-0.1-1.7-0.5-1.2c-0.4,0.5-0.6,1.6-0.6,1.6s-3.1-2.3-3.6-2.1
					c-0.5,0.2,0.4,0.9,0.4,0.9s-1.2-0.8-1.5-0.5c-0.3,0.3,0.7,1,0.7,1s-0.7-0.3-0.8-0.1c-0.1,0.2,0.4,0.8,0.9,1.1c0,0-0.5-0.4-0.7,0
					c-0.1,0.2,0.4,0.6,0.9,1c1.3,1.1,2.5,2.8,4.5,2.8l2.4,1.9L1318.6,543.4"/>
			</g>
			<g>
				<path class="st19" d="M1318.7,542.8l-1-1c0,0-1.7,2.1-1.7,4.2l4,2.8L1318.7,542.8"/>
			</g>
			<g>
				<path class="st42" d="M1318.4,542.8l-2.4,3.8l23.5,23.5c1.6,1.6,3.6,2.7,5.7,3.3c4.8,1.7,9.9-1.5,10.2-6.5l0.5-7L1318.4,542.8"
					/>
			</g>
			<g>
				<path class="st44" d="M1071,624.8l-21-23l16.5,12.6L1071,624.8"/>
			</g>
			<g>
				<path class="st44" d="M1066,614.8l-16.3-12.2l-1.7-1.8L1066,614.8"/>
			</g>
		</g>
		<g transform="rotate(210 1320.5 66.5)">
			<g>
				<defs>
					<path id="SVGID_2_" d="M1245.1-21.8c50.9-40.4,195.9,0,195.9,0s-165.1,163-195.9,137.3C1214.3,89.8,1194.2,18.7,1245.1-21.8z"
						/>
				</defs>
				<clipPath id="SVGID_3_">
					<use xlink:href="#SVGID_2_"  style="overflow:visible;"/>
				</clipPath>
				<g class="st45">
					<g transform="translate(1199)">
						<g>
							
								<image style="overflow:visible;enable-background:new    ;" width="200" height="200" id="_x38_1n3c" xlink:href="ED5C928F8A6F2DF5.png"  transform="matrix(1 0 0 1 4.105281e-04 -2.203837e-04)">
							</image>
						</g>
						<g transform="translate(200)">
							
								<image style="overflow:visible;enable-background:new    ;" width="200" height="200" id="_x38_1n3c_1_" xlink:href="ED5C928F8A6F2DF7.png"  transform="matrix(1 0 0 1 200.0005 -2.592078e-04)">
							</image>
						</g>
					</g>
				</g>
			</g>
		</g>
	</g>
</g>
</svg>
