<?xml version="1.0" encoding="utf-8"?>
<!-- Generator: Adobe Illustrator 20.1.0, SVG Export Plug-In . SVG Version: 6.00 Build 0)  -->
<svg version="1.1" id="Слой_1" xmlns="http://www.w3.org/2000/svg" xmlns:xlink="http://www.w3.org/1999/xlink" x="0px" y="0px"
	 viewBox="0 0 414 896" style="enable-background:new 0 0 414 896;" xml:space="preserve">
<style type="text/css">
	.st0{fill:url(#SVGID_1_);}
	.st1{fill:url(#SVGID_2_);}
	.st2{fill:#FFFFFE;}
	.st3{fill:#D2CBBB;}
	.st4{fill:#243A62;}
	.st5{fill:#E39C7C;}
	.st6{fill:#73C5C6;}
	.st7{fill:#DEDFD9;}
	.st8{fill:#30363A;}
	.st9{fill:#916B58;}
	.st10{fill:#B7954D;}
	.st11{fill:#3C4D87;}
	.st12{fill:#2B345B;}
	.st13{fill:#E9EFF4;}
	.st14{fill:#D1E9F2;}
	.st15{fill:#E296AF;}
	.st16{fill:#B56983;}
	.st17{fill:#D17993;}
	.st18{fill:#7E508E;}
	.st19{fill:#FCF3F2;}
	.st20{fill:#D86161;}
	.st21{fill:#C15656;}
	.st22{fill:#4F2F5B;}
	.st23{fill:#F4AF5D;}
	.st24{fill:#FFCEBF;}
	.st25{fill:#EFF6F2;}
	.st26{fill:#E5A495;}
	.st27{fill:#10739B;}
	.st28{fill:#A3C4D4;}
	.st29{fill:#A3C1D2;}
	.st30{fill:#92BCD0;}
	.st31{fill:#0B5D85;}
	.st32{fill:#729EB6;}
	.st33{fill:#B2CEDB;}
	.st34{fill:#898BB3;}
	.st35{fill:#729B78;}
	.st36{fill:#8AB592;}
	.st37{fill:#4E2649;}
	.st38{fill:#447BCC;}
	.st39{fill:#3A8EC1;}
	.st40{fill:#3E71AF;}
	.st41{fill:#F4976E;}
	.st42{fill:#F76374;}
	.st43{fill:#775464;}
	.st44{fill:#EB965E;}
</style>
<g>
	<g>
		
			<linearGradient id="SVGID_1_" gradientUnits="userSpaceOnUse" x1="410.0043" y1="673.0336" x2="48.6543" y2="-134.8463" gradientTransform="matrix(1 0 0 -1 0 893.89)">
			<stop  offset="0" style="stop-color:#D2CBBB"/>
			<stop  offset="1" style="stop-color:#FD8278"/>
		</linearGradient>
		<path class="st0" d="M0,896h413c0,0,1-451.1,1-516.5c0-14.9-70-104.2-145.5-33.7c-43,9.6-66.5,75.9-128.5,98.5S0,455.7,0,455.7
			V896z"/>
	</g>
	<g>
		
			<linearGradient id="SVGID_2_" gradientUnits="userSpaceOnUse" x1="395.9301" y1="955.1805" x2="14.6901" y2="504.3405" gradientTransform="matrix(1 0 0 -1 0 893.89)">
			<stop  offset="0" style="stop-color:#D2CBBB"/>
			<stop  offset="1" style="stop-color:#FD8278"/>
		</linearGradient>
		<path class="st1" d="M-9.9,322h435.7l1.1-321.7L-9.9,0V322z"/>
	</g>
	<g>
		<path class="st2" d="M414,329c0,0-414,12-414-5c0-32,122.7,14.8,171.3-98.7C219.8,111.8,315.9,97.1,413.5,164L414,329z"/>
	</g>
	<g>
		<path class="st2" d="M197.9,141.4c-16.4,15.8-30,36.2-40.7,60.6c-28,64.3-67.3,72.4-109,81C12.7,290.3,3,295.1,3,295.1v1.9
			c0,0,10.3-5.3,45.6-12.5c42-8.7,81.7-16.8,110-81.8c20.8-47.7,52.3-78.9,93.6-92.6c46.6-15.4,103.5-7.1,161.8,23.4v-1.7
			c-58.4-30.4-115.5-38.7-162.2-23.2C231.6,115.3,213.5,126.4,197.9,141.4L197.9,141.4z"/>
	</g>
	<g>
		<g>
			<path class="st3" d="M116,313.8c0,46.5-1.2,55.5-12.3,66c-4.3,4.1-12.3,12.5-35.2,16.8c-6.9,1.3-15.1,2.1-25,2.4
				c-4,0.1-7.7,0-11.1-0.4c-2.8-0.3-5.5-0.8-7.9-1.5c-25.2-6.7-27.1-29.5-16.1-48.7c2.9-5.1,6.3-9.8,9.8-14.1
				c5.4-6.7,11.2-12.7,16.4-18.3c4.8-5.1,9.2-9.9,12.4-14.7c1.3-2,2.5-4,3.3-6c2.7-6.1,5.9-12,9.7-17.5c3.2-4.7,5.6-7.3,5.6-7.3
				c2.8-1.4,10.2-4.1,18-4.4C98.1,265.5,116,273,116,313.8"/>
		</g>
		<g>
			<path class="st4" d="M61.8,393.4c0,0,0.4,3.1,0.9,4.5c0.5,1.4,3.2,4.6,2,7.6c-1.2,3.3-6.6,0.1-8.8-0.9c-2.2-1-1.7-2.9-1.9-5.1
				c-0.2-2.3-1.3-2.3-0.9-3.9c0.4-1.6,2.8-4.6,2.8-4.6L61.8,393.4"/>
		</g>
		<g>
			<path class="st5" d="M57.2,389c0,0-1.2,2.1-1.2,2.1c0,0.1,5.2,3.9,5.6,2.6c0.3-1,0.4-2.4,0.4-2.4L57.2,389"/>
		</g>
		<g>
			<path class="st4" d="M37.3,395.1c0,0-1.8,1.6-3.4,4c-1.6,2.4-5.8,2.6-6,5.9c-0.2,3.3,5.7,3.4,8.8,2.4c3.1-1.1,3.6-4.3,5.4-5.2
				c1.9-0.8,2.8-1.5,2.7-3.1c-0.1-1.6-1.2-4.2-1.2-4.2s-1.2,0.4-1.8,0.5C41.3,395.5,39,395.6,37.3,395.1"/>
		</g>
		<g>
			<path class="st6" d="M59,303.7c0,0-1.2,7.2-2.2,12v0c-0.4,1.9-0.7,3.5-1,4c-0.3,0.6-2.5,3.1-5.2,5.9c-4.8,5-11.2,11.4-11.2,11.4
				l-2.5-4.8c0,0,5.6-6.7,9.5-11.2c1.8-2.1,3.2-3.7,3.4-3.9c0.8-0.7,1.7-7.9,3-13.8c1.3-5.9,3.9-9.2,3.9-9.2L59,303.7"/>
		</g>
		<g>
			<path class="st5" d="M50,325.6c-4.6,5-10.6,11.4-10.6,11.4l-2.4-4.8c0,0,5.4-6.7,9-11.2C47.1,321.6,49.2,323,50,325.6"/>
		</g>
		<g>
			<path class="st5" d="M38.3,393l-0.3,1.7c0,0,2.8,0.8,5.9-0.1l0.1-1.5L38.3,393"/>
		</g>
		<g>
			<path class="st6" d="M80.3,336.7c0.2,0.7-32.3,0-32.3,0s9-6.8,9.6-8.7c0.6-1.8-2.3-12.8-2.7-16.3c-0.3-2.9-1-15.6,0.7-17.5
				c1.9-2,8.7-4.2,8.7-4.2l9.9,0.4c0,0,1.6,0.4,2.8,0.9c1.2,0.6,7.8,3,8.9,6.5c1.1,3.5-6.6,14.6-6.6,14.6l0,1.3v0
				c0,1.5-0.1,3-0.1,4.6c-0.1,2.3-0.1,4.9-0.1,6.8C79,329.6,80.1,336.1,80.3,336.7"/>
		</g>
		<g>
			<path class="st7" d="M80.6,336.8c0,0,4.4,6.8,4.4,11.4c0.1,4.6-7.8,20.1-8.9,22.4c-3.6,6.7-13.3,21.1-13.3,21.1s-1.7,0-6.9-2.2
				c0,0,6.5-19,7.3-21c3.5-8.4,5.4-14.3,4.3-15.7c-1.2-1.4-4.4-2.9-5.3-3.7c-0.9-0.8-17.1,3.2-18.7,3.7c-4.4,1.2-2.4,9.2-1.4,12.9
				c1.6,6,3,27.8,3,27.8s-3.1,1.4-8.3,0.2c0,0-10.2-39.3-10.6-43.3s-0.5-10.4,24.8-15.3L80.6,336.8"/>
		</g>
		<g>
			<path class="st5" d="M67.7,268.1c0,0-8.3-2-6.4,9.1c1.9,11.1,3.9,12,8.9,9.7c5-2.3,4.6-9.4,4.8-12.9
				C75.2,270.5,70.3,268.3,67.7,268.1"/>
		</g>
		<g>
			<path class="st5" d="M66,293c0,0,3.5,4.2,9,0.4c0,0-1.2-9-0.6-13.4s-7.2,6.8-7.2,6.8c0.1,0.1,0.2,0.5,0.2,1.1
				c0,0.6,0,1.2-0.1,1.8C67.2,291.1,66.8,292.7,66,293"/>
		</g>
		<g>
			<path class="st8" d="M74.9,279c0,0-0.2-3.4-1.5-3.5c-1.3-0.1-1.5,1.3-1.5,1.3l-1.3,0.2c0,0,0.4-3-0.9-3.5
				c-1.3-0.5-8.2,1.6-9.3,0.8c-1-0.9-0.5-7,1.3-7.8c1.8-0.8,6.9-2.7,10.7-0.2c0,0,2.9-0.3,3.3,2C76.3,270.5,75.7,277.3,74.9,279"/>
		</g>
		<g>
			<path class="st9" d="M67,290c5.6-2,6-5.9,6-6c-1.8,3.7-5.9,4.2-5.9,4.2C67.1,288.7,67.1,289.3,67,290"/>
		</g>
		<g>
			<path class="st5" d="M78,291c0,0-4.7,9.6-12.3,9c-7.6-0.6-1.3-10.3-0.9-10.4C65.2,289.5,72.6,287.6,78,291"/>
		</g>
		<g>
			<path class="st6" d="M45,335.7c0,0,21.8,2.7,35,0.4L54.8,333C54.8,333,54.6,333.6,45,335.7"/>
		</g>
		<g>
			<path class="st6" d="M87.4,326.5c-0.3,0.4-4.7,2.2-9.5,4.2c-6.7,2.7-14.2,5.3-14.2,5.3l-1.7-3.9c0,0,7.9-4.5,13.2-7.7
				c2.5-1.5,4.5-2.7,4.7-3c0.9-0.9,1.1-2.2,0.4-4.7c-0.6-2.4-2.1-13.5-2.2-14.8c-0.2-1.3,0.4-4.8,3.5-4.9c3.1-0.2,4.6,0.7,4.6,0.7
				s0.8,0.3,1.3,8.2C88.1,313.8,88.2,325.5,87.4,326.5"/>
		</g>
		<g>
			<path class="st10" d="M80,313.5L80,313.5c0,1.5-0.1,3-0.1,4.5c-3.2-7.7-1.3-13.9-1.3-14C78.2,306.1,80,313.4,80,313.5"/>
		</g>
		<g>
			<path class="st10" d="M56,316L56,316c-0.5,2-1,3.5-1.3,4c-1.4-5.3-0.1-12-0.1-12C54.7,311.2,56,316,56,316"/>
		</g>
		<g>
			<path class="st5" d="M78,331.5c-6.7,2.8-14.5,5.5-14.5,5.5l-1.5-4.1c0,0,7.9-4.7,13.3-7.9C75.3,325,77.2,326,78,331.5"/>
		</g>
		<g>
			<path class="st11" d="M61,336.5L30,336l15.7,9L61,336.5"/>
		</g>
		<g>
			<path class="st12" d="M46.2,344l15.8-6.4V336l-17,6.4L46.2,344"/>
		</g>
		<g>
			<path class="st5" d="M60.4,333.7c0,0-2-0.3-3.5-0.7c-1.1-0.3-3.8,0.1-4.5,0.8c-0.7,0.7-2.9,5.6-3.3,5.9c-0.4,0.3,0.2,1,0.9,0.6
				c0,0,0.7,2.2,2.3,1.4c1.7-0.8,2.8-2.6,3.7-2.9c0.9-0.3,5.9-1.9,5.9-1.9S61.7,333.2,60.4,333.7"/>
		</g>
		<g>
			<path class="st12" d="M45,344l-9.2-27L6,317.5l8.8,24.9L45,344"/>
		</g>
		<g>
			<path class="st5" d="M72.1,275.9c0.1-1,1.8-1.4,1.9,0.1c0.1,1.5-0.8,4.2-1.4,4C71.9,279.7,71.9,277.3,72.1,275.9"/>
		</g>
		<g>
			<path class="st5" d="M61.6,332l-1.6,1c0,0,0.4,3.1,1.2,4l1.8-0.6C63,336.4,62.6,333.1,61.6,332"/>
		</g>
		<g>
			<path class="st5" d="M52.5,333c0,0-1.2,0.6-1.5,0.9c-0.3,0.3-1.6,1.4-1.9,1.6c-0.3,0.3,0.5,1,2.7-0.1C54,334.3,52.5,333,52.5,333
				"/>
		</g>
	</g>
	<g>
		<g>
			<path class="st13" d="M259,403.9l-0.1-117.5l-38.4,0l0-12.5l-52.8,0l0,12.5l-22.7,0l0.1,117.5L259,403.9"/>
		</g>
		<g>
			<path class="st13" d="M152,290l6,0l0-54l-6,0L152,290"/>
		</g>
		<g>
			<path class="st13" d="M178,282l36,0l0-19l-36,0L178,282"/>
		</g>
		<g>
			<path class="st13" d="M150,404l-35.9,0l-0.1-96l35.9,0L150,404"/>
		</g>
		<g>
			<path class="st13" d="M413,405l-0.1-123.5l-16.7-21.3l0-33.3l-18.5,0l0-49.8l-8.7,0l0.1,228L413,405"/>
		</g>
		<g>
			<path class="st13" d="M380,404l-28.9,0L351,220l27.8,0L380,404"/>
		</g>
		<g>
			<path class="st13" d="M259,287l-21,0l0-8l21,0L259,287"/>
		</g>
		<g>
			<path class="st13" d="M288,404l-30.9,0L257,298l30.9,0L288,404"/>
		</g>
		<g>
			<path class="st13" d="M332,404l-45.9,0L286,237l45.9,0L332,404"/>
		</g>
		<g>
			<path class="st13" d="M356,404l-30.9,0L325,261l30.9,0L356,404"/>
		</g>
		<g>
			<path class="st13" d="M322,238l-26,0l0-9l26,0L322,238"/>
		</g>
		<g>
			<path class="st13" d="M290,238l-3,0l0-34l3,0L290,238"/>
		</g>
		<g>
			<path class="st13" d="M111,174.5c0,4.1-3.4,7.5-7.5,7.5c-4.1,0-7.5-3.4-7.5-7.5l0,0c0-4.1,3.4-7.5,7.5-7.5
				C107.6,167,111,170.4,111,174.5"/>
		</g>
		<g>
			<path class="st13" d="M129,168.5c0,5.8-4.7,10.5-10.5,10.5c-5.8,0-10.5-4.7-10.5-10.5c0-5.8,4.7-10.5,10.5-10.5
				S129,162.7,129,168.5"/>
		</g>
		<g>
			<path class="st13" d="M135,177c0,2.8-2.2,5-5,5c-2.8,0-5-2.2-5-5l0,0c0-2.8,2.2-5,5-5C132.8,172,135,174.2,135,177"/>
		</g>
		<g>
			<path class="st13" d="M104,182l26,0c0,0-8.7-12.8-9.2-13c-0.4-0.2-16.8,10.3-16.8,10.3L104,182"/>
		</g>
		<g>
			<path class="st13" d="M217,134.5c0,3-2.5,5.5-5.5,5.5s-5.5-2.5-5.5-5.5l0,0c0-3,2.5-5.5,5.5-5.5S217,131.5,217,134.5"/>
		</g>
		<g>
			<path class="st13" d="M231,131c0,4.4-3.6,8-8,8c-4.4,0-8-3.6-8-8c0-4.4,3.6-8,8-8C227.4,123,231,126.6,231,131"/>
		</g>
		<g>
			<path class="st13" d="M236,137c0,2.2-1.8,4-4,4c0,0,0,0,0,0c-2.2,0-4-1.8-4-4c0-2.2,1.8-4,4-4C234.2,133,236,134.8,236,137
				C236,137,236,137,236,137"/>
		</g>
		<g>
			<path class="st13" d="M213,140l19,0c0,0-6.4-8.8-6.7-9c-0.3-0.2-12.3,7.1-12.3,7.1L213,140"/>
		</g>
		<g>
			<path class="st14" d="M410.7,400c1.8,0,3.3,1.5,3.3,3.3c0,1.8-1.5,3.3-3.3,3.3L65.3,407c-1.8,0-3.3-1.5-3.3-3.3
				c0-1.8,1.5-3.3,3.3-3.3L410.7,400"/>
		</g>
		<g>
			<path class="st15" d="M124.5,404l-17.8,0c-4.4-1.8-8.1-4-11.2-6.3l2.6-2.3l-3.8,1.4c-3.1-2.5-5.5-5.1-7.5-7.8l8.1-6l-10.1,3
				c-3.4-5.7-4.9-11.5-5.5-16.3l1.2-1.4l-1.4,0.2c-0.5-5.6,0.1-9.4,0.1-9.4s-0.2,4.4,10.4,6.9l-1.1,2.7l4.5-2
				c0.8,0.1,1.6,0.2,2.5,0.4c6.9,0.9,13.7,4.1,19,8.9l-3.2,2.3l4.7-0.8c4.3,4.4,7.4,10,8.5,16.2l-3.7,1l4,0.7
				C125.1,398.2,125.1,401.1,124.5,404"/>
		</g>
		<g>
			<path class="st16" d="M121.9,397.6l-2.9-0.8l2.8,3c-0.2,2.1-0.4,3.2-0.4,3.2l-17.7,0c-1.8-3.9-2.9-7.9-3.3-12l3.6-0.6l-3.8-1.6
				c-0.3-4.1,0-8.2,0.5-12.1l4.6-0.9l-4.2-2.3c0.8-4.8,1.9-9.3,2.7-13.4l3.5-1l-3.1-0.7c0.9-4.6,1.4-8.5,0.7-11.5
				c0,0,6.1,5,10.8,13.8l-2.5,1.2l3.1,0c1.8,3.7,3.4,8,4.2,12.8c0.6,3.7,1,7.1,1.2,10.2l-4.3,0.9l4.5,1.2
				C122.1,391.5,122,395,121.9,397.6"/>
		</g>
		<g>
			<path class="st17" d="M141.9,380.6l-4.5-1l4.3,5c-0.3,3.8-0.8,7.7-1.6,11.5l-2.8,0.3l2.5,1.5c-0.5,2.1-1,4.2-1.7,6.2l-23.2,0
				c-1.2-5.3-1.8-10.1-1.9-14.4l4.9-1.2l-4.9-1.2c0.3-10.3,3.5-18,7.8-24.3l9.4,1.2l-6.7-4.8c1.1-1.4,2.3-2.7,3.5-4
				c1.8-2,3.3-3.8,4.4-5.4l3.4,0l-2.3-1.7c3.4-5.4,3-8.1,3-8.1s2.2,5.3,4,13.9l-5.6,1.8l6.2,1.1
				C141.3,363.3,142.2,371.6,141.9,380.6"/>
		</g>
		<g>
			<path class="st18" d="M148.8,383.3l-2.9,0l2.8,1.4c-0.4,3.4-1.1,7.5-2.5,11.8l-2-1.1l1.3,3c-0.7,1.8-1.5,3.6-2.4,5.3l-1.4-0.3
				l0.4,0.4l-12.1,0c0.2-2.8,0.6-5.2,1.2-7.3l2.5,0.1l-2.1-1.3c1.6-4.9,4.2-8.2,7.2-10.6l4.3,2l-2.5-3.3c0.7-0.5,1.5-1,2.2-1.4
				c1-0.6,2-1.3,2.9-2l1.6,0.5l-0.9-1.2c2.4-2.1,2.6-3.5,2.6-3.5S149.2,378.9,148.8,383.3"/>
		</g>
		<g>
			<path class="st19" d="M425,295.7l-0.4-0.7c0,0-1.9,0.6-2.6,1.7l1.9,2.3L425,295.7"/>
		</g>
		<g>
			<path class="st19" d="M473,262.8l0.1-0.8c0,0,1.9,0.3,2.9,1.3l-1,2.7L473,262.8"/>
		</g>
		<g>
			<path class="st20" d="M193.3,323c-3.2,15.4-0.7,21.1,8,40.8l5.7,0.2l-2.8-39.2L193.3,323"/>
		</g>
		<g>
			<path class="st21" d="M199.5,358c0,0,0.7-21.4,2.9-22.4s2.6-2.1,2.6-2.1l-0.7-5c0,0-3-4.8-3.8-4.4c-0.8,0.4-4.4,2.2-4.2,3.4
				c0.2,1.2-4.2,14.3-4.2,14.3L199.5,358"/>
		</g>
		<g>
			<path class="st22" d="M209,401.9l0.2,3.1c0,0,8.1,0.1,9.8-1.8c0,0-6.4,0-8.2-1.5C209.1,400.1,209,401.9,209,401.9"/>
		</g>
		<g>
			<path class="st20" d="M202,363.3c0,0,0.1,11.7,1.1,14.8c1,3.1,4.8,22.8,4.8,22.8l2-0.1l-1.9-33.5c-0.1-1.7-0.5-3.4-1.2-4.9
				l-0.2-0.5L202,363.3"/>
		</g>
		<g>
			<path class="st20" d="M187.2,368.2l5.7,0.8l5-40.9l-12-5.1C181.1,338.1,182.7,346,187.2,368.2L187.2,368.2z"/>
		</g>
		<g>
			<path class="st21" d="M184,335c0,0,9.7,1.7,13.2,0.8l0.8-3.7l-13.5,0.5L184,335"/>
		</g>
		<g>
			<path class="st22" d="M179.1,402.8l-1.1,3.4c0,0,7.6,2.9,10,1.3c0,0-6.1-2.1-7.1-4.4C179.9,400.8,179.1,402.8,179.1,402.8"/>
		</g>
		<g>
			<path class="st20" d="M187,364.5c0,0-3.8,11.1-3.9,14.5c-0.1,3.4-3.1,23.4-3.1,23.4l2,0.7l10.8-35.5c0.8-2.7-1.1-5.4-3.8-5.5
				l-0.4,0L187,364.5"/>
		</g>
		<g>
			<path class="st23" d="M183.8,305.7l2.2,11.2c0,0-7,12.1-5.9,14.7c0,0,6.4,2.1,17.8,1.1l1.5-6.2l2.2,5.4c3.6,0,7.4-1.8,7.4-1.8
				l-5.9-14.5l1.9-13.7l-9.1-9.4l-2.3-0.5l-3.4,0.7L183.8,305.7"/>
		</g>
		<g>
			<path class="st24" d="M237.8,295.1c0,0,1.3-0.7,1.4-1.4c0.1-0.7,0.4-0.9,0.5-0.6c0.2,0.4,0.1,1,0.1,1s2.2-0.8,2.5-0.6
				c0.3,0.2-0.4,0.4-0.4,0.4s0.8-0.2,1,0c0.1,0.2-0.6,0.4-0.6,0.4s0.5-0.1,0.5,0.1c0,0.1-0.4,0.4-0.7,0.4c0,0,0.4-0.1,0.5,0.1
				c0.1,0.1-0.3,0.3-0.7,0.4c-1,0.4-2,1.2-3.2,0.8L237,297L237.8,295.1"/>
		</g>
		<g>
			<path class="st23" d="M195,292c0,0,6,0,9.4,0.9c4.3,1.2,17.6,3.3,17.6,3.3l-0.9,6.1c-0.3,2.5-2.7,4.1-5.1,3.5l-12.7-2.9l-6.1-3.6
				L195,292"/>
		</g>
		<g>
			<path class="st25" d="M193.4,293l-2.4,1.1l2.4,2.9l2.7-1.8l1.5,1.8l1.4-2.2l-1.9-1.6L193.4,293"/>
		</g>
		<g>
			<path class="st24" d="M197.9,290.6l0.1,4.2c0,0-0.7,1.4-1.8,1.1c-2-0.5-2-1.9-2-1.9l-0.2-8.4l0.7-0.7L197.9,290.6"/>
		</g>
		<g>
			<path class="st26" d="M194.2,290c1.4,3.8,3.8,3,3.8,3l0-2.2l-4-3.8L194.2,290"/>
		</g>
		<g>
			<path class="st24" d="M203,282.5c0.3,4.9-1.8,10.3-5.6,9.4c0,0-3-0.7-3.4-5.2c-0.3-4.2,2.6-5.7,3-5.8
				C197.5,280.9,203,282.5,203,282.5"/>
		</g>
		<g>
			<path class="st22" d="M193.9,279.9c-3.7-2.5-6.4,0.5-6.1,3.7c0.3,3.2-1.8,2.5-1.8,2.5s4,2.9,6.3-1.7
				C194.7,279.8,193.9,279.9,193.9,279.9"/>
		</g>
		<g>
			<path class="st24" d="M195,280.1c-1.6-0.7-3.6,2.2-2.8,3.6C193,285.2,195,280.1,195,280.1"/>
		</g>
		<g>
			<path class="st22" d="M204,284.5c-0.1,1.6-5-0.5-5-0.5s-1.3,1.3-2.4,1.2l-0.9,1.7l-0.7,4.1c0,0-0.6-1.3-1.3-3.2
				c-0.5-1.2-0.8-2.7-0.4-4.3c1.1-4,4.3-5,6.6-4.3C201.7,279.7,203.8,281.1,204,284.5"/>
		</g>
		<g>
			<path class="st24" d="M194.8,285.9c-0.5-1.2-1.5-1.1-1.7-0.2c-0.3,0.9,0.1,2.8,1.2,2.2C195.5,287.4,194.8,285.9,194.8,285.9"/>
		</g>
		<g>
			<path class="st25" d="M237.8,296.3l0.8-0.3c0,0,0.7,1.2,0.3,2.2L236,299L237.8,296.3"/>
		</g>
		<g>
			<path class="st23" d="M220.8,297.7l17.5-1.7l0.7,2.4l-16.4,6.2c-1.8,0.7-3.7,0.6-5.4-0.3c-2-1-3.2-2.9-3.2-5v0L220.8,297.7"/>
		</g>
		<g>
			<path class="st27" d="M364.5,354.6c-0.5,1.1-0.9,2.1-1.4,3.1c-18.5,38.4-64.1,55.8-103.6,38.8c-40.6-17.4-59.3-64.5-41.9-105.1
				c5.2-12.1,13-22.2,22.5-30.1c5.2-4.3,10.9-7.9,17.1-10.8c3.7-1.7,7.6-3.2,11.5-4.3c5.4-1.6,10.9-2.6,16.4-3
				c12.5-0.9,25.3,1,37.6,6.3c18.5,8,32.5,22.1,40.5,38.9C372.7,308.5,374,332.5,364.5,354.6"/>
		</g>
		<g>
			<path class="st28" d="M286.8,283.4c-0.9,1.7-4,1.3-6.4,1c-2.1-0.3-3.7-0.6-3,0.4c1.5,2.2-3.9,6.3-10.8,7.2
				c-6.9,0.9-12.5,10.6-19.8,7.7c-7.4-2.9-10.5,3.1-8,10.4c2.5,7.2,8.2,5.4,6.6,9.3c-1.6,3.9,0,5.9,1.1,6.8c1.1,0.9,1.6,2.4,1.6,2.4
				c0.8-1.1,5.4-3.2,11,1.6c5.6,4.8,7.9,11.6,11.1,15.6c3.2,4,10.9,10.1,8.1,14.7c-2.8,4.6-5.4,4.5-9.7,8.5
				c-4.3,4-17.2,8.5-22.1,11.4c-5,2.9-1.3,6-0.2,6.6c1.1,0.6-5.7-0.5-5.7-5.7c0-5.2,0.9-10.1,4.2-18c3.3-7.9-1.8-6.4-1.8-11.8
				c0-5.4-2.6-5.9-2.1-11.2c0.5-5.3,6.3-9,6.3-9s0-3-1.6-2.8c-1.6,0.2-3.8-7-3.8-7s-1.5-0.9-3.6-6.5c-2-5.7-9.5-4.9-7.2-9.8
				c2.3-4.9-3.1-9.1-3.7-17.8c-0.6-8.7-3.8-8.6,4.2-18.8l7.7-7.5c5.2-4.4,11-8,17-10.9c0.4,0.3,0.8,0.6,1.1,1.1
				c1.6,3,12.1,1.8,12.1,1.8s7,2.8,5.5,5.8c-1.5,3-12,2.4-15.5,5c-3.5,2.6,2.4,6.6,5.3,7.8c2.9,1.2,0.2,4.1,3,2.6
				c2.8-1.5,2.6-9.1,7.4-9.9c4.7-0.8,9.4,2.1,7.6,6.2S288.5,280.3,286.8,283.4"/>
		</g>
		<g>
			<path class="st28" d="M279.3,250.7c3.6,3.3,11.2,10.2,8.6,13.6c-2.6,3.5-8.4,0.9-7.5-2.9c0.9-3.8-0.6-7.2-6.2-8.7
				c-5.5-1.5-0.5-3.4-4-5.4c-0.7-0.4-1.6-0.9-2.3-1.4c5.6-1.6,11.3-2.6,17.1-3.1c2.1,0.3,3.9,0.7,4.9,1.2
				C295.7,246.9,275.7,247.5,279.3,250.7"/>
		</g>
		<g>
			<path class="st28" d="M365.4,354.7c-0.5,1.1-0.9,2.1-1.4,3.2l-4.2-1.1l-1.7-9l-1,4.7l1.1,6.8l-9.9,3.8l-1.3-14.4l-3.4,13.4
				c-0.3,1.1,0.4,2.2,1.5,2.4c0,0,0,0,0.1,0c1.6,0.4,2.1,2.4,0.8,3.5c-3.2,2.6-9.1,7.1-18.3,13.4c-15.3,10.5-20.3,4-15.9-4
				c4.4-8,11.6-17.6-1.2-19.2c-12.7-1.6-8.7-17.3-3.8-25.3c4.2-6.9,6.3-6.9,13.5-6.8c1.1,0,2.3,0,3.7,0c10.4-0.1,15.7,9.6,24.1,15.8
				l-3.6-6.8c0,0,1.1-11.8-4.8-14.3c-2.2-0.9-5.1-0.9-7.9-0.8c-4.6,0.1-8.8,0.2-8.3-4.4c0.8-7.3,3.1-9.7,16.5-7.7
				c13.4,2,18.3-3.9,18.3-3.9s-10.8,3.3-12.9-2.9c-2.1-6.2,14.3-14.3,14.3-14.3l4.6,1.2C373.8,308.4,375,332.5,365.4,354.7"/>
		</g>
		<g>
			<path class="st28" d="M340.7,329.8c1.9-4.8-4.3-7.4-7.1-6.6C330.7,324,340,331.4,340.7,329.8"/>
		</g>
		<g>
			<path class="st28" d="M327.2,304.5c3.2,2,6.8-2.5,5.5-4.2C331.4,298.7,325.8,303.6,327.2,304.5"/>
		</g>
		<g>
			<path class="st28" d="M331.9,282.4c0.7,3.5-3,4.9-6.7,2c-3.7-2.9-2.5-5.8,1.6-3.8C330.9,282.7,331.9,282.4,331.9,282.4"/>
		</g>
		<g>
			<path class="st28" d="M282.8,289.9c-3.3-2.7,4.9-2.5,5.2,0.7C288.3,293.6,284.2,291,282.8,289.9"/>
		</g>
		<g>
			<path class="st29" d="M356,371L356,371c3-4.1,5.5-8.5,7.6-13.2c0.1-0.3,0.3-0.6,0.4-0.8C361.8,361.9,359.1,366.6,356,371"/>
		</g>
		<g>
			<path class="st29" d="M312,400"/>
		</g>
		<g>
			<path class="st29" d="M325,395c12.1-5.3,22.8-13.5,31-24v0C347.8,381.5,337.1,389.7,325,395"/>
		</g>
		<g>
			<path class="st30" d="M308.3,400.9L308.3,400.9L308.3,400.9 M308.2,401L308.2,401C308.2,401,308.2,401,308.2,401 M308.1,401
				L308.1,401L308.1,401z M308,401L308,401C308,401,308,401,308,401"/>
		</g>
		<g>
			<path class="st31" d="M291.8,404c-10.5,0-21.3-2.1-31.6-6.5c-20.8-8.9-35.8-25.4-43.2-44.9c6.7,9.4,15.5,17.1,25.8,22.4
				c-0.4,2.4-0.6,4.5-0.6,6.7c0,4.3,4.8,5.8,5.7,5.8c0.2,0,0.2-0.1,0-0.2c-1.1-0.6-4.8-3.6,0.2-6.5c1-0.6,2.3-1.2,3.8-1.9
				c7.7,2.7,15.9,4.1,24,4.1c14.4,0,28.4-4.3,40.4-12.3c-1.2,2.5-2.9,5.2-4.2,7.7c-2.7,5-1.8,9.3,3,9.3c2.9,0,7.1-1.5,12.7-5.4
				c9.1-6.2,14.9-10.7,18.1-13.3c1.3-1,0.8-3.1-0.8-3.5c-1.1-0.2-1.7-1.3-1.5-2.3c0,0,0,0,0-0.1l3.4-13.3l1.3,14.2l9.9-3.8l-1.1-6.7
				l1-4.6l1.7,8.9l4.2,1.1c-2.2,4.6-4.9,9-8,13.2c-8.1,10.7-18.6,19.1-30.5,24.5c-4.2,1.9-8.5,3.5-12.9,4.6
				c-1.5,0.4-2.9,0.7-4.4,1.1h0l-0.1,0c0,0-0.1,0-0.1,0l0,0c0,0,0,0-0.1,0c0,0,0,0,0,0l0,0l-0.1,0c0,0,0,0,0,0l-0.1,0c0,0,0,0,0,0
				c0,0-0.1,0-0.1,0l0,0C302.4,403.5,297.1,404,291.8,404"/>
		</g>
		<g>
			<path class="st32" d="M246.3,386c-0.8,0-5.3-1.5-5.3-6c0-2.3,0.1-4.6,0.6-7c2.7,1.6,5.5,2.9,8.4,4.1c-1.4,0.7-2.6,1.4-3.5,2
				c-4.6,3-1.2,6.2-0.2,6.8C246.5,385.9,246.4,386,246.3,386"/>
		</g>
		<g>
			<path class="st29" d="M365,354.2c0-0.1,0.1-0.1,0.1-0.2C365.1,354.1,365,354.1,365,354.2"/>
		</g>
		<g>
			<path class="st33" d="M282,244c1.3-0.4,2.7-0.7,4-1v0.6l-0.5,0C284.3,243.7,283.2,243.9,282,244"/>
		</g>
		<g>
			<path class="st29" d="M355,276C355,276,355,276,355,276L355,276 M355,276C355,276,355,276,355,276L355,276z M371,321.7
				C371,321.7,371,321.7,371,321.7L371,321.7 M370.9,321c-0.4-11-3.1-21.7-7.8-31.6C367.9,299.3,370.5,310,370.9,321L370.9,321z
				 M365,354c4-9.9,5.9-20.1,5.9-30.1C371,333.9,369.1,344.1,365,354"/>
		</g>
		<g>
			<path class="st29" d="M320,248c-9.4-4-19-5.9-28.5-5.9c-1.8,0-3.7,0.1-5.5,0.2v-0.9c3.5-0.9,7.3-1.4,11.1-1.4
				c2.3,0,4.7,0.2,7,0.6c5.1,0.9,10.1,3.5,14.7,6.9C319.2,247.7,319.6,247.8,320,248"/>
		</g>
		<g>
			<path class="st29" d="M355.1,276.1c0,0,0-0.1-0.1-0.1C355,276,355,276.1,355.1,276.1"/>
		</g>
		<g>
			<path class="st34" d="M371,324L371,324c0-1,0-2,0-3v0C371,322,371,323,371,324"/>
		</g>
		<g>
			<path class="st32" d="M271.1,261c-4.4-1.5-8.8-3.4-13.1-6.2c0,0,0.9-0.7,2.6-1.8c1.4,0.3,3.1,0.4,4.6,0.4c2.6,0,4.8-0.2,4.8-0.2
				s7.3,2.8,5.8,5.7C275.2,259.9,273.4,260.5,271.1,261"/>
		</g>
		<g>
			<path class="st32" d="M287.7,264c-2.2-0.2-4.4-0.4-6.6-0.8c-0.4-0.7-0.6-1.6-0.4-2.4c0.9-3.6-0.6-6.9-6-8.4
				c-5.3-1.4-0.6-3.2-3.7-5.1c3.3-1.6,6.7-2.9,10.1-3.9c1.4-0.2,2.7-0.3,4.1-0.4c2.1,0.3,3.8,0.7,4.7,1.2c5.6,2.6-13.8,3.1-10.3,6.3
				s10.9,9.8,8.4,13.2C287.9,263.8,287.8,263.9,287.7,264"/>
		</g>
		<g>
			<path class="st32" d="M314.5,387c-4.8,0-5.7-4.4-3-9.5c1.4-2.5,3-5.2,4.2-7.8c11-7.5,20.2-18.2,25.8-31.5c0.1-0.3,0.3-0.7,0.4-1
				c1.7,1.7,3.4,3.3,5.4,4.7l-3.6-6.8c0,0,0.1-1.3,0.1-3.2c2.2-7.6,2.7-15.7,1.4-23.5c8.8-0.2,12.1-4.3,12.1-4.3s-2.8,0.9-5.8,0.9
				c-2.9,0-5.9-0.8-6.9-3.8c-2.1-6.2,14.1-14.3,14.1-14.3l4.5,1.2c5.2,10.9,7.8,22.8,7.8,34.8v0c0,10.4-2,20.7-5.9,30.4v0l0,0.1
				c0,0,0,0,0,0c0,0,0,0,0,0c-0.6,1.5-1.3,3-1.9,4.4l-4.2-1.1l-1.7-9l-1,4.7l1.1,6.8l-9.8,3.8l-1.3-14.4l-3.3,13.4
				c-0.3,1.1,0.4,2.2,1.5,2.4c0,0,0,0,0,0c1.6,0.4,2.1,2.4,0.8,3.5c-3.2,2.6-9,7.1-18,13.4C321.6,385.4,317.4,387,314.5,387"/>
		</g>
		<g>
			<path class="st27" d="M364.5,355.6c-0.5,1.1-0.9,2.1-1.4,3.1c-18.5,38.4-64.1,55.8-103.6,38.8c-40.6-17.4-59.3-64.5-41.9-105.1
				c5.2-12.1,13-22.2,22.5-30.1c5.2-4.3,10.9-7.9,17.1-10.8c3.7-1.7,7.6-3.2,11.5-4.3c5.4-1.6,10.9-2.6,16.4-3
				c12.5-0.9,25.3,1,37.6,6.3c18.5,8,32.5,22.1,40.5,38.9C372.7,309.5,374,333.5,364.5,355.6"/>
		</g>
		<g>
			<path class="st28" d="M286.8,283.4c-0.9,1.7-4,1.3-6.4,1c-2.1-0.3-3.7-0.6-3,0.4c1.5,2.2-3.9,6.3-10.8,7.2
				c-6.9,0.9-12.5,10.6-19.8,7.7c-7.4-2.9-10.5,3.1-8,10.4c2.5,7.2,8.2,5.4,6.6,9.3c-1.6,3.9,0,5.9,1.1,6.8c1.1,0.9,1.6,2.4,1.6,2.4
				c0.8-1.1,5.4-3.2,11,1.6c5.6,4.8,7.9,11.6,11.1,15.6c3.2,4,10.9,10.1,8.1,14.7c-2.8,4.6-5.4,4.5-9.7,8.5
				c-4.3,4-17.2,8.5-22.1,11.4c-5,2.9-1.3,6-0.2,6.6c1.1,0.6-5.7-0.5-5.7-5.7c0-5.2,0.9-10.1,4.2-18c3.3-7.9-1.8-6.4-1.8-11.8
				c0-5.4-2.6-5.9-2.1-11.2c0.5-5.3,6.3-9,6.3-9s0-3-1.6-2.8c-1.6,0.2-3.8-7-3.8-7s-1.5-0.9-3.6-6.5c-2-5.7-9.5-4.9-7.2-9.8
				c2.3-4.9-3.1-9.1-3.7-17.8c-0.6-8.7-3.8-8.6,4.2-18.8l7.7-7.5c5.2-4.4,11-8,17-10.9c0.4,0.3,0.8,0.6,1.1,1.1
				c1.6,3,12.1,1.8,12.1,1.8s7,2.8,5.5,5.8c-1.5,3-12,2.4-15.5,5c-3.5,2.6,2.4,6.6,5.3,7.8c2.9,1.2,0.2,4.1,3,2.6
				c2.8-1.5,2.6-9.1,7.4-9.9c4.7-0.8,9.4,2.1,7.6,6.2S288.5,280.3,286.8,283.4"/>
		</g>
		<g>
			<path class="st28" d="M279.3,251.7c3.6,3.3,11.2,10.2,8.6,13.6c-2.6,3.5-8.4,0.9-7.5-2.9c0.9-3.8-0.6-7.2-6.2-8.7
				c-5.5-1.5-0.5-3.4-4-5.4c-0.7-0.4-1.6-0.9-2.3-1.4c5.6-1.6,11.3-2.6,17.1-3.1c2.1,0.3,3.9,0.7,4.9,1.2
				C295.7,247.9,275.7,248.5,279.3,251.7"/>
		</g>
		<g>
			<path class="st28" d="M365.4,354.7c-0.5,1.1-0.9,2.1-1.4,3.2l-4.2-1.1l-1.7-9l-1,4.7l1.1,6.8l-9.9,3.8l-1.3-14.4l-3.4,13.4
				c-0.3,1.1,0.4,2.2,1.5,2.4c0,0,0,0,0.1,0c1.6,0.4,2.1,2.4,0.8,3.5c-3.2,2.6-9.1,7.1-18.3,13.4c-15.3,10.5-20.3,4-15.9-4
				c4.4-8,11.6-17.6-1.2-19.2c-12.7-1.6-8.7-17.3-3.8-25.3c4.2-6.9,6.3-6.9,13.5-6.8c1.1,0,2.3,0,3.7,0c10.4-0.1,15.7,9.6,24.1,15.8
				l-3.6-6.8c0,0,1.1-11.8-4.8-14.3c-2.2-0.9-5.1-0.9-7.9-0.8c-4.6,0.1-8.8,0.2-8.3-4.4c0.8-7.3,3.1-9.7,16.5-7.7
				c13.4,2,18.3-3.9,18.3-3.9s-10.8,3.3-12.9-2.9c-2.1-6.2,14.3-14.3,14.3-14.3l4.6,1.2C373.8,308.4,375,332.5,365.4,354.7"/>
		</g>
		<g>
			<path class="st28" d="M340.7,329.8c1.9-4.8-4.3-7.4-7.1-6.6C330.7,324,340,331.4,340.7,329.8"/>
		</g>
		<g>
			<path class="st28" d="M327.2,304.5c3.2,2,6.8-2.5,5.5-4.2C331.4,298.7,325.8,303.6,327.2,304.5"/>
		</g>
		<g>
			<path class="st28" d="M331.9,282.4c0.7,3.5-3,4.9-6.7,2c-3.7-2.9-2.5-5.8,1.6-3.8C330.9,282.7,331.9,282.4,331.9,282.4"/>
		</g>
		<g>
			<path class="st28" d="M282.8,289.9c-3.3-2.7,4.9-2.5,5.2,0.7C288.3,293.6,284.2,291,282.8,289.9"/>
		</g>
		<g>
			<path class="st29" d="M356,371L356,371c3-4.1,5.5-8.5,7.6-13.2c0.1-0.3,0.3-0.6,0.4-0.8C361.8,361.9,359.1,366.6,356,371"/>
		</g>
		<g>
			<path class="st29" d="M312,400"/>
		</g>
		<g>
			<path class="st29" d="M325,395c12.1-5.3,22.8-13.5,31-24v0C347.8,381.5,337.1,389.7,325,395"/>
		</g>
		<g>
			<path class="st30" d="M308.3,400.9L308.3,400.9L308.3,400.9 M308.2,401L308.2,401C308.2,401,308.2,401,308.2,401 M308.1,401
				L308.1,401L308.1,401z M308,401L308,401C308,401,308,401,308,401"/>
		</g>
		<g>
			<path class="st31" d="M291.8,404c-10.5,0-21.3-2.1-31.6-6.5c-20.8-8.9-35.8-25.4-43.2-44.9c6.7,9.4,15.5,17.1,25.8,22.4
				c-0.4,2.4-0.6,4.5-0.6,6.7c0,4.3,4.8,5.8,5.7,5.8c0.2,0,0.2-0.1,0-0.2c-1.1-0.6-4.8-3.6,0.2-6.5c1-0.6,2.3-1.2,3.8-1.9
				c7.7,2.7,15.9,4.1,24,4.1c14.4,0,28.4-4.3,40.4-12.3c-1.2,2.5-2.9,5.2-4.2,7.7c-2.7,5-1.8,9.3,3,9.3c2.9,0,7.1-1.5,12.7-5.4
				c9.1-6.2,14.9-10.7,18.1-13.3c1.3-1,0.8-3.1-0.8-3.5c-1.1-0.2-1.7-1.3-1.5-2.3c0,0,0,0,0-0.1l3.4-13.3l1.3,14.2l9.9-3.8l-1.1-6.7
				l1-4.6l1.7,8.9l4.2,1.1c-2.2,4.6-4.9,9-8,13.2c-8.1,10.7-18.6,19.1-30.5,24.5c-4.2,1.9-8.5,3.5-12.9,4.6
				c-1.5,0.4-2.9,0.7-4.4,1.1h0l-0.1,0c0,0-0.1,0-0.1,0l0,0c0,0,0,0-0.1,0c0,0,0,0,0,0l0,0l-0.1,0c0,0,0,0,0,0l-0.1,0c0,0,0,0,0,0
				c0,0-0.1,0-0.1,0l0,0C302.4,403.5,297.1,404,291.8,404"/>
		</g>
		<g>
			<path class="st32" d="M246.3,387c-0.8,0-5.3-1.5-5.3-6c0-2.3,0.1-4.6,0.6-7c2.7,1.6,5.5,2.9,8.4,4.1c-1.4,0.7-2.6,1.4-3.5,2
				c-4.6,3-1.2,6.2-0.2,6.8C246.5,386.9,246.4,387,246.3,387"/>
		</g>
		<g>
			<path class="st29" d="M365,354.2c0-0.1,0.1-0.1,0.1-0.2C365.1,354.1,365,354.1,365,354.2"/>
		</g>
		<g>
			<path class="st33" d="M282,244c1.3-0.4,2.7-0.7,4-1v0.6l-0.5,0C284.3,243.7,283.2,243.9,282,244"/>
		</g>
		<g>
			<path class="st29" d="M355,276C355,276,355,276,355,276L355,276 M355,276C355,276,355,276,355,276L355,276z M371,321.7
				C371,321.7,371,321.7,371,321.7L371,321.7 M370.9,321c-0.4-11-3.1-21.7-7.8-31.6C367.9,299.3,370.5,310,370.9,321L370.9,321z
				 M365,354c4-9.9,5.9-20.1,5.9-30.1C371,333.9,369.1,344.1,365,354"/>
		</g>
		<g>
			<path class="st29" d="M320,249c-9.4-4-19-5.9-28.5-5.9c-1.8,0-3.7,0.1-5.5,0.2v-0.9c3.5-0.9,7.3-1.4,11.1-1.4
				c2.3,0,4.7,0.2,7,0.6c5.1,0.9,10.1,3.5,14.7,6.9C319.2,248.7,319.6,248.8,320,249"/>
		</g>
		<g>
			<path class="st29" d="M355.1,276.1c0,0,0-0.1-0.1-0.1C355,276,355,276.1,355.1,276.1"/>
		</g>
		<g>
			<path class="st34" d="M371,324L371,324c0-1,0-2,0-3v0C371,322,371,323,371,324"/>
		</g>
		<g>
			<path class="st32" d="M271.1,262c-4.4-1.5-8.8-3.4-13.1-6.2c0,0,0.9-0.7,2.6-1.8c1.4,0.3,3.1,0.4,4.6,0.4c2.6,0,4.8-0.2,4.8-0.2
				s7.3,2.8,5.8,5.7C275.2,260.9,273.4,261.5,271.1,262"/>
		</g>
		<g>
			<path class="st32" d="M287.7,265c-2.2-0.2-4.4-0.4-6.6-0.8c-0.4-0.7-0.6-1.6-0.4-2.4c0.9-3.6-0.6-6.9-6-8.4
				c-5.3-1.4-0.6-3.2-3.7-5.1c3.3-1.6,6.7-2.9,10.1-3.9c1.4-0.2,2.7-0.3,4.1-0.4c2.1,0.3,3.8,0.7,4.7,1.2c5.6,2.6-13.8,3.1-10.3,6.3
				s10.9,9.8,8.4,13.2C287.9,264.8,287.8,264.9,287.7,265"/>
		</g>
		<g>
			<path class="st32" d="M314.5,387c-4.8,0-5.7-4.4-3-9.5c1.4-2.5,3-5.2,4.2-7.8c11-7.5,20.2-18.2,25.8-31.5c0.1-0.3,0.3-0.7,0.4-1
				c1.7,1.7,3.4,3.3,5.4,4.7l-3.6-6.8c0,0,0.1-1.3,0.1-3.2c2.2-7.6,2.7-15.7,1.4-23.5c8.8-0.2,12.1-4.3,12.1-4.3s-2.8,0.9-5.8,0.9
				c-2.9,0-5.9-0.8-6.9-3.8c-2.1-6.2,14.1-14.3,14.1-14.3l4.5,1.2c5.2,10.9,7.8,22.8,7.8,34.8v0c0,10.4-2,20.7-5.9,30.4v0l0,0.1
				c0,0,0,0,0,0c0,0,0,0,0,0c-0.6,1.5-1.3,3-1.9,4.4l-4.2-1.1l-1.7-9l-1,4.7l1.1,6.8l-9.8,3.8l-1.3-14.4l-3.3,13.4
				c-0.3,1.1,0.4,2.2,1.5,2.4c0,0,0,0,0,0c1.6,0.4,2.1,2.4,0.8,3.5c-3.2,2.6-9,7.1-18,13.4C321.6,385.4,317.4,387,314.5,387"/>
		</g>
		<g>
			<path class="st32" d="M333,282c-0.3-0.3-0.7-0.7-1-1c0.1,0,0.3,0,0.4,0c0.3,0,0.4,0,0.4,0C332.9,281.3,333,281.7,333,282"/>
		</g>
		<g>
			<path class="st35" d="M366,403h-56.3c-0.9-1.1-1.8-2.2-2.7-3.4c0.4-1.4,0.9-2.8,1.5-4.2l2.9,5.3l-1.8-7.5
				c0.5-0.9,1.1-1.8,1.8-2.7c1.9,4.4,4.9,11.3,4.8,10.9c-0.1-0.4-1.6-7.9-2.8-13.4c0.8-0.9,1.6-1.7,2.4-2.5l1.4,4.6l-0.8-5.1
				c0.5-0.5,1-0.9,1.6-1.3l3.7,11.6l-1.5-13.2c1.6-1.1,3.3-2,5-2.7l1.1,12.6l1.7-13.6c1.8-0.6,3.6-0.9,5.5-1.1v12.4l2.4-12.6h0.1
				c1.6,0,3.2,0.1,4.7,0.4c-0.2,3.7-0.4,7.8-0.4,7.6c0.1-0.2,0.8-3.8,1.5-7.4c1.5,0.3,3,0.8,4.4,1.4l-2.3,18.1l4.4-17.2
				c1.1,0.6,2.3,1.2,3.3,1.9l-3,9.4l4.5-8.4c1,0.7,1.9,1.5,2.8,2.3l-1,3.2l1.7-2.5c0.6,0.6,1.2,1.2,1.8,1.8
				c-1.4,4.5-3.5,11.3-3.3,11.2c0.2-0.1,3.4-5.7,5.2-8.9c0.7,0.9,1.4,1.9,2,2.9l-3.9,6l5-3.8C365,397.6,365.8,400.4,366,403"/>
		</g>
		<g>
			<path class="st36" d="M324,404h-36.3c-0.7-0.8-1.3-1.7-1.7-2.2c0.2-0.9,0.6-1.8,1-2.8l1.9,3.4l-1.1-4.9c0.3-0.6,0.7-1.2,1.1-1.8
				c1.2,2.9,3.2,7.4,3.1,7.1c-0.1-0.3-1.1-5.1-1.8-8.8c0.5-0.6,1-1.1,1.5-1.6l0.9,3l-0.5-3.4c0.3-0.3,0.7-0.6,1-0.9l2.4,7.6
				l-0.9-8.6c1-0.7,2.1-1.3,3.2-1.8l0.7,8.2l1.1-8.9c1.2-0.4,2.3-0.6,3.5-0.7v8.1l1.6-8.2h0.1c1,0,2,0.1,3,0.3
				c-0.1,2.4-0.3,5.1-0.2,5c0.1-0.1,0.5-2.5,1-4.8c1,0.2,1.9,0.5,2.8,0.9l-1.5,11.8l2.8-11.3c0.7,0.4,1.5,0.8,2.1,1.2l-2,6.1
				l2.9-5.5c0.6,0.5,1.3,1,1.8,1.5l-0.6,2.1l1.1-1.6c0.4,0.4,0.8,0.8,1.1,1.2c-0.9,2.9-2.3,7.4-2.1,7.3c0.1-0.1,2.2-3.7,3.4-5.8
				c0.5,0.6,0.9,1.2,1.3,1.9l-2.5,3.9l3.2-2.5C323.3,400.5,323.9,402.3,324,404"/>
		</g>
		<g>
			<path class="st24" d="M228.8,321.7c0,0,1.6,0.1,2.1-0.3c0.5-0.5,0.9-0.5,0.8-0.2c-0.1,0.3-0.5,0.8-0.5,0.8s2.4,0.5,2.5,0.8
				c0.1,0.3-0.6,0.1-0.6,0.1s0.9,0.2,0.9,0.4c0,0.2-0.8,0-0.8,0s0.4,0.2,0.4,0.3c0,0.1-0.5,0.1-0.9,0c0,0,0.4,0.1,0.3,0.3
				c0,0.1-0.4,0-0.9,0c-1.1-0.1-2.4-0.1-3.2-0.9l-2-0.3L228.8,321.7"/>
		</g>
		<g>
			<path class="st25" d="M228.2,321l0.8,0.1c0,0-0.3,1.9-1.2,2.9l-2.8-0.9L228.2,321"/>
		</g>
		<g>
			<path class="st23" d="M228,321.5l-0.8,2.5l-18.4-3.5c-1.2-0.2-2.3-0.9-3.2-1.8l-1.7-1.9l2.6-5.7L228,321.5"/>
		</g>
		<g>
			<path class="st23" d="M190.8,293.1c2.9-0.6,6.1,3,9.6,7.1c2.8,3.3,8.6,11.7,8.6,11.7l-5.3,4.1l-9.8-7.5l-9-2.4
				C184.9,306.1,180.6,295.1,190.8,293.1"/>
		</g>
		<g>
			<path class="st24" d="M384.4,286.2l-0.4,3.5c0,0,0.3,1.4,1.2,1.3c1.1-0.2,2.1-1.4,2.1-1.4l0.6-6.9l-0.6-0.7L384.4,286.2"/>
		</g>
		<g>
			<path class="st26" d="M387.6,287c-1.6,1.5-3.6,0.9-3.6,0.9l0.1-1.6l3.9-2.2L387.6,287"/>
		</g>
		<g>
			<path class="st24" d="M381.9,277.3c-2.3,4.7,0.1,11.3,4.5,10.6c0,0,3.3-0.5,3.6-4.7c0.2-4.1-1.8-6.1-2.2-6.2
				C387.4,276.9,381.9,277.3,381.9,277.3"/>
		</g>
		<g>
			<path class="st37" d="M387.4,278.9c0,0-5.3,0.4-6.8-1.2c-1.5-1.6,0.1-4.2,2.2-4.7c2.1-0.5,4.8,1.4,3.9,2.7c0,0,4.1-0.2,5.1,3.9
				c0.9,4.1-2.3,6.4-2.3,6.4l0.2-2.3l-0.1-2.2l-0.6,0.8L387.4,278.9"/>
		</g>
		<g>
			<path class="st37" d="M381,276.9l0.1,4.9c0,0,0.4-1.8,1.1-1.6c0.7,0.2,0.4,2.5,0.6,3.3c0.3,0.8,3,4.1,5.6,1.5
				c2.6-2.6,1.1-7.2,1.1-7.2l-3.2-1.8L381,276.9"/>
		</g>
		<g>
			<path class="st24" d="M382,282c0.2-1.3,1.2-1.3,1.7-0.5c0.5,0.8,0.5,2.8-0.8,2.4C381.7,283.6,382,282,382,282"/>
		</g>
		<g>
			<path class="st38" d="M395.2,318c4.6,14.5,3,19-1.2,40.2l-5.4,0.8l-4.7-36.1L395.2,318"/>
		</g>
		<g>
			<path class="st39" d="M390.5,321c2.3,15.1-3.3,19-12,38l-5.5-0.1l3-34.9L390.5,321"/>
		</g>
		<g>
			<path class="st40" d="M375,334.6c2,1.3,6.7,3.8,11.2,3.3c0.8-0.1,1.5-0.3,2.2-0.5l-1.7,4.6l0,0.1c3.1-6.1,4.7-10.7,4.1-18l-6.3,1
				l-6.8,1l-2.3,2.3L375,334.6"/>
		</g>
		<g>
			<path class="st40" d="M386,341.6l0.3,2.4c3.6-3.9,4.7-8.9,6-9.1c1.3-0.1,4.2-0.6,5.7-1.2c0-2.8-0.3-5.4-0.9-8.5l-6.3-1.3
				l-0.5,0.1C390.8,331.2,389.1,335.7,386,341.6"/>
		</g>
		<g>
			<path class="st22" d="M401.8,396.7l1.2,3.2c0,0-6.7,3.1-9,1.8c0,0,5.4-2.4,6.2-4.6C400.9,394.9,401.8,396.7,401.8,396.7"/>
		</g>
		<g>
			<path class="st38" d="M393.5,358c0,0,3.9,12.7,4.2,15.9c0.3,3.2,4.4,22.3,4.4,22.3l-1.9,0.7L388,361l0.1-3L393.5,358"/>
		</g>
		<g>
			<path class="st41" d="M384,323l0.2,1.8l6.2-1l0.5-0.1l6,1.3c-0.4-2.1-1.1-4.4-1.9-7l-5.1,2.3L384,323"/>
		</g>
		<g>
			<path class="st23" d="M384.8,325.6l6.2-1c-0.1-1.2-0.2-2.4-0.4-3.5l-14.2,3.1L376,329l2.2-2.4L384.8,325.6"/>
		</g>
		<g>
			<path class="st22" d="M379.3,397.8l0.7,3.2c0,0-7,1.9-9,0.3c0,0,5.6-1.4,6.7-3.4C378.8,395.9,379.3,397.8,379.3,397.8"/>
		</g>
		<g>
			<path class="st39" d="M377.5,358.9c0,0,2.1,13,1.9,16.2c-0.2,3.2,0.7,22.5,0.7,22.5l-1.9,0.4l-6.1-37l0.5-3L377.5,358.9"/>
		</g>
		<g>
			<path class="st42" d="M374.5,298.3l0.7,16c0,0-3,14.8-2,17.3c0,0,7.6,3.2,18.3,2.2l1.4-5.9l2.1,5.1c3.4,0,6.9-1.7,6.9-1.7
				l-3.4-17l-1.8-14.6c-0.5-4.1-2.9-7.7-6.4-9.6l-0.9-0.5c0,0-2.1-0.6-2.8-0.6c-0.7,0-2.6,0.8-2.6,0.8L374.5,298.3"/>
		</g>
		<g>
			<path class="st42" d="M384.6,289.5c0,0-0.8,0.2-4.2-0.6c-4.1-1.1-16.3-3.9-16.3-3.9l-5.1,8l25.8,12l1.8-5.8
				c0.6-2,0.5-4.1-0.4-5.9L384.6,289.5"/>
		</g>
		<g>
			<path class="st43" d="M374,299l8,4l-7.9-2L374,299"/>
		</g>
		<g>
			<path class="st24" d="M344.8,276.3c0,0-0.9-0.8-0.8-1.5c0.1-0.6-0.1-0.9-0.3-0.6c-0.2,0.3-0.3,0.8-0.3,0.8s-1.5-1.1-1.8-1
				c-0.3,0.1,0.2,0.4,0.2,0.4s-0.6-0.4-0.7-0.3s0.4,0.5,0.4,0.5s-0.3-0.2-0.4-0.1c-0.1,0.1,0.2,0.4,0.5,0.5c0,0-0.2-0.2-0.4,0
				c-0.1,0.1,0.2,0.3,0.4,0.5c0.6,0.6,1.2,1.4,2.2,1.4l1.2,1L344.8,276.3"/>
		</g>
		<g>
			<path class="st19" d="M345,276.6l-0.8-0.6c0,0-1.3,1.2-1.3,2.4l3,1.6L345,276.6"/>
		</g>
		<g>
			<path class="st42" d="M344.4,275l-1.4,2.2l13.5,13.6c0.9,0.9,2,1.6,3.3,1.9c2.7,1,5.7-0.9,5.9-3.8l0.3-4.1L344.4,275"/>
		</g>
		<g>
			<path class="st44" d="M206,322l-12-13l9.4,7.1L206,322"/>
		</g>
		<g>
			<path class="st44" d="M204,316l-9.1-7l-0.9-1L204,316"/>
		</g>
	</g>
	<g>
		<path class="st7" d="M14,239c0.1-1.3,0.2-2.7,0.2-4l0.8,0.1c-0.1,1.3-0.2,2.6-0.3,3.9L14,239z M15.6,230l-0.6-0.1
			c0.1-1.3,0.2-2.6,0.4-3.9l0.6,0.1C15.9,227.4,15.7,228.7,15.6,230z M16.6,221l-0.6-0.1c0.1-1.3,0.3-2.6,0.4-3.9l0.6,0.1
			C16.8,218.4,16.7,219.7,16.6,221z M340.3,215l-0.3-0.8c0,0,1.5-0.8,3.6-2.2l0.4,0.7C341.9,214.2,340.4,215,340.3,215z M18,213
			l-1-0.1c0.3-1.3,0.7-2.6,1-3.9l1,0.1C18.6,210.4,18.3,211.7,18,213z M347.5,210l-0.5-0.6c1.2-0.8,2.3-1.6,3.4-2.4l0.6,0.5
			C349.9,208.4,348.7,209.2,347.5,210z M19.9,204l-0.9-0.2c0.4-1.3,0.8-2.6,1.1-3.8l0.9,0.2C20.6,201.5,20.2,202.7,19.9,204
			L19.9,204z M353.6,204l-0.6-0.5c0.9-1.1,1.6-2.3,2.3-3.5l0.7,0.4C355.3,201.7,354.5,202.9,353.6,204z M357.8,196l-0.8-0.2
			c0.5-1.2,0.9-2.5,1.1-3.8l0.9,0.1C358.8,193.4,358.4,194.8,357.8,196z M21.8,196l-0.8-0.2c0.4-1.3,0.8-2.5,1.2-3.8l0.8,0.2
			C22.6,193.5,22.2,194.7,21.8,196L21.8,196z M24.7,187l-0.7-0.2c0.4-1.3,0.9-2.5,1.3-3.8l0.7,0.3C25.5,184.5,25.1,185.7,24.7,187
			L24.7,187z M358.4,187c-0.1-1.3-0.2-2.6-0.4-3.8l0.6-0.2c0.2,1.3,0.4,2.7,0.4,4L358.4,187z M27.6,179l-0.6-0.3
			c0.5-1.2,0.9-2.5,1.4-3.7l0.6,0.3C28.5,176.5,28,177.8,27.6,179z M357.1,179c-0.6-1.3-1.3-2.5-2.1-3.6l0.8-0.4
			c0.8,1.2,1.5,2.4,2.2,3.7L357.1,179z M31.8,171l-0.8-0.3c0.7-1.2,1.5-2.5,2.2-3.7l0.8,0.4C33.2,168.6,32.5,169.8,31.8,171z
			 M352.4,172l-0.1-0.2c-0.7-1.1-1.4-2.2-2.3-3.2l0.5-0.6c0.9,1,1.7,2.2,2.3,3.3l0.1,0.2L352.4,172z M346.5,165
			c-1.1-0.8-2.3-1.6-3.5-2.3l0.4-0.7c1.3,0.7,2.5,1.5,3.6,2.4L346.5,165z M35.7,164l-0.7-0.4c0.7-1.2,1.5-2.4,2.3-3.6l0.7,0.4
			C37.2,161.6,36.5,162.8,35.7,164L35.7,164z M339.7,161c-1.2-0.5-2.5-0.9-3.7-1.3l0.2-0.7c1.3,0.4,2.5,0.9,3.8,1.4L339.7,161z
			 M331.8,158c-1.3-0.4-2.5-0.8-3.8-1.1l0.1-0.9c1.3,0.3,2.6,0.7,3.9,1.1L331.8,158z M39.6,156l-0.6-0.4c0.8-1.2,1.6-2.4,2.4-3.6
			l0.6,0.5C41.2,153.6,40.4,154.8,39.6,156L39.6,156z M322.9,156c-1.3-0.2-2.6-0.3-3.9-0.4l0.1-0.6c1.4,0.1,2.7,0.3,3.9,0.5
			L322.9,156z M314.9,155c-1.2-0.1-2.5-0.2-3.9-0.4l0.1-0.6c1.4,0.1,2.7,0.2,3.9,0.4L314.9,155z M305.9,154
			c-1.3-0.1-2.6-0.2-3.9-0.3l0.1-0.7c1.3,0.1,2.6,0.2,3.9,0.3L305.9,154z M296.9,153c-1.3-0.1-2.6-0.2-3.9-0.3l0.1-0.7
			c1.3,0.1,2.6,0.2,3.9,0.3L296.9,153z M288.9,153c-1.3-0.1-2.6-0.2-3.9-0.4l0.1-0.6c1.3,0.1,2.5,0.2,3.9,0.4L288.9,153z M279.9,152
			c-1.3-0.1-2.7-0.3-3.9-0.4l0.1-0.6c1.2,0.1,2.6,0.3,3.9,0.4L279.9,152z M271.9,151c-1.3-0.3-2.6-0.6-3.9-1l0.1-1
			c1.2,0.3,2.6,0.7,3.9,1L271.9,151z M45.6,149l-0.6-0.5c0.8-1.2,1.6-2.4,2.4-3.5l0.6,0.5C47.2,146.7,46.4,147.8,45.6,149z
			 M262.8,149c-1.3-0.4-2.6-0.7-3.8-1.1l0.2-0.9c1.2,0.4,2.5,0.8,3.8,1.1L262.8,149z M254.8,146c-1.3-0.4-2.5-0.8-3.8-1.3l0.2-0.7
			c1.2,0.4,2.5,0.9,3.8,1.3L254.8,146z M246.7,143c-1.3-0.4-2.5-0.9-3.7-1.4l0.3-0.6c1.2,0.5,2.4,1,3.7,1.4L246.7,143z M50.7,143
			l-0.7-0.6c1.1-1.2,2.2-2.3,3.3-3.4l0.7,0.6C52.9,140.7,51.8,141.8,50.7,143L50.7,143z M238.6,140c-1.2-0.7-2.4-1.5-3.6-2.3
			l0.4-0.7c1.2,0.8,2.4,1.5,3.6,2.2L238.6,140z M56.6,137l-0.6-0.6c1.1-1.1,2.3-2.3,3.4-3.4l0.6,0.7C58.8,134.8,57.7,135.9,56.6,137
			L56.6,137z M231.5,135c-1.2-0.8-2.4-1.6-3.5-2.4l0.5-0.6c1.1,0.8,2.3,1.6,3.5,2.4L231.5,135z M62.5,130l-0.5-0.6
			c1.2-0.8,2.3-1.7,3.5-2.4l0.5,0.6C64.8,128.4,63.7,129.2,62.5,130z M225.4,130c-1.1-0.8-2.3-1.7-3.4-2.5l0.5-0.5
			c1.2,0.8,2.3,1.6,3.5,2.5L225.4,130z M69.5,125l-0.5-0.6c1.2-0.8,2.4-1.6,3.6-2.4l0.4,0.6C71.8,123.4,70.6,124.2,69.5,125z
			 M218.5,124c-1.2-0.8-2.3-1.6-3.5-2.4l0.5-0.6c1.2,0.8,2.4,1.6,3.5,2.4L218.5,124z M76.4,120l-0.4-0.7c1.2-0.8,2.4-1.6,3.6-2.3
			l0.4,0.7C78.8,118.5,77.6,119.2,76.4,120z M211.6,119c-1.2-0.8-2.4-1.5-3.6-2.3l0.4-0.7c1.2,0.7,2.4,1.5,3.6,2.3L211.6,119z
			 M84.4,116l-0.4-0.8c1.2-0.8,2.4-1.5,3.7-2.2l0.3,0.8C86.8,114.5,85.6,115.2,84.4,116z M203.6,115c-1.2-0.8-2.4-1.5-3.6-2.2
			l0.3-0.8c1.2,0.7,2.5,1.4,3.7,2.2L203.6,115z M92.3,112l-0.3-0.6c1.2-0.5,2.5-0.9,3.7-1.4l0.3,0.6C94.8,111.1,93.5,111.5,92.3,112
			z M195.7,111c-1.2-0.5-2.5-0.9-3.7-1.4l0.3-0.6c1.3,0.4,2.5,0.9,3.7,1.4L195.7,111z M100.3,109l-0.3-0.7c1.2-0.5,2.5-0.9,3.8-1.3
			l0.2,0.7C102.8,108.1,101.5,108.5,100.3,109z M187.8,108c-1.2-0.4-2.5-0.9-3.8-1.3l0.2-0.7c1.3,0.4,2.5,0.8,3.8,1.3L187.8,108z
			 M108.2,106l-0.2-0.8c1.3-0.4,2.5-0.8,3.8-1.2l0.2,0.8C110.7,105.2,109.5,105.6,108.2,106z M179.8,106c-1.2-0.4-2.5-0.8-3.8-1.2
			l0.2-0.8c1.3,0.4,2.6,0.8,3.8,1.2L179.8,106z M116.2,104l-0.2-1c1.3-0.4,2.6-0.7,3.9-1l0.1,1C118.7,103.3,117.4,103.6,116.2,104z
			 M170.9,104c-1.3-0.4-2.6-0.7-3.9-1l0.1-1c1.3,0.3,2.6,0.6,3.9,1L170.9,104z M125.1,102l-0.1-0.6c1.3-0.2,2.6-0.3,3.9-0.4l0.1,0.6
			C127.7,101.7,126.4,101.8,125.1,102L125.1,102z M162.9,102c-1.3-0.1-2.6-0.3-3.9-0.4l0.1-0.6c1.3,0.1,2.6,0.2,3.9,0.4L162.9,102z
			 M133.1,101l-0.1-0.7c1.3-0.1,2.6-0.2,4-0.3l0,0.7C135.7,100.8,134.4,100.9,133.1,101z M154,101c-1.3-0.1-2.6-0.2-4-0.2l0-0.8
			c1.3,0.1,2.7,0.1,4,0.2L154,101z M142,101l0-0.9c1.3,0,2.7-0.1,4,0l0,0.9C144.7,100.9,143.3,101,142,101L142,101z"/>
	</g>
</g>
</svg>
