<svg xmlns="http://www.w3.org/2000/svg" width="427" height="1125" viewBox="0 0 427 1125"><defs><mask id="niosb" width="2.06" height="2.02" x="-1.03" y="-1.01"><path fill="#fff" d="M32 12h363v1061H32z"/><path d="M385 72.379a50 50 0 0 0-66.457-47.214l-243 84.703C55.457 116.868 42 135.81 42 157.082v811.17c0 24.125 17.226 44.81 40.952 49.175l243 44.709A50 50 0 0 0 385 1012.961z"/></mask><filter id="niosa" width="463" height="1181" x="-18" y="-38" filterUnits="userSpaceOnUse"><feOffset dy="20" in="SourceGraphic" result="FeOffset1023Out"/><feGaussianBlur in="FeOffset1023Out" result="FeGaussianBlur1024Out" stdDeviation="16 16"/></filter></defs><g><g><g filter="url(#niosa)"><path fill="none" stroke="#e0e0e0" stroke-opacity=".2" stroke-width="20" d="M385 72.379a50 50 0 0 0-66.457-47.214l-243 84.703C55.457 116.868 42 135.81 42 157.082v811.17c0 24.125 17.226 44.81 40.952 49.175l243 44.709A50 50 0 0 0 385 1012.961z" mask="url(&quot;#niosb&quot;)"/><path fill="#e0e0e0" fill-opacity=".2" d="M385 72.379a50 50 0 0 0-66.457-47.214l-243 84.703C55.457 116.868 42 135.81 42 157.082v811.17c0 24.125 17.226 44.81 40.952 49.175l243 44.709A50 50 0 0 0 385 1012.961z"/></g><path fill="#fff" d="M385 72.379a50 50 0 0 0-66.457-47.214l-243 84.703C55.457 116.868 42 135.81 42 157.082v811.17c0 24.125 17.226 44.81 40.952 49.175l243 44.709A50 50 0 0 0 385 1012.961z"/></g></g></svg>