<svg xmlns="http://www.w3.org/2000/svg" width="416" height="15" viewBox="0 0 416 15"><g><g><g><path d="M0 13.25l12.09-13 11.91 13z"/></g><g><path d="M33 13.25l12.09-13 11.91 13z"/></g><g><path d="M66 13.25l12.09-13 11.91 13z"/></g><g><path d="M0 14.25v-7.5l7 7.5z"/></g><g><path d="M16 14.25l12.09-13 11.91 13z"/></g><g><path d="M49 14.25l12.09-13 11.91 13z"/></g><g><path d="M82 14.25l12.09-13 11.91 13z"/></g><g><path d="M98 13.25l12.09-13 11.91 13z"/></g><g><path d="M131 13.25l12.09-13 11.91 13z"/></g><g><path d="M164 13.25l12.09-13 11.91 13z"/></g><g><path d="M197 13.25l12.09-13 11.91 13z"/></g><g><path d="M115 14.25l12.09-13 11.91 13z"/></g><g><path d="M148 14.25l12.09-13 11.91 13z"/></g><g><path d="M180 14.25l12.09-13 11.91 13z"/></g><g><path d="M213 14.25l12.09-13 11.91 13z"/></g><g><path d="M229 13.25l12.09-13 11.91 13z"/></g><g><path d="M263 13.25l12.09-13 11.91 13z"/></g><g><path d="M295 13.25l12.09-13 11.91 13z"/></g><g><path d="M328 13.25l12.09-13 11.91 13z"/></g><g><path d="M246 14.25l12.09-13 11.91 13z"/></g><g><path d="M279 14.25l12.09-13 11.91 13z"/></g><g><path d="M311 14.25l12.09-13 11.91 13z"/></g><g><path d="M344 14.25l12.09-13 11.91 13z"/></g><g><path d="M295 13.25l12.09-13 11.91 13z"/></g><g><path d="M344 14.25l12.09-13 11.91 13z"/></g><g><path d="M394 13.25l12.09-13 9.91 13z"/></g><g><path d="M377 14.25l12.09-13 11.91 13z"/></g><g><path d="M360 13.25l12.09-13 11.91 13z"/></g></g></g></svg>