<svg xmlns="http://www.w3.org/2000/svg" width="1449" height="35" viewBox="0 0 1449 35"><g><g><g><path d="M0 24.895L25.2.1l28.8 29z"/></g><g><path d="M74 29.1l29.215-29L132 29.1z"/></g><g><path d="M152 29.1l29.215-29L210 29.1z"/></g><g><path d="M230 29.1l29.215-29L288 29.1z"/></g><g><path d="M35 33.1l29.215-29L93 33.1z"/></g><g><path d="M113 33.1l29.215-29L171 33.1z"/></g><g><path d="M191 33.1l29.215-29L249 33.1z"/></g><g><path d="M269 33.1l29.215-29L327 33.1z"/></g><g><path d="M308 29.1l29.215-29L366 29.1z"/></g><g><path d="M386 29.1l29.215-29L444 29.1z"/></g><g><path d="M464 29.1l29.215-29L522 29.1z"/></g><g><path d="M542 29.1l29.215-29L600 29.1z"/></g><g><path d="M347 33.1l29.215-29L405 33.1z"/></g><g><path d="M425 33.1l29.215-29L483 33.1z"/></g><g><path d="M503 33.1l29.215-29L561 33.1z"/></g><g><path d="M581 33.1l29.215-29L639 33.1z"/></g><g><path d="M620 29.1l29.215-29L678 29.1z"/></g><g><path d="M698 29.1l29.215-29L756 29.1z"/></g><g><path d="M776 29.1l29.215-29L834 29.1z"/></g><g><path d="M854 29.1l29.215-29L912 29.1z"/></g><g><path d="M659 33.1l29.215-29L717 33.1z"/></g><g><path d="M737 33.1l29.215-29L795 33.1z"/></g><g><path d="M815 33.1l29.215-29L873 33.1z"/></g><g><path d="M893 33.1l29.215-29L951 33.1z"/></g><g><path d="M932 29.1l29.215-29L990 29.1z"/></g><g><path d="M1010 29.1l29.215-29 28.785 29z"/></g><g><path d="M1088 29.1l29.215-29 28.785 29z"/></g><g><path d="M1166 29.1l29.215-29 28.785 29z"/></g><g><path d="M971 33.1l29.215-29 28.785 29z"/></g><g><path d="M1049 33.1l29.215-29 28.785 29z"/></g><g><path d="M1127 33.1l29.215-29 28.785 29z"/></g><g><path d="M1205 33.1l29.215-29 28.785 29z"/></g><g><path d="M1088 29.1l29.215-29 28.785 29z"/></g><g><path d="M1205 33.1l29.215-29 28.785 29z"/></g><g><path d="M1322 29.1l29.215-29 28.785 29z"/></g><g><path d="M1400 29.1l28.996-29 20.004 29z"/></g><g><path d="M1283 33.1l29.215-29 28.785 29z"/></g><g><path d="M1244 29.1l29.215-29 28.785 29z"/></g><g><path d="M1361 33.1l29.215-29 28.785 29z"/></g></g></g></svg>