<svg width="20" height="17" viewBox="0 0 20 17" fill="none" xmlns="http://www.w3.org/2000/svg">
<path d="M18.5714 14.6429C18.5714 14.8326 18.404 15 18.2143 15H1.78571C1.59598 15 1.42857 14.8326 1.42857 14.6429V6.07143C1.66295 6.33929 1.91964 6.58482 2.19866 6.80804C3.79464 8.03571 5.40179 9.28571 6.95313 10.5804C7.79018 11.2835 8.82813 12.1429 9.98884 12.1429H10H10.0112C11.1719 12.1429 12.2098 11.2835 13.0469 10.5804C14.5982 9.28571 16.2054 8.03571 17.8013 6.80804C18.0804 6.58482 18.3371 6.33929 18.5714 6.07143V14.6429ZM18.5714 2.91295C18.5714 3.86161 17.6563 5.10045 16.9308 5.66964C15.4353 6.84152 13.9397 8.02455 12.4554 9.20759C11.8638 9.6875 10.7924 10.7143 10.0112 10.7143H10H9.98884C9.20759 10.7143 8.13616 9.6875 7.54464 9.20759C6.06027 8.02455 4.56473 6.84152 3.0692 5.66964C2.06473 4.87723 1.42857 3.77232 1.42857 2.5C1.42857 2.31027 1.59598 2.14286 1.78571 2.14286H18.2143C18.6384 2.14286 18.5714 2.63393 18.5714 2.91295ZM20 2.5C20 1.51786 19.1964 0.714285 18.2143 0.714285H1.78571C0.803571 0.714285 0 1.51786 0 2.5V14.6429C0 15.625 0.803571 16.4286 1.78571 16.4286H18.2143C19.1964 16.4286 20 15.625 20 14.6429V2.5Z" fill="#656266"/>
</svg>
