<svg xmlns="http://www.w3.org/2000/svg" width="47" height="47" viewBox="0 0 47 47"><defs><clipPath id="ukwpa"><path fill="#fff" d="M1 23.69c0-12.703 10.297-23 23-23s23 10.297 23 23-10.297 23-23 23-23-10.297-23-23z"/></clipPath></defs><g><g><g><path fill="#73c5c6" d="M1 23.69c0-12.703 10.297-23 23-23s23 10.297 23 23-10.297 23-23 23-23-10.297-23-23z"/><path fill="none" stroke="#fff" stroke-miterlimit="20" stroke-width="12" d="M1 23.69c0-12.703 10.297-23 23-23h0c12.703 0 23 10.297 23 23v0c0 12.703-10.297 23-23 23h0c-12.703 0-23-10.297-23-23z" clip-path="url(&quot;#ukwpa&quot;)"/></g><g><path fill="none" stroke="#fff" stroke-linecap="round" stroke-miterlimit="20" stroke-width="2" d="M15.05 24.128h15.463"/></g><g><path fill="none" stroke="#fff" stroke-linecap="round" stroke-miterlimit="20" stroke-width="2" d="M25.447 18.197l5.928 5.928"/></g><g><path fill="none" stroke="#fff" stroke-linecap="round" stroke-miterlimit="20" stroke-width="2" d="M25.3 30.195l6.075-6.075"/></g></g></g></svg>