<svg xmlns="http://www.w3.org/2000/svg" width="35" height="72" viewBox="0 0 35 72"><g><g><g><path d="M0 14.705v28.077c0 7.555 6.812 13.795 15.541 14.611v-1.307c-8.01-.799-14.24-6.458-14.24-13.304V14.705C1.301 7.314 8.562 1.3 17.487 1.3s16.186 6.013 16.186 13.404v28.077c0 7.21-6.911 13.107-15.535 13.39V27.576h-1.301V68.99l-3.65-3.649-.92.92 5.22 5.22 5.22-5.22-.92-.92-3.65 3.65V57.392c9.342-.289 16.837-6.686 16.837-14.611V14.705C34.974 6.596 27.13 0 17.487 0 7.845 0 0 6.596 0 14.705z"/></g><g><path d="M22.759 14.244a5.28 5.28 0 0 1-5.275 5.274 5.28 5.28 0 0 1-5.274-5.274 5.28 5.28 0 0 1 5.274-5.274 5.28 5.28 0 0 1 5.275 5.274zm-5.275 3.975a3.978 3.978 0 0 0 3.973-3.975 3.979 3.979 0 0 0-3.973-3.975 3.979 3.979 0 0 0-3.973 3.975 3.979 3.979 0 0 0 3.973 3.975z"/></g></g></g></svg>